# WaveFront *.obj file (generated by CINEMA 4D)

g wolf
usemtl Material
v -0.020257 0.147593 -0.232133
v -0.069519 -0.122355 -0.228682
v -0.000485 0.193069 -0.080643
v -0.067843 -0.102247 -0.282297
v -0.093222 -0.099493 -0.199457
v -0.005368 0.114897 0.460092
v 0.065495 0.169499 0.087705
v -0.067632 0.086753 -0.230265
v 0.021698 -0.015596 0.008575
v -0.099452 -0.006053 -0.147445
v 0.018506 0.120802 0.425826
v -0.074313 -0.083887 -0.175603
v -0.083665 0.119938 -0.099605
v -0.118151 -0.277967 -0.250010
v 0.087751 0.096746 -0.197275
v -0.038473 -0.021333 -0.162572
v -0.109450 -0.013505 -0.205558
v -0.029889 0.050224 0.255157
v -0.076852 -0.098968 -0.287689
v 0.037567 0.014299 -0.060226
v -0.033052 -0.030724 0.084832
v -0.098418 -0.284635 0.181573
v 0.061327 -0.084231 -0.241665
v -0.091728 -0.055384 0.119732
v -0.075626 -0.283594 0.153629
v -0.011558 0.093622 -0.250283
v -0.065351 0.134049 -0.116009
v 0.033052 -0.030724 0.084832
v -0.078631 0.069255 0.010326
v -0.067200 -0.064461 0.165150
v 0.073162 -0.124884 -0.317325
v -0.058915 0.024876 -0.097055
v -0.075969 0.117999 0.229510
v -0.011493 0.001313 -0.383220
v 0.017077 -0.007702 -0.176076
v -0.086198 0.055973 0.066619
v -0.041185 0.218565 0.190708
v -0.072396 -0.250448 0.152626
v -0.065495 0.169499 0.087705
v -0.081595 -0.071890 0.173576
v -0.071732 0.137728 0.206633
v 0.066456 0.182141 0.212770
v 0.038310 0.201820 0.421559
v -0.066915 0.268328 0.365223
v 0.035587 0.205145 0.423914
v 0.033497 0.205919 0.425003
v -0.102457 0.064024 -0.178640
v 0.028863 0.205322 0.426482
v -0.036168 0.180682 0.414243
v 0.025115 0.202168 0.426600
v 0.024050 0.199981 0.426112
v 0.066306 0.165100 0.350674
v 0.024050 0.195437 0.424276
v 0.025115 0.193525 0.423107
v -0.004521 0.095847 -0.258073
v 0.028863 0.191338 0.420832
v 0.031180 0.191277 0.419947
v 0.033497 0.191935 0.419353
v 0.072116 0.153666 0.182365
v 0.037245 0.195090 0.419235
v 0.038310 0.197277 0.419723
v -0.118827 -0.263066 0.177231
v 0.038310 0.201820 0.421559
v -0.032713 0.200576 0.423762
v 0.035587 0.205145 0.423914
v 0.033497 0.205919 0.425003
v -0.105402 -0.257182 0.188014
v 0.028863 0.205322 0.426482
v 0.118819 -0.279029 0.183798
v 0.025115 0.202168 0.426600
v 0.024050 0.199981 0.426112
v 0.063754 0.120951 -0.158744
v 0.024050 0.195437 0.424276
v 0.025115 0.193525 0.423107
v 0.075810 -0.218021 0.127327
v 0.028863 0.191338 0.420832
v 0.031180 0.191277 0.419947
v 0.033497 0.191935 0.419353
v -0.070608 0.237082 0.343423
v 0.037245 0.195090 0.419235
v 0.038310 0.197277 0.419723
v -0.039216 0.238580 0.408589
v -0.053424 0.065985 -0.250204
v -0.025904 0.231963 0.172678
v -0.040123 0.016232 -0.058993
v -0.005974 -0.028909 -0.386871
v 0.094775 -0.246954 -0.304168
v 0.106070 0.034155 -0.183552
v 0.030428 0.199815 0.423076
v -0.028625 0.197310 0.419442
v 0.084256 0.146766 0.081042
v 0.048343 0.104404 0.290032
v -0.059351 0.115068 -0.222031
v 0.086317 0.066642 -0.228865
v -0.082792 0.058008 0.229510
v 0.000000 0.049981 0.281973
v -0.016462 0.192161 0.431092
v 0.052946 0.064370 -0.251995
v -0.102710 0.058097 -0.125381
v -0.105650 -0.278429 0.200653
v 0.074313 -0.083887 -0.175603
v 0.040749 0.201661 0.415412
v 0.040208 0.204938 0.416937
v 0.038639 0.207755 0.418658
v 0.036195 0.209837 0.420407
v 0.033116 0.210978 0.422011
v 0.029703 0.211068 0.423315
v 0.026289 0.210098 0.424191
v 0.023210 0.208162 0.424553
v 0.020766 0.205450 0.424364
v 0.019197 0.202228 0.423645
v 0.018656 0.198812 0.422465
v 0.019197 0.195533 0.420940
v 0.020766 0.192716 0.419220
v 0.023210 0.190635 0.417471
v 0.026289 0.189494 0.415867
v 0.029703 0.189404 0.414562
v 0.033116 0.190374 0.413687
v 0.036195 0.192310 0.413326
v 0.038639 0.195022 0.413514
v 0.040208 0.198244 0.414232
v -0.038310 0.201820 0.421559
v -0.088956 -0.163547 -0.305298
v 0.077833 -0.165401 -0.274182
v -0.035587 0.205145 0.423914
v -0.033497 0.205919 0.425003
v 0.036645 0.199762 0.420454
v -0.028863 0.205322 0.426482
v -0.046242 -0.017596 -0.228832
v -0.025115 0.202168 0.426600
v -0.024050 0.199981 0.426112
v -0.077833 -0.165401 -0.274182
v -0.024050 0.195437 0.424276
v -0.025115 0.193525 0.423107
v -0.082879 -0.215704 0.121643
v -0.028863 0.191338 0.420832
v -0.031180 0.191277 0.419947
v -0.033497 0.191935 0.419353
v -0.096473 0.085795 0.215195
v -0.037245 0.195090 0.419235
v -0.038310 0.197277 0.419723
v 0.059351 0.115068 -0.222031
v 0.066915 0.268328 0.365223
v -0.092701 -0.099289 -0.273065
v 0.000000 0.115381 0.477840
v -0.054247 0.208214 0.152414
v -0.030755 0.197021 0.418761
v -0.038738 -0.026183 0.130559
v -0.044431 0.247130 0.392161
v 0.009842 0.136025 0.486756
v -0.115500 -0.264696 0.156022
v 0.062116 -0.018159 -0.260207
v -0.083881 -0.284571 -0.250402
v 0.075969 0.117999 0.229510
v -0.018506 0.120802 0.425826
v 0.084588 0.035643 0.217476
v -0.096583 0.010318 -0.231696
v -0.021126 0.080063 0.321331
v -0.028708 0.198564 0.422130
v -0.075853 -0.044152 0.094415
v 0.038473 -0.021333 -0.162572
v -0.040749 0.201661 0.415412
v -0.040208 0.204938 0.416937
v -0.038639 0.207755 0.418658
v -0.036195 0.209837 0.420407
v -0.033116 0.210978 0.422011
v -0.029703 0.211068 0.423315
v -0.026289 0.210098 0.424191
v -0.023210 0.208162 0.424553
v -0.020766 0.205450 0.424364
v -0.019197 0.202228 0.423645
v -0.018656 0.198812 0.422465
v -0.019197 0.195533 0.420940
v -0.020766 0.192716 0.419220
v -0.023210 0.190635 0.417471
v -0.026289 0.189494 0.415867
v -0.029703 0.189404 0.414562
v -0.033116 0.190374 0.413687
v -0.036195 0.192310 0.413326
v -0.038639 0.195022 0.413514
v -0.040208 0.198244 0.414232
v 0.057425 0.217400 0.224914
v 0.102457 0.064024 -0.178640
v 0.025947 0.137747 0.453129
v -0.061327 -0.084231 -0.241665
v -0.034770 0.199847 0.087989
v 0.008596 0.214087 0.131053
v -0.095012 -0.058020 -0.160991
v -0.087751 0.096746 -0.197275
v -0.096696 -0.022599 0.182827
v -0.106348 -0.054851 -0.183596
v 0.072538 0.179792 0.297683
v 0.062074 -0.022850 -0.122789
v -0.063754 0.120951 -0.158744
v 0.047265 0.167890 0.398775
v -0.062074 -0.022850 -0.122789
v 0.093222 -0.099493 -0.199457
v 0.001217 0.187894 0.446736
v -0.042040 0.105881 -0.240221
v 0.000000 -0.026664 0.163188
v -0.098461 0.040712 0.203228
v -0.035154 0.239504 0.227142
v -0.070896 -0.156088 -0.300740
v -0.070166 0.163128 0.020178
v 0.020575 0.166249 -0.199899
v -0.069925 0.025066 0.003482
v -0.057168 0.257298 0.349657
v 0.067313 -0.055940 0.099850
v 0.091720 -0.011911 0.148519
v -0.084256 0.146766 0.081042
v -0.077233 -0.093903 0.106744
v -0.064932 0.152044 0.227480
v -0.064391 0.166955 0.332712
v -0.074809 0.141528 0.019472
v -0.082311 -0.126224 -0.315952
v 0.028006 0.125281 0.378807
v -0.079396 0.114101 0.123545
v 0.078631 0.069255 0.010326
v -0.065632 0.098910 -0.048179
v 0.000000 0.114814 0.465364
v -0.070803 0.227506 0.360147
v 0.082311 -0.126224 -0.315952
v -0.038310 0.201820 0.421559
v 0.009358 -0.032462 -0.437605
v -0.025152 0.177947 -0.135850
v -0.035587 0.205145 0.423914
v -0.033497 0.205919 0.425003
v -0.077941 -0.241706 -0.274707
v -0.028863 0.205322 0.426482
v 0.117050 -0.278238 -0.248232
v -0.025115 0.202168 0.426600
v -0.024050 0.199981 0.426112
v -0.108954 -0.285664 0.150538
v -0.024050 0.195437 0.424276
v -0.025115 0.193525 0.423107
v -0.009358 -0.032462 -0.437605
v -0.028863 0.191338 0.420832
v -0.031180 0.191277 0.419947
v -0.033497 0.191935 0.419353
v 0.109450 -0.013505 -0.205558
v -0.037245 0.195090 0.419235
v -0.038310 0.197277 0.419723
v -0.104002 -0.254787 -0.242263
v 0.000000 -0.032540 -0.378710
v -0.102242 -0.236484 0.153069
v 0.054247 0.208214 0.152414
v 0.025035 0.177571 -0.136721
v -0.014942 0.121572 0.436610
v 0.029526 0.207546 0.431832
v 0.095673 0.098689 -0.088468
v -0.047829 0.221338 0.408972
v 0.039216 0.238580 0.408589
v -0.012443 0.115828 -0.272543
v -0.033919 0.197193 0.419100
v 0.010294 0.116894 0.451786
v 0.005368 0.115623 0.460963
v -0.063237 0.136061 -0.052328
v -0.032872 0.190445 0.011536
v 0.000000 -0.052537 -0.440468
v 0.065632 0.098910 -0.048179
v 0.038738 -0.026183 0.130559
v 0.054839 0.040839 -0.056934
v 0.058131 0.231418 0.295658
v -0.072116 0.153666 0.182365
v 0.000000 0.056388 -0.287134
v 0.075853 -0.044152 0.094415
v -0.118326 -0.277665 -0.250810
v -0.021277 0.176316 0.441624
v -0.030428 0.199815 0.423076
v -0.037374 0.055333 -0.254207
v 0.098461 0.040712 0.203228
v 0.060509 -0.050538 0.119337
v -0.091818 0.093513 -0.154703
v -0.046594 0.169153 -0.055524
v 0.095012 -0.058020 -0.160991
v 0.073375 0.288524 0.372210
v 0.059080 -0.061766 -0.178437
v -0.073478 -0.247453 -0.301778
v 0.091818 0.093513 -0.154703
v -0.025947 0.137747 0.453129
v 0.106348 -0.054851 -0.183596
v 0.082879 -0.215704 0.121643
v 0.098418 -0.284635 0.181573
v 0.000000 0.245297 0.249583
v 0.065451 -0.274116 -0.270322
v 0.018271 0.079496 -0.285967
v 0.028708 0.198564 0.422130
v 0.000000 0.007253 -0.217541
v 0.000000 0.114088 0.464493
v 0.014942 0.121572 0.436610
v -0.018271 0.079496 -0.285967
v 0.010294 0.117621 0.452658
v 0.097119 -0.255818 0.137325
v 0.081279 0.276924 0.371443
v 0.063237 0.136061 -0.052328
v -0.050598 0.188368 0.194336
v -0.076328 -0.002247 -0.257652
v 0.020230 0.185622 0.433847
v 0.076852 -0.098968 -0.287689
v 0.108954 -0.285664 0.150538
v 0.005368 0.114897 0.460092
v 0.070608 0.237082 0.343423
v 0.070166 0.163128 0.020178
v 0.065351 0.134049 -0.116009
v 0.069519 -0.122355 -0.228682
v 0.044485 0.258839 0.365800
v -0.009713 0.135965 0.486407
v 0.000000 -0.000794 -0.140765
v -0.035225 0.014683 -0.106244
v 0.032713 0.200576 0.423762
v -0.102435 -0.283450 -0.256426
v -0.079190 -0.163619 0.154730
v 0.068462 -0.007048 0.108696
v 0.028803 -0.001178 -0.210501
v 0.079396 0.114101 0.123545
v 0.071732 0.137728 0.206633
v 0.119464 -0.260938 -0.257197
v 0.119800 -0.278850 0.182197
v -0.061008 -0.021040 0.099236
v -0.094775 -0.246954 -0.304168
v -0.028055 0.197791 0.420420
v -0.075810 -0.218021 0.127327
v 0.102242 -0.236484 0.153069
v 0.092231 0.105878 0.151021
v 0.020803 0.187359 0.424595
v 0.050598 0.188368 0.194336
v -0.092231 0.105878 0.151021
v 0.098717 -0.245727 -0.281058
v 0.052111 -0.030926 0.105537
v -0.054839 0.040839 -0.056934
v 0.000000 0.021118 -0.383782
v -0.086317 0.066642 -0.228865
v 0.115500 -0.264696 0.156022
v 0.102435 -0.283450 -0.256426
v -0.035250 0.197610 0.420090
v 0.000000 0.245726 0.419776
v 0.000000 0.152433 -0.247500
v 0.081595 -0.071890 0.173576
v -0.033502 0.217970 0.146513
v 0.042400 0.097423 -0.242708
v 0.101050 -0.087053 0.165322
v -0.076510 0.186705 0.154460
v -0.119464 -0.260938 -0.257197
v -0.048343 0.104404 0.290032
v -0.057425 0.217400 0.224914
v -0.056600 0.234475 0.294120
v -0.052111 -0.030926 0.105537
v -0.002895 -0.000932 -0.057402
v -0.053755 -0.001290 0.005313
v 0.050761 0.006128 0.212306
v -0.119800 -0.278850 0.182197
v 0.046594 0.169153 -0.055524
v -0.038884 0.097112 0.313834
v 0.042561 0.143709 0.373285
v 0.029889 0.050224 0.255157
v 0.000000 0.217669 0.441104
v -0.054737 0.078254 0.264395
v -0.074609 0.180421 0.249127
v -0.099165 -0.275882 -0.229346
v 0.000000 -0.032228 0.069966
v -0.079063 0.029727 -0.102331
v -0.066306 0.165100 0.350674
v -0.062116 -0.018159 -0.260207
v -0.083717 0.151549 0.253372
v 0.034291 0.189625 0.010788
v 0.077354 -0.207569 0.149795
v 0.079190 -0.163619 0.154730
v 0.089846 -0.191465 0.158626
v -0.018549 0.048499 0.271362
v -0.073162 -0.124884 -0.317325
v -0.027874 0.125599 0.372302
v 0.086198 0.055973 0.066619
v 0.061832 0.071263 -0.047223
v -0.105110 -0.288524 0.190615
v 0.107685 -0.200168 0.149180
v 0.083665 0.119938 -0.099605
v 0.047829 0.221338 0.408972
v 0.054737 0.078254 0.264395
v 0.064932 0.152044 0.227480
v 0.048521 0.161544 -0.124065
v -0.066456 0.182141 0.212770
v 0.080463 0.064566 0.117114
v 0.118151 -0.277967 -0.250010
v -0.095673 0.098689 -0.088468
v 0.020257 0.147593 -0.232133
v 0.077941 -0.241706 -0.274707
v -0.108679 -0.285633 -0.238358
v -0.010294 0.117621 0.452658
v 0.002988 0.105094 0.461115
v 0.091728 -0.055384 0.119732
v 0.034293 0.200570 0.423100
v 0.089947 -0.248963 0.166446
v 0.037374 0.055333 -0.254207
v 0.021126 0.080063 0.321331
v -0.094577 0.047873 0.145964
v 0.011493 0.001313 -0.383220
v 0.031163 0.226539 0.168094
v 0.055095 0.253556 0.333479
v -0.018142 0.112937 0.463202
v -0.091720 -0.011911 0.148519
v 0.038173 0.243582 0.294695
v -0.080463 0.064566 0.117114
v -0.081279 0.276924 0.371443
v 0.099452 -0.006053 -0.147445
v 0.080121 0.001125 0.206933
v 0.008090 0.139568 0.500000
v -0.034293 0.200570 0.423100
v -0.067313 -0.055940 0.099850
v -0.101050 -0.087053 0.165322
v 0.082792 0.058008 0.229510
v 0.074809 0.141528 0.019472
v -0.040488 -0.007980 0.191590
v 0.059434 -0.030083 0.180775
v 0.118827 -0.263066 0.177231
v 0.119955 -0.278617 0.181473
v 0.118326 -0.277665 -0.250810
v 0.094577 0.047873 0.145964
v -0.020575 0.166249 -0.199899
v 0.058915 0.024876 -0.097055
v 0.083717 0.151549 0.253372
v 0.018142 0.112937 0.463202
v -0.050761 0.006128 0.212306
v 0.005974 -0.028909 -0.386871
v 0.000000 -0.004468 0.208274
v 0.043927 0.153744 -0.184608
v 0.105110 -0.288524 0.190615
v -0.059434 -0.030083 0.180775
v 0.102710 0.058097 -0.125381
v 0.021533 0.037770 -0.244285
v -0.088500 -0.156528 -0.273295
v 0.033919 0.197193 0.419100
v -0.106070 0.034155 -0.183552
v 0.012443 0.115828 -0.272543
v -0.019550 -0.007524 -0.174680
v 0.070896 -0.156088 -0.300740
v 0.067843 -0.102247 -0.282297
v 0.075626 -0.283594 0.153629
v -0.069047 -0.264609 -0.246824
v -0.036645 0.199762 0.420454
v -0.077354 -0.207569 0.149795
v -0.107685 -0.200168 0.149180
v -0.029526 0.207546 0.431832
v 0.067632 0.086753 -0.230265
v 0.041185 0.218565 0.190708
v -0.009103 0.142931 0.496355
v -0.065451 -0.274116 -0.270322
v 0.014708 0.262619 0.378702
v -0.077893 -0.271341 0.188288
v 0.077233 -0.093903 0.106744
v -0.015708 0.113754 0.418121
v 0.030755 0.197021 0.418761
v 0.072396 -0.250448 0.152626
v 0.064391 0.166955 0.332712
v -0.036252 0.198529 0.420614
v -0.072538 0.179792 0.297683
v -0.021372 0.037426 -0.243638
v 0.069047 -0.264609 -0.246824
v 0.069925 0.025066 0.003482
v -0.098717 -0.245727 -0.281058
v -0.118819 -0.279029 0.183798
v 0.079063 0.029727 -0.102331
v -0.089947 -0.248963 0.166446
v 0.000000 0.174337 -0.205394
v 0.040488 -0.007980 0.191590
v -0.043927 0.153744 -0.184608
v 0.077893 -0.271341 0.188288
v -0.095566 0.110410 0.180664
v 0.105402 -0.257182 0.188014
v 0.104002 -0.254787 -0.242263
v -0.117050 -0.278238 -0.248232
v 0.108679 -0.285633 -0.238358
v 0.034770 0.199847 0.087989
v 0.000000 0.099275 -0.311557
v -0.010152 0.248098 0.296940
v -0.033374 0.258320 0.331134
v -0.014942 0.120846 0.435739
v -0.061832 0.071263 -0.047223
v 0.035154 0.239504 0.227142
v -0.028803 -0.001178 -0.210501
v 0.096696 -0.022599 0.182827
v 0.095566 0.110410 0.180664
v -0.059080 -0.061766 -0.178437
v 0.074609 0.180421 0.249127
v 0.028055 0.197791 0.420420
v 0.061008 -0.021040 0.099236
v 0.092701 -0.099289 -0.273065
v 0.000000 0.200191 0.074745
v -0.110007 -0.279034 -0.282721
v -0.089846 -0.191465 0.158626
v 0.099165 -0.275882 -0.229346
v 0.088500 -0.156528 -0.273295
v 0.066054 0.091750 0.242527
v -0.005368 0.115623 0.460963
v -0.073375 0.288524 0.372210
v 0.067200 -0.064461 0.165150
v 0.032224 0.123424 0.406726
v 0.000000 -0.034506 0.123569
v -0.048521 0.161544 -0.124065
v 0.000000 -0.028376 -0.500000
v -0.119955 -0.278617 0.181473
v 0.044431 0.247130 0.392161
v 0.073478 -0.247453 -0.301778
v -0.076035 -0.284255 -0.283816
v 0.009694 0.094094 -0.250195
v 0.035250 0.197610 0.420090
v 0.091007 -0.159747 -0.285744
v 0.028625 0.197310 0.419442
v 0.096583 0.010318 -0.231696
v 0.036252 0.198529 0.420614
v -0.091007 -0.159747 -0.285744
v -0.068462 -0.007048 0.108696
v 0.101580 -0.008871 0.173035
v 0.088956 -0.163547 -0.305298
v 0.110007 -0.279034 -0.282721
v -0.010294 0.116894 0.451786
v 0.018549 0.048499 0.271362
v 0.036168 0.180682 0.414243
v 0.076510 0.186705 0.154460
v 0.012863 0.110690 -0.253509
v 0.000000 0.111243 0.370434
v -0.066054 0.091750 0.242527
v 0.076035 -0.284255 -0.283816
v -0.080121 0.001125 0.206933
v -0.097119 -0.255818 0.137325
v -0.032224 0.123424 0.406726
v 0.070803 0.227506 0.360147
v 0.001160 0.088026 0.335763
v 0.046242 -0.017596 -0.228832
v -0.084588 0.035643 0.217476
v -0.047265 0.167890 0.398775
v 0.076328 -0.002247 -0.257652
v 0.035225 0.014683 -0.106244
v 0.000000 0.028968 0.236178
v -0.042561 0.143709 0.373285
v 0.053755 -0.001290 0.005313
v -0.021698 -0.015596 0.008575
v 0.096473 0.085795 0.215195
v -0.101580 -0.008871 0.173035
v 0.029631 0.259243 0.333080
v 0.038884 0.097112 0.313834
v 0.105650 -0.278429 0.200653
v 0.014942 0.120846 0.435739
v 0.015708 0.113754 0.418121
v -0.060509 -0.050538 0.119337
v 0.083881 -0.284571 -0.250402
v -0.041279 0.258181 0.371841

vt 0.474831 0.767088 0
vt 0.488711 0.757775 0
vt 0.609379 0.623288 0
vt 0.469008 0.724611 0
vt 0.610344 0.599562 0
vt 0.459456 0.793305 0
vt 0.467253 0.750763 0
vt 0.395808 0.50164 0
vt 0 1 0
vt 0.48462 0.782489 0
vt 0.528781 0.860447 0
vt 0.362466 0.369709 0
vt 0.024471 0.64431 0
vt 0.406456 0.411304 0
vt 0.692622 0.504471 0
vt 0.184626 0.355206 0
vt 0.475997 0.815446 0
vt 0.495942 0.780935 0
vt 0.526887 0.856207 0
vt 0.471686 0.736523 0
vt 0.528598 0.862678 0
vt 0.266014 0.647144 0
vt 0.499845 0.801958 0
vt 0.490517 0.812575 0
vt 0.490244 0.811723 0
vt 0 1 0
vt 0.469804 0.729461 0
vt 0.599718 0.607532 0
vt 0.598719 0.597518 0
vt 0.465745 0.749335 0
vt 0.530881 0.856491 0
vt 0.653495 0.507542 0
vt 0.464779 0.728223 0
vt 0 1 0
vt 0.466504 0.813755 0
vt 0.484142 0.752815 0
vt 0.474831 0.767088 0
vt 0.533744 0.855085 0
vt 0.462269 0.79507 0
vt 0.489859 0.811437 0
vt 0.487882 0.782818 0
vt 0.462756 0.730786 0
vt 0.46557 0.729689 0
vt 0.44406 0.398312 0
vt 0 1 0
vt 0.637534 0.635601 0
vt 0.466678 0.742061 0
vt 0.468204 0.735019 0
vt 0.553521 0.602831 0
vt 0.496863 0.805659 0
vt 0.534491 0.86189 0
vt 0.594111 0.535248 0
vt 0.525366 0.8584 0
vt 0.464679 0.727808 0
vt 0 1 0
vt 0.597228 0.579381 0
vt 0.580956 0.598184 0
vt 0.527647 0.863272 0
vt 0 1 0
vt 0.250704 0.294548 0
vt 0.477985 0.824249 0
vt 0.46396 0.747882 0
vt 0.533015 0.86103 0
vt 0.469383 0.328053 0
vt 0 1 0
vt 0.483299 0.800267 0
vt 0.588217 0.53894 0
vt 0.461888 0.813254 0
vt 0.462606 0.727787 0
vt 0.627321 0.358311 0
vt 0.55594 0.398312 0
vt 0.307378 0.420471 0
vt 0.81053 0.476807 0
vt 0.52573 0.856066 0
vt 0.525618 0.860881 0
vt 0.459315 0.789211 0
vt 0.464037 0.730013 0
vt 0 1 0
vt 0.488556 0.74959 0
vt 0.474509 0.805198 0
vt 0.598681 0.549994 0
vt 0.527069 0.853356 0
vt 0.459704 0.800426 0
vt 0.51591 0.791821 0
vt 0.483299 0.800267 0
vt 0.497867 0.810534 0
vt 0.46428 0.731015 0
vt 0.554115 0.862847 0
vt 0.250704 0.458881 0
vt 0.506778 0.810402 0
vt 0.463567 0.731622 0
vt 0.466377 0.748286 0
vt 0 1 0
vt 0.717743 0.492729 0
vt 0.530617 0.328053 0
vt 0.474831 0.767088 0
vt 0.506264 0.803765 0
vt 0.528726 0.864638 0
vt 0.493132 0.810665 0
vt 0.531751 0.858482 0
vt 0.618665 0.339043 0
vt 0.490127 0.754648 0
vt 0.477035 0.73654 0
vt 0.48511 0.768799 0
vt 0.502797 0.825711 0
vt 0.472789 0.75406 0
vt 0.471066 0.739817 0
vt 0.609379 0.623288 0
vt 0.58073 0.586609 0
vt 0.496808 0.781473 0
vt 0.515349 0.835842 0
vt 0.464627 0.728363 0
vt 0.464037 0.730013 0
vt 0.528726 0.864638 0
vt 0.18947 0.476807 0
vt 0.471595 0.72953 0
vt 0.46953 0.739997 0
vt 0.473516 0.783857 0
vt 0.458807 0.774253 0
vt 0.463993 0.748347 0
vt 0.466905 0.746627 0
vt 0.466077 0.735332 0
vt 0.493013 0.812944 0
vt 0.460502 0.77334 0
vt 0.465755 0.751317 0
vt 0.465756 0.730456 0
vt 0.654509 0.794346 0
vt 0.464023 0.722561 0
vt 0.462921 0.720778 0
vt 0.505114 0.330135 0
vt 0 1 0
vt 0.637534 0.369709 0
vt 0.492187 0.775399 0
vt 0.485221 0.804628 0
vt 0.472127 0.728869 0
vt 0.46491 0.730942 0
vt 0.464674 0.751874 0
vt 0 1 0
vt 0.46836 0.808736 0
vt 0.468285 0.775035 0
vt 0.466077 0.735332 0
vt 0.46587 0.72353 0
vt 0.599269 0.554858 0
vt 0.459863 0.804904 0
vt 0.549539 0.487347 0
vt 0.20156 0.403915 0
vt 0.48462 0.782489 0
vt 0.44406 0.398312 0
vt 0 1 0
vt 0.733986 0.647144 0
vt 0.381335 0.383205 0
vt 0.4675 0.728924 0
vt 0.580876 0.599332 0
vt 0.580956 0.598184 0
vt 0.581152 0.616172 0
vt 0.503584 0.806797 0
vt 0.490244 0.811723 0
vt 0.502495 0.837962 0
vt 0.471595 0.72953 0
vt 0.479135 0.75977 0
vt 0.462924 0.731477 0
vt 0.469399 0.753101 0
vt 0.502945 0.831977 0
vt 0.749296 0.458881 0
vt 0.44406 0.398312 0
vt 0.7264 0.473465 0
vt 0.464004 0.756081 0
vt 0.600823 0.620456 0
vt 0.556735 0.572716 0
vt 0.581248 0.618567 0
vt 0.597732 0.577716 0
vt 0.49071 0.812847 0
vt 0 1 0
vt 0.495942 0.780935 0
vt 0.465564 0.722267 0
vt 0.59041 0.541266 0
vt 0.140326 0.618176 0
vt 0.494886 0.330135 0
vt 0.580948 0.566627 0
vt 0.58578 0.562762 0
vt 0.459061 0.78179 0
vt 0 1 0
vt 0.473849 0.825912 0
vt 0.499845 0.801958 0
vt 0.610395 0.618277 0
vt 0.123392 0.580494 0
vt 0 1 0
vt 0.206107 0.619667 0
vt 0.463302 0.814164 0
vt 0.477869 0.740706 0
vt 0.532451 0.843359 0
vt 0.527653 0.863068 0
vt 0.095491 0.802353 0
vt 0.44406 0.398312 0
vt 0.372679 0.358311 0
vt 0.508952 0.802099 0
vt 0.554115 0.862847 0
vt 0.477999 0.732596 0
vt 0.483299 0.800267 0
vt 0.603627 0.617616 0
vt 0.471307 0.756222 0
vt 0.527653 0.863068 0
vt 0.464875 0.736583 0
vt 0.597228 0.579381 0
vt 0.463767 0.732595 0
vt 0.654508 0.30949 0
vt 0 1 0
vt 0.496036 0.784173 0
vt 0.465755 0.73252 0
vt 0.464829 0.720767 0
vt 0.581263 0.552818 0
vt 0.459452 0.491871 0
vt 0.466053 0.734327 0
vt 0.467083 0.750025 0
vt 0.46831 0.733388 0
vt 0.530028 0.864496 0
vt 0.554417 0.439854 0
vt 0.327249 0.514725 0
vt 0.515349 0.835842 0
vt 0.472618 0.739591 0
vt 0.612434 0.62434 0
vt 0.587471 0.612386 0
vt 0.529701 0.861377 0
vt 0.717743 0.492729 0
vt 0.581399 0.548416 0
vt 0.52965 0.858487 0
vt 0 1 0
vt 0.501863 0.837698 0
vt 0.485796 0.766729 0
vt 0.459751 0.801754 0
vt 0.793893 0.619667 0
vt 0.549539 0.344433 0
vt 0.859674 0.53178 0
vt 0.876608 0.580494 0
vt 0.52965 0.858487 0
vt 0.461693 0.807861 0
vt 0.554417 0.324238 0
vt 0.20156 0.403915 0
vt 0.637534 0.369709 0
vt 0.81053 0.476807 0
vt 0.5 0.349903 0
vt 0.654509 0.410099 0
vt 0.479296 0.732786 0
vt 0.588077 0.539594 0
vt 0.526164 0.858016 0
vt 0.45983 0.803985 0
vt 0.528781 0.860447 0
vt 0.395808 0.50164 0
vt 0 1 0
vt 0.381335 0.383205 0
vt 0.345492 0.30949 0
vt 0.489151 0.749958 0
vt 0.459637 0.752229 0
vt 0.466992 0.735881 0
vt 0.478875 0.782885 0
vt 0.589612 0.566365 0
vt 0.581248 0.618567 0
vt 0.672751 0.288544 0
vt 0.44406 0.398312 0
vt 0.5763 0.565987 0
vt 0.024471 0.64431 0
vt 0 1 0
vt 0.206107 0.292805 0
vt 0.20156 0.317513 0
vt 0.024472 0.334679 0
vt 0.554115 0.862847 0
vt 0.553521 0.602831 0
vt 0.463993 0.748347 0
vt 0.44406 0.398312 0
vt 0.206107 0.292805 0
vt 0.406456 0.327301 0
vt 0.184626 0.355206 0
vt 0.4237 0.565987 0
vt 0.530617 0.328053 0
vt 0.327249 0.288544 0
vt 0.717743 0.44857 0
vt 0.381335 0.339043 0
vt 0.81053 0.641144 0
vt 0.859674 0.618176 0
vt 0.733986 0.647144 0
vt 0.477415 0.822225 0
vt 0.502495 0.837962 0
vt 0.470071 0.78296 0
vt 0.481465 0.745903 0
vt 0.46953 0.739997 0
vt 0.584418 0.618966 0
vt 0.468862 0.749484 0
vt 0.345492 0.693741 0
vt 0.530617 0.607635 0
vt 0.637534 0.635601 0
vt 0.654509 0.794346 0
vt 0.532581 0.835305 0
vt 0.519892 0.848057 0
vt 0.48511 0.768799 0
vt 0.466992 0.735881 0
vt 0.530028 0.864496 0
vt 0.381335 0.383205 0
vt 0.904509 0.802353 0
vt 0.793893 0.811035 0
vt 0.975529 0.769161 0
vt 0.492286 0.773966 0
vt 0.492492 0.807826 0
vt 0.528781 0.860447 0
vt 0.206107 0.484169 0
vt 0.494886 0.330135 0
vt 0 1 0
vt 0.581248 0.618567 0
vt 0.458807 0.774253 0
vt 0 1 0
vt 0 1 0
vt 0.489924 0.749166 0
vt 0.471495 0.728278 0
vt 0.463109 0.721688 0
vt 0.18947 0.476807 0
vt 0.406456 0.327301 0
vt 0 1 0
vt 0.472618 0.739591 0
vt 0.466678 0.742061 0
vt 0.467367 0.753944 0
vt 0.206107 0.484169 0
vt 0 1 0
vt 0 1 0
vt 0.480786 0.783342 0
vt 0.465055 0.731428 0
vt 0.558814 0.552734 0
vt 0.526164 0.858016 0
vt 0.463993 0.748347 0
vt 0 1 0
vt 0 1 0
vt 0 1 0
vt 0.555051 0.82884 0
vt 0.527069 0.853356 0
vt 0.580881 0.588312 0
vt 0.465756 0.730456 0
vt 0.467253 0.750763 0
vt 0.533337 0.860528 0
vt 0.733986 0.647144 0
vt 0 1 0
vt 0 1 0
vt 0 1 0
vt 0.485221 0.804628 0
vt 0.489924 0.749166 0
vt 0.18947 0.641144 0
vt 0 1 0
vt 0.653495 0.391926 0
vt 0 1 0
vt 0 1 0
vt 0.597228 0.579381 0
vt 0.581636 0.543142 0
vt 0.497474 0.813438 0
vt 0.467367 0.753944 0
vt 0.485902 0.782701 0
vt 0.609476 0.62384 0
vt 0.526229 0.858659 0
vt 0.494886 0.466053 0
vt 0.530617 0.607635 0
vt 0.024472 0.459526 0
vt 0.733986 0.420963 0
vt 0.464362 0.726914 0
vt 0.466053 0.734327 0
vt 0.468962 0.73182 0
vt 0.464829 0.720767 0
vt 0.527647 0.863272 0
vt 0.5763 0.300087 0
vt 0 1 0
vt 0.463722 0.724297 0
vt 0.467362 0.722205 0
vt 0.614994 0.618664 0
vt 0.266014 0.647144 0
vt 0.7264 0.473465 0
vt 0.445583 0.324238 0
vt 0.489056 0.816451 0
vt 0.470472 0.823171 0
vt 0.538081 0.809172 0
vt 0.483049 0.769613 0
vt 0.464215 0.732819 0
vt 0.613896 0.614147 0
vt 0.465564 0.722267 0
vt 0.553331 0.610777 0
vt 0.749296 0.294548 0
vt 0.79844 0.403915 0
vt 0.024471 0.64431 0
vt 0 1 0
vt 0.581728 0.542511 0
vt 0.581399 0.548416 0
vt 0.44406 0.398312 0
vt 0.345491 0.410099 0
vt 0.282257 0.492729 0
vt 0 1 0
vt 0.55594 0.398312 0
vt 0.471066 0.739817 0
vt 0.58114 0.610011 0
vt 0.580859 0.579665 0
vt 0.717743 0.492729 0
vt 0.491154 0.779002 0
vt 0.526305 0.855364 0
vt 0.490517 0.812575 0
vt 0 1 0
vt 0.55594 0.398312 0
vt 0.527847 0.860249 0
vt 0.467367 0.753944 0
vt 0.464885 0.735427 0
vt 0.307378 0.504471 0
vt 0.250704 0.294548 0
vt 0.609476 0.62384 0
vt 0.465055 0.731428 0
vt 0.464679 0.727808 0
vt 0.46663 0.753166 0
vt 0.465755 0.751317 0
vt 0.5 0.349903 0
vt 0.482355 0.739235 0
vt 0.558814 0.552734 0
vt 0.459456 0.793305 0
vt 0.463722 0.724297 0
vt 0.395808 0.365723 0
vt 0.140326 0.53178 0
vt 0.469038 0.734202 0
vt 0.463993 0.748347 0
vt 0.466293 0.74778 0
vt 0.859674 0.618176 0
vt 0.493013 0.812944 0
vt 0.510317 0.819697 0
vt 0.465564 0.722267 0
vt 0.465755 0.73252 0
vt 0.599718 0.607532 0
vt 0.461874 0.784919 0
vt 0.5 0.349903 0
vt 0.445583 0.324238 0
vt 0.48511 0.768799 0
vt 0.490626 0.800192 0
vt 0.580948 0.566627 0
vt 0.505114 0.466053 0
vt 0 1 0
vt 0.81053 0.641144 0
vt 0.733986 0.420963 0
vt 0.345492 0.693741 0
vt 0.471154 0.735844 0
vt 0.459751 0.801754 0
vt 0.465745 0.749335 0
vt 0.554417 0.439854 0
vt 0.793893 0.484169 0
vt 0.498517 0.806656 0
vt 0.468158 0.760414 0
vt 0.533903 0.796593 0
vt 0.596633 0.544739 0
vt 0.588024 0.579111 0
vt 0.527069 0.853356 0
vt 0 1 0
vt 0.406456 0.411304 0
vt 0.491185 0.779437 0
vt 0.468842 0.723927 0
vt 0.58075 0.575909 0
vt 0.492379 0.807917 0
vt 0.095491 0.564873 0
vt 0.468285 0.775035 0
vt 0.598719 0.597518 0
vt 0.58114 0.610011 0
vt 0.59041 0.541266 0
vt 0.460749 0.780687 0
vt 0 1 0
vt 0 1 0
vt 0 1 0
vt 0 1 0
vt 0 1 0
vt 0 1 0
vt 0 1 0
vt 0 1 0
vt 0 1 0
vt 0 1 0
vt 0 1 0
vt 0 1 0
vt 0 1 0
vt 0 1 0
vt 0 1 0
vt 0 1 0
vt 0 1 0
vt 0 1 0
vt 0 1 0
vt 0 1 0
vt 0 1 0
vt 0.492286 0.773966 0
vt 0.468395 0.726339 0
vt 0.615779 0.621909 0
vt 0.495164 0.807698 0
vt 0 1 0
vt 0.095491 0.538963 0
vt 0.467362 0.722205 0
vt 0.466272 0.734068 0
vt 0 1 0
vt 0 1 0
vt 0 1 0
vt 0.489924 0.749166 0
vt 0.481465 0.745903 0
vt 0.468327 0.763951 0
vt 0.537437 0.859975 0
vt 0 1 0
vt 0.47823 0.82506 0
vt 0.466077 0.735332 0
vt 0.462924 0.731477 0
vt 0.603627 0.617616 0
vt 0.496863 0.805659 0
vt 0.527069 0.853356 0
vt 0 1 0
vt 0 1 0
vt 0.483049 0.769613 0
vt 0.471686 0.736523 0
vt 0 1 0
vt 0.327249 0.514725 0
vt 0 1 0
vt 0 1 0
vt 0.501863 0.837698 0
vt 0.472127 0.728869 0
vt 0.613896 0.614147 0
vt 0 1 0
vt 0 1 0
vt 0 1 0
vt 0.472383 0.739772 0
vt 0.557625 0.559726 0
vt 0.496863 0.805659 0
vt 0.459704 0.800426 0
vt 0.468862 0.749484 0
vt 0 1 0
vt 0 1 0
vt 0 1 0
vt 0.477035 0.73654 0
vt 0.466077 0.735332 0
vt 0.465755 0.73252 0
vt 0.55466 0.591882 0
vt 0.526403 0.862717 0
vt 0 1 0
vt 0.492957 0.791536 0
vt 0.497867 0.810534 0
vt 0.499012 0.806119 0
vt 0.492379 0.807917 0
vt 0.51872 0.795088 0
vt 0.480786 0.783342 0
vt 0.527647 0.863272 0
vt 0.627321 0.358311 0
vt 0 1 0
vt 0.024472 0.459526 0
vt 0.490127 0.754648 0
vt 0.477869 0.740706 0
vt 0.477157 0.773097 0
vt 0.461843 0.811999 0
vt 0.458776 0.773334 0
vt 0.462606 0.727787 0
vt 0.672751 0.514725 0
vt 0 1 0
vt 0.327249 0.514725 0
vt 0.46485 0.738342 0
vt 0.46587 0.72353 0
vt 0.466272 0.734068 0
vt 0.44406 0.398312 0
vt 0 1 0
vt 0.553331 0.610777 0
vt 0.58578 0.562762 0
vt 0.469383 0.607635 0
vt 0.519892 0.848057 0
vt 0.467362 0.722205 0
vt 0.581728 0.542511 0
vt 0.499012 0.806119 0
vt 0.469928 0.750509 0
vt 0.531355 0.865489 0
vt 0.282257 0.44857 0
vt 0.492924 0.813826 0
vt 0.526305 0.855364 0
vt 0.469399 0.753101 0
vt 0.533015 0.86103 0
vt 0.395808 0.50164 0
vt 0.024472 0.459526 0
vt 0.327249 0.288544 0
vt 0.482355 0.739235 0
vt 0.749296 0.458881 0
vt 0.266014 0.647144 0
vt 0.095491 0.301487 0
vt 0.492187 0.775399 0
vt 0.600823 0.620456 0
vt 0.462756 0.730786 0
vt 0.465745 0.749335 0
vt 0.46557 0.729689 0
vt 0.530881 0.856491 0
vt 0.445583 0.324238 0
vt 0.48462 0.782489 0
vt 0.613173 0.62562 0
vt 0.497474 0.813438 0
vt 0.526164 0.858016 0
vt 0.466272 0.734068 0
vt 0.530617 0.607635 0
vt 0.479296 0.732786 0
vt 0.465694 0.724813 0
vt 0.555736 0.583825 0
vt 0.492492 0.807826 0
vt 0.46428 0.731015 0
vt 0.381335 0.339043 0
vt 0.484142 0.752815 0
vt 0.5257 0.806306 0
vt 0.555736 0.583825 0
vt 0.462719 0.72834 0
vt 0.282257 0.44857 0
vt 0.733986 0.647144 0
vt 0.556046 0.865722 0
vt 0.465977 0.733427 0
vt 0 1 0
vt 0.524531 0.827249 0
vt 0.491154 0.779002 0
vt 0.469038 0.734202 0
vt 0.525618 0.860881 0
vt 0.464627 0.728363 0
vt 0.554417 0.439854 0
vt 0.672751 0.514725 0
vt 0 1 0
vt 0.499703 0.786625 0
vt 0.527847 0.860249 0
vt 0.464779 0.728223 0
vt 0.815374 0.355206 0
vt 0 1 0
vt 0.604192 0.365723 0
vt 0.526887 0.856207 0
vt 0.459472 0.793767 0
vt 0.495164 0.807698 0
vt 0.5 0.753937 0
vt 0 0.714703 0
vt 0 1 0
vt 0.494886 0.330135 0
vt 0 1 0
vt 0.654509 0.410099 0
vt 0.692622 0.504471 0
vt 0.466905 0.746627 0
vt 0.461493 0.488154 0
vt 0.458807 0.774253 0
vt 0.464829 0.720767 0
vt 0.467102 0.749259 0
vt 0.450461 0.344433 0
vt 0 1 0
vt 0.488711 0.757775 0
vt 0.467367 0.753944 0
vt 0.503507 0.809186 0
vt 0.526985 0.861113 0
vt 0.206107 0.811035 0
vt 0 1 0
vt 0 1 0
vt 0 1 0
vt 0 1 0
vt 0 1 0
vt 0 1 0
vt 0 1 0
vt 0 1 0
vt 0 1 0
vt 0 1 0
vt 0 1 0
vt 0 1 0
vt 0 1 0
vt 0 1 0
vt 0 1 0
vt 0 1 0
vt 0 1 0
vt 0 1 0
vt 0 1 0
vt 0 1 0
vt 0.499967 0.834792 0
vt 0.464362 0.726914 0
vt 0.586239 0.595329 0
vt 0.459863 0.804904 0
vt 0.533015 0.86103 0
vt 0 1 0
vt 0.55594 0.398312 0
vt 0.478757 0.763906 0
vt 0.463109 0.721688 0
vt 0.581636 0.543142 0
vt 0.460749 0.780687 0
vt 0.462606 0.727787 0
vt 0.469383 0.328053 0
vt 0.282257 0.44857 0
vt 0.692622 0.420471 0
vt 0.488711 0.757775 0
vt 0.464362 0.726914 0
vt 0.464875 0.736583 0
vt 0.627321 0.358311 0
vt 0.18947 0.641144 0
vt 0.250704 0.294548 0
vt 0.512134 0.797455 0
vt 0.464215 0.732819 0
vt 0.462756 0.730786 0
vt 0.49071 0.812847 0
vt 0.095491 0.564873 0
vt 0 1 0
vt 0.024472 0.334679 0
vt 0.464995 0.72145 0
vt 0.465745 0.749335 0
vt 0.493013 0.812944 0
vt 0.266014 0.420963 0
vt 0.505114 0.466053 0
vt 0.81053 0.641144 0
vt 0.492385 0.780119 0
vt 0.462924 0.731477 0
vt 0.497867 0.810534 0
vt 0.465756 0.730456 0
vt 0 1 0
vt 0.471595 0.72953 0
vt 0.526985 0.861113 0
vt 0.466293 0.74778 0
vt 0.467324 0.729442 0
vt 0 1 0
vt 0.095491 0.538963 0
vt 0.464037 0.730013 0
vt 0.526164 0.858016 0
vt 0.282257 0.492729 0
vt 0.345491 0.410099 0
vt 0 1 0
vt 0.498506 0.789177 0
vt 0.49635 0.781759 0
vt 0.51958 0.802811 0
vt 0.613173 0.62562 0
vt 0.459315 0.789211 0
vt 0.534491 0.86189 0
vt 0.528598 0.862678 0
vt 0.474509 0.805198 0
vt 0.468395 0.726339 0
vt 0.603627 0.617616 0
vt 0.464779 0.728223 0
vt 0.535964 0.857423 0
vt 0 1 0
vt 0.477035 0.73654 0
vt 0.468327 0.763951 0
vt 0.472789 0.75406 0
vt 0.496863 0.805659 0
vt 0.266014 0.420963 0
vt 0.465133 0.783452 0
vt 0.492829 0.789133 0
vt 0.477869 0.740706 0
vt 0.480832 0.753289 0
vt 0.465068 0.754195 0
vt 0.598681 0.549994 0
vt 0.653495 0.391926 0
vt 0.538081 0.809172 0
vt 0.478875 0.782885 0
vt 0.462719 0.72834 0
vt 0.346505 0.507542 0
vt 0.2736 0.473465 0
vt 0 1 0
vt 0.537437 0.859975 0
vt 0.555129 0.847689 0
vt 0.491185 0.779437 0
vt 0.467102 0.749259 0
vt 0.468613 0.734441 0
vt 0.46663 0.753166 0
vt 0.477415 0.822225 0
vt 0.496808 0.781473 0
vt 0.533744 0.855085 0
vt 0.459271 0.787929 0
vt 0.024471 0.769161 0
vt 0 1 0
vt 0.327249 0.514725 0
vt 0.467802 0.795013 0
vt 0.586239 0.595329 0
vt 0.558344 0.559956 0
vt 0.553521 0.602831 0
vt 0.528726 0.864638 0
vt 0.531355 0.865489 0
vt 0.484142 0.752815 0
vt 0.485902 0.782701 0
vt 0.459175 0.785141 0
vt 0 1 0
vt 0.46491 0.730942 0
vt 0.468395 0.726339 0
vt 0.466377 0.748286 0
vt 0.530617 0.607635 0
vt 0.604192 0.50164 0
vt 0.589612 0.566365 0
vt 0.461044 0.486468 0
vt 0.496949 0.812909 0
vt 0.459779 0.802539 0
vt 0.506264 0.803765 0
vt 0.468861 0.731404 0
vt 0.495164 0.807698 0
vt 0.459472 0.793767 0
vt 0.532449 0.864504 0
vt 0.733986 0.420963 0
vt 0.250704 0.458881 0
vt 0.608878 0.593579 0
vt 0.610344 0.599562 0
vt 0.492379 0.807917 0
vt 0.525618 0.860881 0
vt 0 1 0
vt 0.499948 0.786343 0
vt 0.472789 0.75406 0
vt 0.609379 0.623288 0
vt 0.46831 0.733388 0
vt 0.18947 0.476807 0
vt 0.445583 0.439854 0
vt 0.467102 0.749259 0
vt 0.459452 0.491871 0
vt 0.496949 0.812909 0
vt 0.528598 0.862678 0
vt 0 1 0
vt 0.530617 0.328053 0
vt 0.469399 0.753101 0
vt 0.46491 0.730942 0
vt 0.553687 0.602899 0
vt 0 1 0
vt 0.095491 0.301487 0
vt 0.503584 0.806797 0
vt 0.51958 0.802811 0
vt 0.469804 0.729461 0
vt 0.480832 0.753289 0
vt 0.588024 0.579111 0
vt 0 1 0
vt 0.489151 0.749958 0
vt 0.48072 0.763783 0
vt 0.49071 0.812847 0
vt 0.362466 0.635601 0
vt 0 1 0
vt 0.494941 0.783847 0
vt 0.581152 0.616172 0
vt 0.459456 0.793305 0
vt 0.464885 0.735427 0
vt 0.468962 0.73182 0
vt 0.81053 0.641144 0
vt 0.506264 0.803765 0
vt 0.479135 0.75977 0
vt 0.266014 0.420963 0
vt 0 1 0
vt 0.81053 0.641144 0
vt 0.468792 0.735891 0
vt 0.48462 0.782489 0
vt 0.466053 0.734327 0
vt 0.461213 0.485382 0
vt 0.470042 0.751312 0
vt 0.494886 0.466053 0
vt 0.527069 0.853356 0
vt 0.479296 0.732786 0
vt 0.468842 0.723927 0
vt 0.459359 0.494423 0
vt 0 1 0
vt 0.59041 0.541266 0
vt 0.531751 0.858482 0
vt 0 1 0
vt 0.510317 0.819697 0
vt 0.581728 0.542511 0
vt 0.672751 0.288544 0
vt 0.975528 0.459526 0
vt 0 1 0
vt 0.464715 0.728123 0
vt 0.461044 0.486468 0
vt 0.503507 0.809186 0
vt 0.531129 0.863455 0
vt 0.494886 0.330135 0
vt 0.48072 0.763783 0
vt 0.613173 0.62562 0
vt 0.593544 0.327301 0
vt 0 1 0
vt 0.533744 0.855085 0
vt 0.592974 0.532605 0
vt 0 1 0
vt 0.445583 0.324238 0
vt 0.491154 0.779002 0
vt 0.598719 0.597518 0
vt 0.528726 0.864638 0
vt 0 1 0
vt 0.463758 0.765903 0
vt 0.472789 0.75406 0
vt 0.534491 0.86189 0
vt 0 1 0
vt 0.692622 0.504471 0
vt 0.517379 0.79453 0
vt 0.530356 0.847231 0
vt 0.465055 0.731428 0
vt 0.464758 0.479439 0
vt 0.598681 0.549994 0
vt 0.504007 0.807601 0
vt 0.528781 0.860447 0
vt 0.473516 0.783857 0
vt 0.601569 0.621008 0
vt 0.517744 0.815619 0
vt 0.526229 0.858659 0
vt 0.459751 0.801754 0
vt 0.535964 0.857423 0
vt 0.530131 0.864549 0
vt 0.307378 0.504471 0
vt 0 1 0
vt 0.692622 0.504471 0
vt 0.55594 0.398312 0
vt 0.484142 0.752815 0
vt 0.603627 0.617616 0
vt 0.598681 0.549994 0
vt 0.459704 0.800426 0
vt 0.123392 0.580494 0
vt 0.140326 0.53178 0
vt 0.473047 0.792616 0
vt 0.464715 0.728123 0
vt 0 1 0
vt 0.477415 0.822225 0
vt 0.463758 0.765903 0
vt 0.478074 0.743827 0
vt 0.588077 0.539594 0
vt 0.529701 0.861377 0
vt 0.489859 0.811437 0
vt 0.18947 0.476807 0
vt 0.362466 0.369709 0
vt 0.345491 0.410099 0
vt 0.5 0.349903 0
vt 0.480832 0.753289 0
vt 0.491154 0.779002 0
vt 0.468962 0.73182 0
vt 0.526164 0.858016 0
vt 0.532449 0.864504 0
vt 0 1 0
vt 0.654508 0.30949 0
vt 0.484142 0.752815 0
vt 0.471686 0.736523 0
vt 0.553636 0.612485 0
vt 0.44406 0.398312 0
vt 0.79844 0.317513 0
vt 0.793893 0.292805 0
vt 0.975528 0.334679 0
vt 0.477999 0.732596 0
vt 0.46491 0.730942 0
vt 0.460224 0.765039 0
vt 0.467324 0.729442 0
vt 0 1 0
vt 0.815374 0.355206 0
vt 0.266014 0.647144 0
vt 0.140326 0.618176 0
vt 0.18947 0.641144 0
vt 0.618665 0.339043 0
vt 0.282257 0.44857 0
vt 0.672751 0.288544 0
vt 0.469383 0.328053 0
vt 0.5763 0.565987 0
vt 0.485221 0.804628 0
vt 0.536721 0.859365 0
vt 0.608878 0.593579 0
vt 0.282257 0.492729 0
vt 0.654508 0.693741 0
vt 0.362466 0.635601 0
vt 0.469383 0.607635 0
vt 0.345491 0.794346 0
vt 0.581636 0.543142 0
vt 0.502654 0.810875 0
vt 0.975528 0.334679 0
vt 0 1 0
vt 0.206107 0.811035 0
vt 0.095491 0.802353 0
vt 0.024471 0.769161 0
vt 0.492385 0.780119 0
vt 0.580859 0.579665 0
vt 0.581248 0.618567 0
vt 0.525618 0.860881 0
vt 0.672751 0.288544 0
vt 0 1 0
vt 0.48462 0.782489 0
vt 0.463785 0.734862 0
vt 0.527847 0.860249 0
vt 0.749296 0.294548 0
vt 0.609379 0.623288 0
vt 0.587471 0.612386 0
vt 0.467083 0.750025 0
vt 0.461843 0.811999 0
vt 0.46587 0.72353 0
vt 0.717743 0.44857 0
vt 0.470071 0.78296 0
vt 0.466053 0.734327 0
vt 0.46256 0.806586 0
vt 0.464779 0.728223 0
vt 0.534939 0.862031 0
vt 0.55594 0.398312 0
vt 0.494941 0.783847 0
vt 0.603627 0.617616 0
vt 0.471307 0.756222 0
vt 0.46831 0.733388 0
vt 0.555956 0.581021 0
vt 0.618665 0.383205 0
vt 0 1 0
vt 0.464037 0.730013 0
vt 0.477999 0.732596 0
vt 0.472383 0.739772 0
vt 0.466678 0.742061 0
vt 0.596633 0.544739 0
vt 0.584418 0.618966 0
vt 0.588217 0.53894 0
vt 0.461888 0.813254 0
vt 0.534939 0.862031 0
vt 0.618665 0.339043 0
vt 0.469383 0.607635 0
vt 0 1 0
vt 0.463941 0.725445 0
vt 0.525618 0.860881 0
vt 0.395808 0.365723 0
vt 0.749296 0.458881 0
vt 0 1 0
vt 0.59041 0.541266 0
vt 0.459175 0.785141 0
vt 0.467253 0.750763 0
vt 0.530881 0.856491 0
vt 0.528781 0.860447 0
vt 0.450461 0.487347 0
vt 0.123392 0.580494 0
vt 0.558504 0.553826 0
vt 0.588077 0.539594 0
vt 0.654508 0.693741 0
vt 0 1 0
vt 0.469804 0.729461 0
vt 0.506778 0.810402 0
vt 0.468962 0.73182 0
vt 0.461206 0.794016 0
vt 0 1 0
vt 0.327249 0.514725 0
vt 0.477157 0.773097 0
vt 0.553489 0.615268 0
vt 0.483049 0.769613 0
vt 0.497867 0.810534 0
vt 0.460206 0.763084 0
vt 0.599718 0.607532 0
vt 0 1 0
vt 0.499163 0.808047 0
vt 0.527647 0.863272 0
vt 0.44406 0.398312 0
vt 0 1 0
vt 0.604192 0.50164 0
vt 0.372679 0.358311 0
vt 0.4237 0.300087 0
vt 0.46836 0.808736 0
vt 0.530356 0.847231 0
vt 0.464004 0.756081 0
vt 0.459778 0.492442 0
vt 0.492924 0.813826 0
vt 0.55594 0.398312 0
vt 0.904509 0.802353 0
vt 0.493013 0.812944 0
vt 0.535964 0.857423 0
vt 0.477157 0.773097 0
vt 0.477869 0.740706 0
vt 0.526229 0.858659 0
vt 0 1 0
vt 0.533744 0.855085 0
vt 0.488271 0.754618 0
vt 0.471154 0.735844 0
vt 0.468862 0.749484 0
vt 0.526164 0.858016 0
vt 0 1 0
vt 0.717743 0.492729 0
vt 0.555051 0.82884 0
vt 0.489151 0.749958 0
vt 0.466905 0.746627 0
vt 0.466077 0.735332 0
vt 0.58073 0.586609 0
vt 0.585356 0.616338 0
vt 0.581263 0.552818 0
vt 0.492829 0.789133 0
vt 0.524531 0.827249 0
vt 0.488541 0.754072 0
vt 0.58075 0.575909 0
vt 0.46396 0.747882 0
vt 0 1 0
vt 0.492829 0.789133 0
vt 0.502797 0.825711 0
vt 0.477157 0.773097 0
vt 0.581263 0.552818 0
vt 0.503584 0.806797 0
vt 0.531355 0.865489 0
vt 0 1 0
vt 0 1 0
vt 0.491169 0.77949 0
vt 0.51958 0.802811 0
vt 0.466077 0.735332 0
vt 0.462756 0.730786 0
vt 0.467253 0.750763 0
vt 0.975528 0.334679 0
vt 0.499948 0.786343 0
vt 0.491357 0.782225 0
vt 0.471154 0.735844 0
vt 0.459751 0.801754 0
vt 0.464037 0.730013 0
vt 0 1 0
vt 0.55594 0.398312 0
vt 0.465055 0.731428 0
vt 0.599718 0.607532 0
vt 0.613896 0.614147 0
vt 0.975529 0.64431 0
vt 0.445583 0.439854 0
vt 0.482355 0.739235 0
vt 0.468613 0.734441 0
vt 0 1 0
vt 0.5 0.753937 0
vt 0.460224 0.765039 0
vt 0.653495 0.507542 0
vt 0.491185 0.779437 0
vt 0.614994 0.618664 0
vt 0.610344 0.599562 0
vt 0.526305 0.855364 0
vt 0.459779 0.802539 0
vt 0.184626 0.355206 0
vt 0.487478 0.764879 0
vt 0.472383 0.739772 0
vt 0.468792 0.735891 0
vt 0.465755 0.73252 0
vt 0.52573 0.856066 0
vt 0.531751 0.858482 0
vt 0.530617 0.607635 0
vt 0.478074 0.743827 0
vt 0.46953 0.739997 0
vt 0.46663 0.753166 0
vt 0.553636 0.612485 0
vt 0.581694 0.54394 0
vt 0.463567 0.731622 0
vt 0.531129 0.863455 0
vt 0.581694 0.54394 0
vt 0.526887 0.856207 0
vt 0.464779 0.728223 0
vt 0.44406 0.398312 0
vt 0.461146 0.748328 0
vt 0.461044 0.486468 0
vt 0.490517 0.812575 0
vt 0 1 0
vt 0.637534 0.635601 0
vt 0.487478 0.764879 0
vt 0.553331 0.610777 0
vt 0.58578 0.562762 0
vt 0.530028 0.864496 0
vt 0 1 0
vt 0.81053 0.476807 0
vt 0.502797 0.825711 0
vt 0.491185 0.779437 0
vt 0.553636 0.612485 0
vt 0.497474 0.813438 0
vt 0 1 0
vt 0.463758 0.765903 0
vt 0.481465 0.745903 0
vt 0.468204 0.735019 0
vt 0.499163 0.808047 0
vt 0.459315 0.789211 0
vt 0.465068 0.754195 0
vt 0.467367 0.753944 0
vt 0.554776 0.8618 0
vt 0.479296 0.732786 0
vt 0.466678 0.742061 0
vt 0.601569 0.621008 0
vt 0.580876 0.599332 0
vt 0.533337 0.860528 0
vt 0 1 0
vt 0.483049 0.769613 0
vt 0.527069 0.853356 0
vt 0.466377 0.748286 0
vt 0.463567 0.731622 0
vt 0.496214 0.799692 0
vt 0.488271 0.754618 0
vt 0.483856 0.741013 0
vt 0.465694 0.724813 0
vt 0.471154 0.735844 0
vt 0.467253 0.750763 0
vt 0.530131 0.864549 0
vt 0.528726 0.864638 0
vt 0.815374 0.355206 0
vt 0.266014 0.420963 0
vt 0 1 0
vt 0.526887 0.856207 0
vt 0.496863 0.805659 0
vt 0.535657 0.85852 0
vt 0.463758 0.765903 0
vt 0.55466 0.591882 0
vt 0.586239 0.595329 0
vt 0.458776 0.773334 0
vt 0.463941 0.725445 0
vt 0.492492 0.807826 0
vt 0.526403 0.862717 0
vt 0 1 0
vt 0.468842 0.723927 0
vt 0.527847 0.860249 0
vt 0.876608 0.580494 0
vt 0.488271 0.754618 0
vt 0.509892 0.844218 0
vt 0.580948 0.566627 0
vt 0.497474 0.813438 0
vt 0.470042 0.751312 0
vt 0.46428 0.731015 0
vt 0.975528 0.459526 0
vt 0.478074 0.743827 0
vt 0.580933 0.565246 0
vt 0.581399 0.548416 0
vt 0.538081 0.809172 0
vt 0.519892 0.848057 0
vt 0.558344 0.559956 0
vt 0.588217 0.53894 0
vt 0.466293 0.74778 0
vt 0.184626 0.355206 0
vt 0.464679 0.727808 0
vt 0.4237 0.565987 0
vt 0.580881 0.588312 0
vt 0.463533 0.816453 0
vt 0.517744 0.815619 0
vt 0.490127 0.754648 0
vt 0.510317 0.819697 0
vt 0.466378 0.738958 0
vt 0.460939 0.786261 0
vt 0.58073 0.586609 0
vt 0.554511 0.593339 0
vt 0 1 0
vt 0.555129 0.847689 0
vt 0.504079 0.839782 0
vt 0.532581 0.835305 0
vt 0.471154 0.735844 0
vt 0.586239 0.595329 0
vt 0.468613 0.734441 0
vt 0.492492 0.807826 0
vt 0.536721 0.859365 0
vt 0.445583 0.439854 0
vt 0.51872 0.795088 0
vt 0.581152 0.616172 0
vt 0.499654 0.812986 0
vt 0.493013 0.812944 0
vt 0.554776 0.8618 0
vt 0.468792 0.735891 0
vt 0.527647 0.863272 0
vt 0.307378 0.420471 0
vt 0.904509 0.538963 0
vt 0.975528 0.459526 0
vt 0.653495 0.507542 0
vt 0.526985 0.861113 0
vt 0.462719 0.72834 0
vt 0 1 0
vt 0.488711 0.757775 0
vt 0.603627 0.617616 0
vt 0.526403 0.862717 0
vt 0.531129 0.863455 0
vt 0.618665 0.339043 0
vt 0.637534 0.369709 0
vt 0.480832 0.753289 0
vt 0.461874 0.784919 0
vt 0.458807 0.774253 0
vt 0.815374 0.355206 0
vt 0.593544 0.327301 0
vt 0.450461 0.487347 0
vt 0 1 0
vt 0.478875 0.782885 0
vt 0.581263 0.552818 0
vt 0.580948 0.566627 0
vt 0.605476 0.579748 0
vt 0.46256 0.806586 0
vt 0.493132 0.810665 0
vt 0.471495 0.728278 0
vt 0.477035 0.73654 0
vt 0.58114 0.610011 0
vt 0.459175 0.785141 0
vt 0.534491 0.86189 0
vt 0.458807 0.774253 0
vt 0.494886 0.466053 0
vt 0.541405 0.799494 0
vt 0.532581 0.835305 0
vt 0.553489 0.615268 0
vt 0.588217 0.53894 0
vt 0.596633 0.544739 0
vt 0.473849 0.825912 0
vt 0.477869 0.740706 0
vt 0.467543 0.732415 0
vt 0.44406 0.398312 0
vt 0 1 0
vt 0.653495 0.391926 0
vt 0.46491 0.730942 0
vt 0.581728 0.542511 0
vt 0.815374 0.355206 0
vt 0.604192 0.50164 0
vt 0.406456 0.411304 0
vt 0.597732 0.577716 0
vt 0.468842 0.723927 0
vt 0.465755 0.73252 0
vt 0.465331 0.736822 0
vt 0.581263 0.552818 0
vt 0.460939 0.786261 0
vt 0.459271 0.787929 0
vt 0.510317 0.819697 0
vt 0.585356 0.616338 0
vt 0.581263 0.552818 0
vt 0 1 0
vt 0.024472 0.334679 0
vt 0.55594 0.398312 0
vt 0.492829 0.789133 0
vt 0.464715 0.728123 0
vt 0.468423 0.72629 0
vt 0.472383 0.739772 0
vt 0 1 0
vt 0.477878 0.73578 0
vt 0.480786 0.783342 0
vt 0.612434 0.62434 0
vt 0.492379 0.807917 0
vt 0.618665 0.383205 0
vt 0.463533 0.816453 0
vt 0.489924 0.749166 0
vt 0.488556 0.74959 0
vt 0.581636 0.543142 0
vt 0.494834 0.807444 0
vt 0.459779 0.802539 0
vt 0.18947 0.641144 0
vt 0.581248 0.618567 0
vt 0.459863 0.804904 0
vt 0.462756 0.730786 0
vt 0.580859 0.579665 0
vt 0.610395 0.618277 0
vt 0.184626 0.355206 0
vt 0.381335 0.383205 0
vt 0.519892 0.848057 0
vt 0.517744 0.815619 0
vt 0.464627 0.728363 0
vt 0.586239 0.595329 0
vt 0.618665 0.383205 0
vt 0.490626 0.800192 0
vt 0.469038 0.734202 0
vt 0.463722 0.724297 0
vt 0.52965 0.858487 0
vt 0.395808 0.365723 0
vt 0.450461 0.487347 0
vt 0.859674 0.618176 0
vt 0.581399 0.548416 0
vt 0.502654 0.810875 0
vt 0.526403 0.862717 0
vt 0.465745 0.749335 0
vt 0.465755 0.751317 0
vt 0.381335 0.383205 0
vt 0.484142 0.752815 0
vt 0.492829 0.789133 0
vt 0.482346 0.751802 0
vt 0 1 0
vt 0.250704 0.458881 0
vt 0.477869 0.740706 0
vt 0.527069 0.853356 0
vt 0.480832 0.753289 0
vt 0.46396 0.747882 0
vt 0.46428 0.731015 0
vt 0.532449 0.864504 0
vt 0.904509 0.538963 0
vt 0.464004 0.756081 0
vt 0.4675 0.728924 0
vt 0.468861 0.731404 0
vt 0.531355 0.865489 0
vt 0.346505 0.391926 0
vt 0.472383 0.739772 0
vt 0.487882 0.782818 0
vt 0.477104 0.752145 0
vt 0.463941 0.725445 0
vt 0.463109 0.721688 0
vt 0.526403 0.862717 0
vt 0.554417 0.324238 0
vt 0 1 0
vt 0.530617 0.328053 0
vt 0.467168 0.742654 0
vt 0.488556 0.74959 0
vt 0.479135 0.75977 0
vt 0.464627 0.728363 0
vt 0.58073 0.586609 0
vt 0.532449 0.864504 0
vt 0.362466 0.635601 0
vt 0 1 0
vt 0.859674 0.618176 0
vt 0.491169 0.77949 0
vt 0.504079 0.839782 0
vt 0.473047 0.792616 0
vt 0.467362 0.722205 0
vt 0.461213 0.485382 0
vt 0.615779 0.621909 0
vt 0 1 0
vt 0.477985 0.824249 0
vt 0.541405 0.799494 0
vt 0.510317 0.819697 0
vt 0.465977 0.733427 0
vt 0.467168 0.742654 0
vt 0.597732 0.577716 0
vt 0.554833 0.852302 0
vt 0.491357 0.782225 0
vt 0.488711 0.757775 0
vt 0.533744 0.855085 0
vt 0 1 0
vt 0.20156 0.403915 0
vt 0.599718 0.607532 0
vt 0.589612 0.566365 0
vt 0.558504 0.553826 0
vt 0.459271 0.787929 0
vt 0.45983 0.803985 0
vt 0.44406 0.398312 0
vt 0.749296 0.294548 0
vt 0.471686 0.736523 0
vt 0.465055 0.731428 0
vt 0.459175 0.785141 0
vt 0.533337 0.860528 0
vt 0.531129 0.863455 0
vt 0.672751 0.514725 0
vt 0.494886 0.330135 0
vt 0.492385 0.780119 0
vt 0.468962 0.73182 0
vt 0 1 0
vt 0.406456 0.327301 0
vt 0.381335 0.383205 0
vt 0.466905 0.746627 0
vt 0.468423 0.72629 0
vt 0.598681 0.549994 0
vt 0.530028 0.864496 0
vt 0.469383 0.328053 0
vt 0.815374 0.355206 0
vt 0 1 0
vt 0.469804 0.729461 0
vt 0.468204 0.735019 0
vt 0.580876 0.599332 0
vt 0.459175 0.785141 0
vt 0.462606 0.727787 0
vt 0.494834 0.807444 0
vt 0.468285 0.775035 0
vt 0.50685 0.797565 0
vt 0.615986 0.622776 0
vt 0.362466 0.635601 0
vt 0 1 0
vt 0.554776 0.8618 0
vt 0.467168 0.742654 0
vt 0.486815 0.799901 0
vt 0.467324 0.729442 0
vt 0 1 0
vt 0.095491 0.538963 0
vt 0.477878 0.73578 0
vt 0.490626 0.800192 0
vt 0.526985 0.861113 0
vt 0.346505 0.507542 0
vt 0 1 0
vt 0.466504 0.813755 0
vt 0.472127 0.728869 0
vt 0.485902 0.782701 0
vt 0.477157 0.773097 0
vt 0.487882 0.782818 0
vt 0.588024 0.579111 0
vt 0.535964 0.857423 0
vt 0.464627 0.728363 0
vt 0 1 0
vt 0.876608 0.580494 0
vt 0.473516 0.783857 0
vt 0.5763 0.300087 0
vt 0.480832 0.753289 0
vt 0.558814 0.552734 0
vt 0.603411 0.571398 0
vt 0.592808 0.531743 0
vt 0.496949 0.812909 0
vt 0.496863 0.805659 0
vt 0.975528 0.334679 0
vt 0.469383 0.607635 0
vt 0.876608 0.580494 0
vt 0.477104 0.752145 0
vt 0.477035 0.73654 0
vt 0.58075 0.575909 0
vt 0.597732 0.577716 0
vt 0.530356 0.847231 0
vt 0 1 0
vt 0.51591 0.791821 0
vt 0.527069 0.853356 0
vt 0.478074 0.743827 0
vt 0.469008 0.724611 0
vt 0.615986 0.622776 0
vt 0.530617 0.607635 0
vt 0.463785 0.734862 0
vt 0.467362 0.722205 0
vt 0.464875 0.736583 0
vt 0.495164 0.807698 0
vt 0.18947 0.476807 0
vt 0.672751 0.288544 0
vt 0.477999 0.732596 0
vt 0.464215 0.732819 0
vt 0.58114 0.610011 0
vt 0.461206 0.794016 0
vt 0.459472 0.793767 0
vt 0.462921 0.720778 0
vt 0.672751 0.514725 0
vt 0.517379 0.79453 0
vt 0.51872 0.795088 0
vt 0.464885 0.735427 0
vt 0.46953 0.739997 0
vt 0.46485 0.738342 0
vt 0.615779 0.621909 0
vt 0.486815 0.799901 0
vt 0.587471 0.612386 0
vt 0.465756 0.730456 0
vt 0 1 0
vt 0.445583 0.439854 0
vt 0.601569 0.621008 0
vt 0.463567 0.731622 0
vt 0.554417 0.324238 0
vt 0 1 0
vt 0.494886 0.466053 0
vt 0.489788 0.77451 0
vt 0.46831 0.733388 0
vt 0.581636 0.543142 0
vt 0.554417 0.324238 0
vt 0.654509 0.794346 0
vt 0.603411 0.571398 0
vt 0.597732 0.577716 0
vt 0.526229 0.858659 0
vt 0.528598 0.862678 0
vt 0.462606 0.727787 0
vt 0.733986 0.420963 0
vt 0.492187 0.775399 0
vt 0.482346 0.751802 0
vt 0.598719 0.597518 0
vt 0.526985 0.861113 0
vt 0.459779 0.802539 0
vt 0 1 0
vt 0.81053 0.641144 0
vt 0.024472 0.459526 0
vt 0.604192 0.365723 0
vt 0.488271 0.754618 0
vt 0.468158 0.760414 0
vt 0.464423 0.72421 0
vt 0.558917 0.553838 0
vt 0.459175 0.785141 0
vt 0.307378 0.420471 0
vt 0.467083 0.750025 0
vt 0.464023 0.722561 0
vt 0.610395 0.618277 0
vt 0.464829 0.720767 0
vt 0.581399 0.548416 0
vt 0.493013 0.812944 0
vt 0.536721 0.859365 0
vt 0.44406 0.398312 0
vt 0.492286 0.773966 0
vt 0.580881 0.588312 0
vt 0.613173 0.62562 0
vt 0.527653 0.863068 0
vt 0 1 0
vt 0.876608 0.580494 0
vt 0.604192 0.365723 0
vt 0.496036 0.784173 0
vt 0.468862 0.749484 0
vt 0.464829 0.720767 0
vt 0.554417 0.324238 0
vt 0.793893 0.619667 0
vt 0.5763 0.565987 0
vt 0.2736 0.473465 0
vt 0.4237 0.300087 0
vt 0.609476 0.62384 0
vt 0.79844 0.403915 0
vt 0.282257 0.44857 0
vt 0 1 0
vt 0.733986 0.647144 0
vt 0.327249 0.514725 0
vt 0.494941 0.783847 0
vt 0.509892 0.844218 0
vt 0.465694 0.724813 0
vt 0 1 0
vt 0.637534 0.635601 0
vt 0.555695 0.855838 0
vt 0.486594 0.753472 0
vt 0.49529 0.787243 0
vt 0.58114 0.610011 0
vt 0.526229 0.858659 0
vt 0.464674 0.751874 0
vt 0 1 0
vt 0.494834 0.807444 0
vt 0.515349 0.835842 0
vt 0.469038 0.734202 0
vt 0.499012 0.806119 0
vt 0.464023 0.722561 0
vt 0.530028 0.864496 0
vt 0.593544 0.411304 0
vt 0.481465 0.745903 0
vt 0.458776 0.773334 0
vt 0.749296 0.294548 0
vt 0.505114 0.466053 0
vt 0 1 0
vt 0.495942 0.780935 0
vt 0.504079 0.839782 0
vt 0.466992 0.735881 0
vt 0.459271 0.787929 0
vt 0.493132 0.810665 0
vt 0.463767 0.732595 0
vt 0 1 0
vt 0.527653 0.863068 0
vt 0.459704 0.800426 0
vt 0.469383 0.328053 0
vt 0 1 0
vt 0.793893 0.484169 0
vt 0.477878 0.73578 0
vt 0.556735 0.572716 0
vt 0.581152 0.616172 0
vt 0.490244 0.811723 0
vt 0.477104 0.752145 0
vt 0.532451 0.843359 0
vt 0.597228 0.579381 0
vt 0.554511 0.593339 0
vt 0.499163 0.808047 0
vt 0.465977 0.733427 0
vt 0.534939 0.862031 0
vt 0.395808 0.365723 0
vt 0.474831 0.767088 0
vt 0.492286 0.773966 0
vt 0.526403 0.862717 0
vt 0.395808 0.50164 0
vt 0 1 0
vt 0.250704 0.458881 0
vt 0.55594 0.398312 0
vt 0.537586 0.821761 0
vt 0.464715 0.728123 0
vt 0.588077 0.539594 0
vt 0.346505 0.391926 0
vt 0 1 0
vt 0.530617 0.607635 0
vt 0.490127 0.754648 0
vt 0.463785 0.734862 0
vt 0.614994 0.618664 0
vt 0.490244 0.811723 0
vt 0.492924 0.813826 0
vt 0.529701 0.861377 0
vt 0.466272 0.734068 0
vt 0.505114 0.330135 0
vt 0.904509 0.538963 0
vt 0 1 0
vt 0.498506 0.789177 0
vt 0.509892 0.844218 0
vt 0.600823 0.620456 0
vt 0.468861 0.731404 0
vt 0 1 0
vt 0.549539 0.344433 0
vt 0.733986 0.420963 0
vt 0.5257 0.806306 0
vt 0.467043 0.757209 0
vt 0.586239 0.595329 0
vt 0.465331 0.736822 0
vt 0.46831 0.733388 0
vt 0 0.714703 0
vt 0.484142 0.752815 0
vt 0.533744 0.855085 0
vt 0.468395 0.726339 0
vt 0.465068 0.754195 0
vt 0.123392 0.580494 0
vt 0.533903 0.796593 0
vt 0.478074 0.743827 0
vt 0.471595 0.72953 0
vt 0.613173 0.62562 0
vt 0.024471 0.769161 0
vt 0.517744 0.815619 0
vt 0.492492 0.807826 0
vt 0.465331 0.736822 0
vt 0.327249 0.288544 0
vt 0.517379 0.79453 0
vt 0.506778 0.810402 0
vt 0.610395 0.618277 0
vt 0.46587 0.72353 0
vt 0.612434 0.62434 0
vt 0.531129 0.863455 0
vt 0.749296 0.294548 0
vt 0 1 0
vt 0.463109 0.721688 0
vt 0.345491 0.794346 0
vt 0.123392 0.580494 0
vt 0 1 0
vt 0.604192 0.50164 0
vt 0.975529 0.769161 0
vt 0.464004 0.756081 0
vt 0.48511 0.768799 0
vt 0.467543 0.732415 0
vt 0.531751 0.858482 0
vt 0 1 0
vt 0.5257 0.806306 0
vt 0.471686 0.736523 0
vt 0.469928 0.750509 0
vt 0.463993 0.748347 0
vt 0.533015 0.86103 0
vt 0.467168 0.742654 0
vt 0.468299 0.777805 0
vt 0.492385 0.780119 0
vt 0.555956 0.581021 0
vt 0.282257 0.44857 0
vt 0.345492 0.30949 0
vt 0.51872 0.795088 0
vt 0.537586 0.821761 0
vt 0.464418 0.730839 0
vt 0.463785 0.734862 0
vt 0 1 0
vt 0.406456 0.411304 0
vt 0.485796 0.766729 0
vt 0.463722 0.724297 0
vt 0.558917 0.553838 0
vt 0.465755 0.751317 0
vt 0.672751 0.514725 0
vt 0 0.389137 0
vt 0.467043 0.757209 0
vt 0.467083 0.750025 0
vt 0.459315 0.789211 0
vt 0.465977 0.733427 0
vt 0.536721 0.859365 0
vt 0.469383 0.607635 0
vt 0 1 0
vt 0.512134 0.797455 0
vt 0.580881 0.588312 0
vt 0.610395 0.618277 0
vt 0.504007 0.807601 0
vt 0.465755 0.751317 0
vt 0.464037 0.730013 0
vt 0.527653 0.863068 0
vt 0.618665 0.339043 0
vt 0.487478 0.764879 0
vt 0.48462 0.782489 0
vt 0.461693 0.807861 0
vt 0.464779 0.728223 0
vt 0.793893 0.811035 0
vt 0.492829 0.789133 0
vt 0.467543 0.732415 0
vt 0.557629 0.569465 0
vt 0.815374 0.355206 0
vt 0.250704 0.458881 0
vt 0.525366 0.8584 0
vt 0.527847 0.860249 0
vt 0 1 0
vt 0.81053 0.476807 0
vt 0.494941 0.783847 0
vt 0.486815 0.799901 0
vt 0.472618 0.739591 0
vt 0 1 0
vt 0.580876 0.599332 0
vt 0.490244 0.811723 0
vt 0.51591 0.791821 0
vt 0.459863 0.804904 0
vt 0.530131 0.864549 0
vt 0.618665 0.339043 0
vt 0.55594 0.398312 0
vt 0.482346 0.751802 0
vt 0.465755 0.73252 0
vt 0.58073 0.586609 0
vt 0.580933 0.565246 0
vt 0.587471 0.612386 0
vt 0.492924 0.813826 0
vt 0.468861 0.731404 0
vt 0.466272 0.734068 0
vt 0.024472 0.334679 0
vt 0.471495 0.728278 0
vt 0.588024 0.579111 0
vt 0.463767 0.732595 0
vt 0.535657 0.85852 0
vt 0 1 0
vt 0.462924 0.731477 0
vt 0.580881 0.588312 0
vt 0.553489 0.615268 0
vt 0.489859 0.811437 0
vt 0.346505 0.391926 0
vt 0 1 0
vt 0.904509 0.564873 0
vt 0.554776 0.8618 0
vt 0.464418 0.730839 0
vt 0.464885 0.735427 0
vt 0.692622 0.420471 0
vt 0.468613 0.734441 0
vt 0.478875 0.782885 0
vt 0.612434 0.62434 0
vt 0.585356 0.616338 0
vt 0.597048 0.573565 0
vt 0 1 0
vt 0.406456 0.327301 0
vt 0.81053 0.476807 0
vt 0.51591 0.791821 0
vt 0.499703 0.786625 0
vt 0.478757 0.763906 0
vt 0 1 0
vt 0.489151 0.749958 0
vt 0.459779 0.802539 0
vt 0.47823 0.82506 0
vt 0.492286 0.773966 0
vt 0.517379 0.79453 0
vt 0.51872 0.795088 0
vt 0.512134 0.797455 0
vt 0.489788 0.77451 0
vt 0.491185 0.779437 0
vt 0.486815 0.799901 0
vt 0.614994 0.618664 0
vt 0.592808 0.531743 0
vt 0.459704 0.800426 0
vt 0.46396 0.747882 0
vt 0.528781 0.860447 0
vt 0.505114 0.466053 0
vt 0.492286 0.773966 0
vt 0.468423 0.72629 0
vt 0.597228 0.579381 0
vt 0.599718 0.607532 0
vt 0.526305 0.855364 0
vt 0.749296 0.294548 0
vt 0.483856 0.741013 0
vt 0.471686 0.736523 0
vt 0.526305 0.855364 0
vt 0 1 0
vt 0.654509 0.410099 0
vt 0.381335 0.339043 0
vt 0.485221 0.804628 0
vt 0.466378 0.738958 0
vt 0.483299 0.800267 0
vt 0.58578 0.562762 0
vt 0.749296 0.458881 0
vt 0 1 0
vt 0.490127 0.754648 0
vt 0.467324 0.729442 0
vt 0.465756 0.730456 0
vt 0.464995 0.72145 0
vt 0.531355 0.865489 0
vt 0.372679 0.358311 0
vt 0.480786 0.783342 0
vt 0.530356 0.847231 0
vt 0.580933 0.565246 0
vt 0.494886 0.466053 0
vt 0.381335 0.339043 0
vt 0.494655 0.804683 0
vt 0.589612 0.566365 0
vt 0.459751 0.801754 0
vt 0.466377 0.748286 0
vt 0.18947 0.641144 0
vt 0 1 0
vt 0.482355 0.739235 0
vt 0.465694 0.724813 0
vt 0.525366 0.8584 0
vt 0.44406 0.398312 0
vt 0 1 0
vt 0.485221 0.804628 0
vt 0.58114 0.610011 0
vt 0.530131 0.864549 0
vt 0.672751 0.514725 0
vt 0.859674 0.53178 0
vt 0.250704 0.294548 0
vt 0.556046 0.865722 0
vt 0.488541 0.754072 0
vt 0.530028 0.864496 0
vt 0 1 0
vt 0.250704 0.294548 0
vt 0.494655 0.804683 0
vt 0.461206 0.794016 0
vt 0.749296 0.294548 0
vt 0.282257 0.492729 0
vt 0.485902 0.782701 0
vt 0.59041 0.541266 0
vt 0.206107 0.484169 0
vt 0.123392 0.580494 0
vt 0 1 0
vt 0.491169 0.77949 0
vt 0.58075 0.575909 0
vt 0.462921 0.720778 0
vt 0.46587 0.72353 0
vt 0.472618 0.739591 0
vt 0.487478 0.764879 0
vt 0.471066 0.739817 0
vt 0.593544 0.411304 0
vt 0 1 0
vt 0.206107 0.292805 0
vt 0.584418 0.618966 0
vt 0.5763 0.300087 0
vt 0.488541 0.754072 0
vt 0.465564 0.722267 0
vt 0.461044 0.486468 0
vt 0.460749 0.780687 0
vt 0 1 0
vt 0.494886 0.330135 0
vt 0.494941 0.783847 0
vt 0.468792 0.735891 0
vt 0.609476 0.62384 0
vt 0.464423 0.72421 0
vt 0.692622 0.420471 0
vt 0.81053 0.476807 0
vt 0.489788 0.77451 0
vt 0.532451 0.843359 0
vt 0.464829 0.720767 0
vt 0 1 0
vt 0.4756 0.826146 0
vt 0.535657 0.85852 0
vt 0.488541 0.754072 0
vt 0.466053 0.734327 0
vt 0.493013 0.812944 0
vt 0.468842 0.723927 0
vt 0.599269 0.554858 0
vt 0.459271 0.787929 0
vt 0.467102 0.749259 0
vt 0.534491 0.86189 0
vt 0.653495 0.507542 0
vt 0.532451 0.843359 0
vt 0.47842 0.746287 0
vt 0.55466 0.591882 0
vt 0.588217 0.53894 0
vt 0.464023 0.722561 0
vt 0.533337 0.860528 0
vt 0.44406 0.398312 0
vt 0.549539 0.487347 0
vt 0.485796 0.766729 0
vt 0.481465 0.745903 0
vt 0.478757 0.763906 0
vt 0.471307 0.756222 0
vt 0.479296 0.732786 0
vt 0.468327 0.763951 0
vt 0.492957 0.791536 0
vt 0.467043 0.757209 0
vt 0.58075 0.575909 0
vt 0.587471 0.612386 0
vt 0.469804 0.729461 0
vt 0.471154 0.735844 0
vt 0.493132 0.810665 0
vt 0 1 0
vt 0.975529 0.64431 0
vt 0.517744 0.815619 0
vt 0.491185 0.779437 0
vt 0.487404 0.808726 0
vt 0.469038 0.734202 0
vt 0.362466 0.369709 0
vt 0 1 0
vt 0.600823 0.620456 0
vt 0.581694 0.54394 0
vt 0.527847 0.860249 0
vt 0.464674 0.751874 0
vt 0.346505 0.507542 0
vt 0.307378 0.504471 0
vt 0.492385 0.780119 0
vt 0.530356 0.847231 0
vt 0.48511 0.768799 0
vt 0.472618 0.739591 0
vt 0.464418 0.730839 0
vt 0.485796 0.766729 0
vt 0.467083 0.750025 0
vt 0.554511 0.593339 0
vt 0.528598 0.862678 0
vt 0.465068 0.754195 0
vt 0.904509 0.802353 0
vt 0.488541 0.754072 0
vt 0.499967 0.834792 0
vt 0.478757 0.763906 0
vt 0.462924 0.731477 0
vt 0.502654 0.810875 0
vt 0.307378 0.504471 0
vt 0.468158 0.760414 0
vt 0.469008 0.724611 0
vt 0.472789 0.75406 0
vt 0.581152 0.616172 0
vt 0.749296 0.458881 0
vt 0.604192 0.50164 0
vt 0.492187 0.775399 0
vt 0.477878 0.73578 0
vt 0.52965 0.858487 0
vt 0.79844 0.317513 0
vt 0.79844 0.403915 0
vt 0 1 0
vt 0.477104 0.752145 0
vt 0.470042 0.751312 0
vt 0.459452 0.491871 0
vt 0.459061 0.78179 0
vt 0.505114 0.466053 0
vt 0.55594 0.398312 0
vt 0.48511 0.768799 0
vt 0.467543 0.732415 0
vt 0.580933 0.565246 0
vt 0 1 0
vt 0.459637 0.752229 0
vt 0.474831 0.767088 0
vt 0.478074 0.743827 0
vt 0.490626 0.800192 0
vt 0.58073 0.586609 0
vt 0.266014 0.420963 0
vt 0.492286 0.773966 0
vt 0.472127 0.728869 0
vt 0.46587 0.72353 0
vt 0.584418 0.618966 0
vt 0.468862 0.749484 0
vt 0.531129 0.863455 0
vt 0.627321 0.358311 0
vt 0.55594 0.398312 0
vt 0.485221 0.804628 0
vt 0.482355 0.739235 0
vt 0.592974 0.532605 0
vt 0.46663 0.753166 0
vt 0.450461 0.344433 0
vt 0.2736 0.473465 0
vt 0 1 0
vt 0.653495 0.391926 0
vt 0.485902 0.782701 0
vt 0.463785 0.734862 0
vt 0.603411 0.571398 0
vt 0.557625 0.559726 0
vt 0.594111 0.535248 0
vt 0.592974 0.532605 0
vt 0.467102 0.749259 0
vt 0.485796 0.766729 0
vt 0.492385 0.780119 0
vt 0.597228 0.579381 0
vt 0.533337 0.860528 0
vt 0 1 0
vt 0.733986 0.647144 0
vt 0 1 0
vt 0.206107 0.619667 0
vt 0.468423 0.72629 0
vt 0.487404 0.808726 0
vt 0.581263 0.552818 0
vt 0.526887 0.856207 0
vt 0.465756 0.730456 0
vt 0 1 0
vt 0.555695 0.855838 0
vt 0.46485 0.738342 0
vt 0.589612 0.566365 0
vt 0.581399 0.548416 0
vt 0.465331 0.736822 0
vt 0.535964 0.857423 0
vt 0.470472 0.823171 0
vt 0.477878 0.73578 0
vt 0.517744 0.815619 0
vt 0.533744 0.855085 0
vt 0.59041 0.541266 0
vt 0.466992 0.735881 0
vt 0.492924 0.813826 0
vt 0.461874 0.784919 0
vt 0 1 0
vt 0.468158 0.760414 0
vt 0.580859 0.579665 0
vt 0.497867 0.810534 0
vt 0.5 0.753937 0
vt 0.468285 0.775035 0
vt 0.532451 0.843359 0
vt 0.473047 0.792616 0
vt 0.464418 0.730839 0
vt 0.459061 0.78179 0
vt 0.469399 0.753101 0
vt 0.537437 0.859975 0
vt 0.489924 0.749166 0
vt 0.464362 0.726914 0
vt 0.496036 0.784173 0
vt 0.555736 0.583825 0
vt 0 1 0
vt 0.58073 0.586609 0
vt 0.45983 0.803985 0
vt 0.395808 0.50164 0
vt 0.469383 0.328053 0
vt 0.491154 0.779002 0
vt 0.506264 0.803765 0
vt 0.4675 0.728924 0
vt 0.580933 0.565246 0
vt 0.459485 0.489932 0
vt 0 1 0
vt 0.530617 0.328053 0
vt 0.584418 0.618966 0
vt 0.468862 0.749484 0
vt 0.44406 0.398312 0
vt 0.55594 0.398312 0
vt 0.717743 0.44857 0
vt 0.530617 0.328053 0
vt 0.486815 0.799901 0
vt 0.597048 0.573565 0
vt 0.581152 0.616172 0
vt 0.588077 0.539594 0
vt 0.460206 0.763084 0
vt 0.459751 0.801754 0
vt 0.904509 0.301487 0
vt 0.654508 0.30949 0
vt 0 1 0
vt 0.793893 0.484169 0
vt 0.55594 0.398312 0
vt 0.489151 0.749958 0
vt 0.525366 0.8584 0
vt 0.459175 0.785141 0
vt 0.464023 0.722561 0
vt 0.123392 0.580494 0
vt 0.467543 0.732415 0
vt 0.464023 0.722561 0
vt 0.459061 0.78179 0
vt 0.467324 0.729442 0
vt 0.533015 0.86103 0
vt 0.482346 0.751802 0
vt 0.477878 0.73578 0
vt 0.464418 0.730839 0
vt 0.468204 0.735019 0
vt 0 1 0
vt 0.530617 0.607635 0
vt 0.535657 0.85852 0
vt 0.477999 0.732596 0
vt 0.464715 0.728123 0
vt 0.465331 0.736822 0
vt 0.584418 0.618966 0
vt 0.588024 0.579111 0
vt 0.498517 0.806656 0
vt 0.20156 0.317513 0
vt 0.717743 0.44857 0
vt 0.55594 0.398312 0
vt 0.477157 0.773097 0
vt 0.472127 0.728869 0
vt 0.464215 0.732819 0
vt 0.467362 0.722205 0
vt 0.580933 0.565246 0
vt 0.465755 0.751317 0
vt 0.463941 0.725445 0
vt 0.489788 0.77451 0
vt 0.468861 0.731404 0
vt 0.495164 0.807698 0
vt 0.533744 0.855085 0
vt 0.692622 0.504471 0
vt 0.537437 0.859975 0
vt 0.465977 0.733427 0
vt 0 1 0
vt 0.55594 0.398312 0
vt 0.580876 0.599332 0
vt 0.904509 0.301487 0
vt 0.345492 0.693741 0
vt 0.508952 0.802099 0
vt 0.480786 0.783342 0
vt 0.491357 0.782225 0
vt 0.580956 0.598184 0
vt 0.470042 0.751312 0
vt 0.469804 0.729461 0
vt 0.526985 0.861113 0
vt 0.345491 0.410099 0
vt 0.327249 0.288544 0
vt 0.381335 0.339043 0
vt 0.597048 0.573565 0
vt 0.505114 0.330135 0
vt 0.461784 0.810371 0
vt 0.5763 0.300087 0
vt 0.749296 0.458881 0
vt 0 1 0
vt 0.717743 0.492729 0
vt 0.4756 0.826146 0
vt 0.581694 0.54394 0
vt 0.597048 0.573565 0
vt 0.592808 0.531743 0
vt 0.52573 0.856066 0
vt 0.459061 0.78179 0
vt 0.474509 0.805198 0
vt 0.468423 0.72629 0
vt 0.462719 0.72834 0
vt 0.537437 0.859975 0
vt 0 0.714703 0
vt 0.4237 0.565987 0
vt 0.555051 0.82884 0
vt 0.468158 0.760414 0
vt 0.462921 0.720778 0
vt 0.533744 0.855085 0
vt 0.535964 0.857423 0
vt 0 1 0
vt 0.466905 0.746627 0
vt 0.478757 0.763906 0
vt 0.496036 0.784173 0
vt 0.52573 0.856066 0
vt 0.463767 0.732595 0
vt 0.534939 0.862031 0
vt 0 1 0
vt 0.49529 0.787243 0
vt 0.489859 0.811437 0
vt 0.123392 0.580494 0
vt 0.327249 0.288544 0
vt 0.494655 0.804683 0
vt 0.488541 0.754072 0
vt 0.482355 0.739235 0
vt 0.478074 0.743827 0
vt 0.487882 0.782818 0
vt 0.588077 0.539594 0
vt 0.733986 0.420963 0
vt 0.488271 0.754618 0
vt 0.601569 0.621008 0
vt 0.464995 0.72145 0
vt 0.557629 0.569465 0
vt 0.45983 0.803985 0
vt 0.464423 0.72421 0
vt 0.55594 0.398312 0
vt 0.47842 0.746287 0
vt 0.467367 0.753944 0
vt 0.466992 0.735881 0
vt 0.605476 0.579748 0
vt 0.266014 0.647144 0
vt 0.346505 0.507542 0
vt 0.250704 0.294548 0
vt 0.524531 0.827249 0
vt 0.488271 0.754618 0
vt 0.472789 0.75406 0
vt 0.461213 0.485382 0
vt 0.499654 0.812986 0
vt 0.505114 0.330135 0
vt 0.51958 0.802811 0
vt 0.46953 0.739997 0
vt 0.581728 0.542511 0
vt 0.465068 0.754195 0
vt 0.469383 0.328053 0
vt 0 1 0
vt 0.468158 0.760414 0
vt 0.486594 0.753472 0
vt 0.461146 0.748328 0
vt 0.474831 0.767088 0
vt 0.48072 0.763783 0
vt 0.484142 0.752815 0
vt 0.499012 0.806119 0
vt 0 1 0
vt 0.406456 0.411304 0
vt 0.488556 0.74959 0
vt 0.487478 0.764879 0
vt 0.483856 0.741013 0
vt 0.486594 0.753472 0
vt 0.479296 0.732786 0
vt 0.580859 0.579665 0
vt 0.532449 0.864504 0
vt 0.534939 0.862031 0
vt 0.307378 0.420471 0
vt 0.345492 0.693741 0
vt 0.610395 0.618277 0
vt 0.18947 0.476807 0
vt 0.749296 0.294548 0
vt 0 1 0
vt 0.489788 0.77451 0
vt 0.469008 0.724611 0
vt 0.553687 0.602899 0
vt 0.58578 0.562762 0
vt 0.492492 0.807826 0
vt 0 1 0
vt 0.859674 0.53178 0
vt 0.486594 0.753472 0
vt 0.473047 0.792616 0
vt 0.491185 0.779437 0
vt 0.46557 0.729689 0
vt 0 1 0
vt 0.381335 0.339043 0
vt 0.604192 0.365723 0
vt 0.533744 0.855085 0
vt 0.477999 0.732596 0
vt 0.468861 0.731404 0
vt 0.554833 0.852302 0
vt 0.49635 0.781759 0
vt 0.496863 0.805659 0
vt 0.654508 0.693741 0
vt 0 1 0
vt 0.975529 0.64431 0
vt 0 0.389137 0
vt 0.492187 0.775399 0
vt 0.477104 0.752145 0
vt 0.580881 0.588312 0
vt 0.490517 0.812575 0
vt 0.184626 0.355206 0
vt 0.7264 0.473465 0
vt 0.596633 0.544739 0
vt 0.266014 0.647144 0
vt 0 1 0
vt 0.494655 0.804683 0
vt 0.51872 0.795088 0
vt 0.494477 0.829329 0
vt 0.485796 0.766729 0
vt 0.597732 0.577716 0
vt 0.463722 0.724297 0
vt 0.465694 0.724813 0
vt 0.580956 0.598184 0
vt 0.463109 0.721688 0
vt 0.534491 0.86189 0
vt 0.5763 0.565987 0
vt 0 1 0
vt 0.466504 0.813755 0
vt 0.537586 0.821761 0
vt 0.478875 0.782885 0
vt 0.558917 0.553838 0
vt 0.594369 0.53641 0
vt 0.492379 0.807917 0
vt 0.499948 0.786343 0
vt 0.51591 0.791821 0
vt 0.472618 0.739591 0
vt 0.555956 0.581021 0
vt 0.464423 0.72421 0
vt 0.604192 0.50164 0
vt 0.530356 0.847231 0
vt 0.501863 0.837698 0
vt 0.466293 0.74778 0
vt 0.533337 0.860528 0
vt 0.494886 0.466053 0
vt 0.466504 0.813755 0
vt 0.483299 0.800267 0
vt 0.463785 0.734862 0
vt 0.494834 0.807444 0
vt 0.526305 0.855364 0
vt 0.395808 0.365723 0
vt 0 0.389137 0
vt 0.519892 0.848057 0
vt 0.485902 0.782701 0
vt 0.468299 0.777805 0
vt 0.469928 0.750509 0
vt 0.461843 0.811999 0
vt 0 1 0
vt 0.557625 0.559726 0
vt 0.459863 0.804904 0
vt 0.499703 0.786625 0
vt 0.464418 0.730839 0
vt 0.49071 0.812847 0
vt 0.464679 0.727808 0
vt 0.505114 0.466053 0
vt 0 1 0
vt 0.975529 0.769161 0
vt 0.482346 0.751802 0
vt 0.581694 0.54394 0
vt 0.499654 0.812986 0
vt 0.461784 0.810371 0
vt 0.140326 0.618176 0
vt 0 1 0
vt 0.493132 0.810665 0
vt 0.468613 0.734441 0
vt 0.346505 0.391926 0
vt 0 1 0
vt 0.604192 0.365723 0
vt 0.733986 0.647144 0
vt 0.47842 0.746287 0
vt 0.612434 0.62434 0
vt 0.462606 0.727787 0
vt 0.469383 0.607635 0
vt 0.55594 0.398312 0
vt 0.184626 0.355206 0
vt 0.491169 0.77949 0
vt 0.464418 0.730839 0
vt 0.464715 0.728123 0
vt 0.598719 0.597518 0
vt 0.461888 0.813254 0
vt 0.464995 0.72145 0
vt 0.487404 0.808726 0
vt 0.471595 0.72953 0
vt 0.588024 0.579111 0
vt 0.327249 0.514725 0
vt 0.475997 0.815446 0
vt 0.469008 0.724611 0
vt 0.557629 0.569465 0
vt 0.58578 0.562762 0
vt 0.505114 0.330135 0
vt 0 1 0
vt 0.495942 0.780935 0
vt 0.517379 0.79453 0
vt 0.503584 0.806797 0
vt 0.465564 0.722267 0
vt 0.2736 0.473465 0
vt 0.474509 0.805198 0
vt 0.653495 0.391926 0
vt 0.494834 0.807444 0
vt 0.593544 0.327301 0
vt 0.469383 0.607635 0
vt 0 1 0
vt 0.250704 0.458881 0
vt 0.345492 0.30949 0
vt 0.47842 0.746287 0
vt 0.519892 0.848057 0
vt 0.467168 0.742654 0
vt 0.531751 0.858482 0
vt 0.532451 0.843359 0
vt 0.519892 0.848057 0
vt 0.492957 0.791536 0
vt 0.464627 0.728363 0
vt 0.463785 0.734862 0
vt 0.528726 0.864638 0
vt 0 1 0
vt 0.327249 0.288544 0
vt 0.492187 0.775399 0
vt 0.47842 0.746287 0
vt 0.597048 0.573565 0
vt 0.497474 0.813438 0
vt 0.495164 0.807698 0
vt 0.532449 0.864504 0
vt 0.541405 0.799494 0
vt 0.471066 0.739817 0
vt 0.490244 0.811723 0
vt 0.307378 0.504471 0
vt 0 1 0
vt 0.554115 0.862847 0
vt 0.480786 0.783342 0
vt 0.487404 0.808726 0
vt 0.140326 0.618176 0
vt 0 1 0
vt 0.466378 0.738958 0
vt 0.464215 0.732819 0
vt 0.460749 0.780687 0
vt 0.526887 0.856207 0
vt 0.530617 0.328053 0
vt 0.4237 0.300087 0
vt 0.487882 0.782818 0
vt 0.581636 0.543142 0
vt 0.494834 0.807444 0
vt 0.504007 0.807601 0
vt 0.459456 0.793305 0
vt 0.5 0.753937 0
vt 0 1 0
vt 0.250704 0.294548 0
vt 0.531751 0.858482 0
vt 0.46428 0.731015 0
vt 0.672751 0.288544 0
vt 0 1 0
vt 0.975529 0.64431 0
vt 0.489924 0.749166 0
vt 0.553687 0.602899 0
vt 0.463767 0.732595 0
vt 0.345491 0.794346 0
vt 0.372679 0.358311 0
vt 0.20156 0.403915 0
vt 0.466504 0.813755 0
vt 0.48462 0.782489 0
vt 0.466378 0.738958 0
vt 0.600823 0.620456 0
vt 0.584418 0.618966 0
vt 0.459271 0.787929 0
vt 0.46557 0.729689 0
vt 0.461784 0.810371 0
vt 0 1 0
vt 0.46836 0.808736 0
vt 0.531355 0.865489 0
vt 0.450461 0.344433 0
vt 0.975528 0.459526 0
vt 0 0.389137 0
vt 0.18947 0.476807 0
vt 0 1 0
vt 0.459175 0.785141 0
vt 0.793893 0.292805 0
vt 0.477035 0.73654 0
vt 0.558504 0.553826 0
vt 0.497867 0.810534 0
vt 0.450461 0.344433 0
vt 0.282257 0.492729 0
vt 0.81053 0.476807 0
vt 0.490127 0.754648 0
vt 0.459779 0.802539 0
vt 0.489924 0.749166 0
vt 0.485796 0.766729 0
vt 0.49529 0.787243 0
vt 0.580876 0.599332 0
vt 0.610344 0.599562 0
vt 0.499163 0.808047 0
vt 0.554833 0.852302 0
vt 0.497993 0.794438 0
vt 0.537437 0.859975 0
vt 0.490127 0.754648 0
vt 0.586239 0.595329 0
vt 0.593544 0.327301 0
vt 0 1 0
vt 0.549539 0.344433 0
vt 0.51958 0.802811 0
vt 0.50685 0.797565 0
vt 0.533903 0.796593 0
vt 0.467043 0.757209 0
vt 0.466378 0.738958 0
vt 0.467543 0.732415 0
vt 0.47842 0.746287 0
vt 0.587471 0.612386 0
vt 0.58114 0.610011 0
vt 0.140326 0.53178 0
vt 0 1 0
vt 0.467168 0.742654 0
vt 0.468395 0.726339 0
vt 0.468423 0.72629 0
vt 0 1 0
vt 0.599269 0.554858 0
vt 0.45983 0.803985 0
vt 0 1 0
vt 0.468842 0.723927 0
vt 0.468204 0.735019 0
vt 0.608878 0.593579 0
vt 0.528598 0.862678 0
vt 0.533744 0.855085 0
vt 0.483856 0.741013 0
vt 0.478757 0.763906 0
vt 0.463941 0.725445 0
vt 0.585356 0.616338 0
vt 0.459472 0.793767 0
vt 0.461888 0.813254 0
vt 0.46557 0.729689 0
vt 0.618665 0.383205 0
vt 0 1 0
vt 0.327249 0.514725 0
vt 0.491357 0.782225 0
vt 0.48072 0.763783 0
vt 0.482355 0.739235 0
vt 0.52965 0.858487 0
vt 0.459704 0.800426 0
vt 0.535657 0.85852 0
vt 0 1 0
vt 0.530356 0.847231 0
vt 0.601569 0.621008 0
vt 0.493132 0.810665 0
vt 0.467324 0.729442 0
vt 0.609476 0.62384 0
vt 0.594369 0.53641 0
vt 0 1 0
vt 0.876608 0.580494 0
vt 0.556735 0.572716 0
vt 0.460502 0.77334 0
vt 0.466293 0.74778 0
vt 0.466377 0.748286 0
vt 0 1 0
vt 0.4675 0.728924 0
vt 0.465694 0.724813 0
vt 0.529701 0.861377 0
vt 0.793893 0.292805 0
vt 0 1 0
vt 0.859674 0.53178 0
vt 0.492187 0.775399 0
vt 0.585356 0.616338 0
vt 0.459456 0.793305 0
vt 0.618665 0.383205 0
vt 0.475997 0.815446 0
vt 0.477999 0.732596 0
vt 0.600823 0.620456 0
vt 0.46663 0.753166 0
vt 0.612434 0.62434 0
vt 0.464679 0.727808 0
vt 0.466293 0.74778 0
vt 0 1 0
vt 0.477035 0.73654 0
vt 0.461146 0.748328 0
vt 0.464423 0.72421 0
vt 0.468862 0.749484 0
vt 0.095491 0.802353 0
vt 0.554417 0.439854 0
vt 0 1 0
vt 0.549539 0.487347 0
vt 0.536721 0.859365 0
vt 0.51958 0.802811 0
vt 0.469928 0.750509 0
vt 0.594111 0.535248 0
vt 0.499012 0.806119 0
vt 0.499163 0.808047 0
vt 0.489859 0.811437 0
vt 0.459175 0.785141 0
vt 0.362466 0.369709 0
vt 0.55594 0.398312 0
vt 0.555129 0.847689 0
vt 0.608878 0.593579 0
vt 0.525366 0.8584 0
vt 0.462269 0.79507 0
vt 0.469383 0.607635 0
vt 0 1 0
vt 0 0.714703 0
vt 0.580948 0.566627 0
vt 0.588077 0.539594 0
vt 0.464674 0.751874 0
vt 0.467253 0.750763 0
vt 0.527647 0.863272 0
vt 0.46428 0.731015 0
vt 0.50685 0.797565 0
vt 0.471307 0.756222 0
vt 0.468204 0.735019 0
vt 0.460939 0.786261 0
vt 0.462269 0.79507 0
vt 0.79844 0.403915 0
vt 0 1 0
vt 0.876608 0.580494 0
vt 0.459467 0.741348 0
vt 0.533015 0.86103 0
vt 0.266014 0.420963 0
vt 0.672751 0.514725 0
vt 0.140326 0.53178 0
vt 0 1 0
vt 0.477157 0.773097 0
vt 0.609476 0.62384 0
vt 0.558344 0.559956 0
vt 0.46663 0.753166 0
vt 0.18947 0.641144 0
vt 0.904509 0.564873 0
vt 0.48072 0.763783 0
vt 0.494477 0.829329 0
vt 0.491357 0.782225 0
vt 0.467043 0.757209 0
vt 0.266014 0.647144 0
vt 0.593544 0.411304 0
vt 0.485221 0.804628 0
vt 0.474831 0.767088 0
vt 0.470042 0.751312 0
vt 0.44406 0.398312 0
vt 0.654508 0.693741 0
vt 0.672751 0.514725 0
vt 0 1 0
vt 0.654509 0.410099 0
vt 0.477878 0.73578 0
vt 0.464995 0.72145 0
vt 0.395808 0.365723 0
vt 0.593544 0.411304 0
vt 0.024471 0.64431 0
vt 0 1 0
vt 0.46953 0.739997 0
vt 0.463109 0.721688 0
vt 0.589612 0.566365 0
vt 0.498517 0.806656 0
vt 0.492924 0.813826 0
vt 0.44406 0.398312 0
vt 0 1 0
vt 0.49635 0.781759 0
vt 0.464362 0.726914 0
vt 0.46557 0.729689 0
vt 0.346505 0.391926 0
vt 0.717743 0.492729 0
vt 0.478074 0.743827 0
vt 0.492286 0.773966 0
vt 0.525366 0.8584 0
vt 0.463993 0.748347 0
vt 0.44406 0.398312 0
vt 0 1 0
vt 0.4237 0.565987 0
vt 0.492829 0.789133 0
vt 0.465564 0.722267 0
vt 0.52573 0.856066 0
vt 0.534939 0.862031 0
vt 0.637534 0.369709 0
vt 0.692622 0.420471 0
vt 0.604192 0.365723 0
vt 0.496036 0.784173 0
vt 0.601569 0.621008 0
vt 0.580859 0.579665 0
vt 0.81053 0.476807 0
vt 0.549539 0.487347 0
vt 0.20156 0.317513 0
vt 0.489788 0.77451 0
vt 0.580956 0.598184 0
vt 0.463567 0.731622 0
vt 0.79844 0.317513 0
vt 0.282257 0.492729 0
vt 0.477869 0.740706 0
vt 0.477104 0.752145 0
vt 0.466992 0.735881 0
vt 0.18947 0.476807 0
vt 0.502945 0.831977 0
vt 0.499163 0.808047 0
vt 0.530131 0.864549 0
vt 0.609379 0.623288 0
vt 0.59041 0.541266 0
vt 0 1 0
vt 0.250704 0.294548 0
vt 0.445583 0.324238 0
vt 0.477035 0.73654 0
vt 0.506778 0.810402 0
vt 0.469008 0.724611 0
vt 0.581694 0.54394 0
vt 0.593544 0.411304 0
vt 0.618665 0.383205 0
vt 0.549539 0.344433 0
vt 0.47577 0.815443 0
vt 0.472127 0.728869 0
vt 0.471495 0.728278 0
vt 0 1 0
vt 0.717743 0.44857 0
vt 0.493013 0.812944 0
vt 0.450461 0.487347 0
vt 0.395808 0.50164 0
vt 0.4237 0.300087 0
vt 0.7264 0.473465 0
vt 0.717743 0.44857 0

f 60/299 54/280 58/291 
f 154/600 379/1696 420/1914 
f 54/280 57/290 58/291 
f 152/588 436/2004 23/127 
f 344/1486 353/1541 362/1597 
f 43/234 54/279 61/300 
f 527/2511 520/2463 371/1648 
f 485/2275 313/1311 209/823 
f 258/1028 186/693 487/2287 
f 54/278 60/298 61/300 
f 408/1847 544/2613 440/2027 
f 319/1343 511/2415 349/1522 
f 257/1021 214/847 204/796 
f 369/1634 96/428 158/624 
f 62/305 500/2356 460/2135 
f 538/2583 24/132 441/2033 
f 493/2316 388/1741 389/1749 
f 409/1853 538/2582 441/2032 
f 461/2142 193/734 275/1121 
f 297/1226 157/617 83/358 
f 472/2205 303/1257 365/1614 
f 503/2375 311/1299 488/2293 
f 314/1317 35/195 288/1185 
f 59/297 324/1371 315/1322 
f 304/1262 380/1701 352/1536 
f 201/779 467/2177 327/1390 
f 311/1298 503/2374 153/594 
f 11/60 389/1748 543/2606 
f 216/855 496/2334 543/2605 
f 395/1781 327/1389 402/1820 
f 54/277 50/264 53/272 
f 539/2589 398/1798 401/1815 
f 54/276 43/233 45/240 
f 151/582 67/315 462/2149 
f 32/178 85/371 361/1591 
f 52/271 453/2099 526/2504 
f 257/1020 27/151 13/71 
f 472/2204 397/1793 246/966 
f 42/232 326/1385 182/666 
f 245/960 409/1852 441/2031 
f 475/2221 546/2624 447/2070 
f 183/674 428/1964 88/390 
f 487/2286 365/1613 258/1027 
f 79/345 346/1501 221/882 
f 218/864 260/1041 91/399 
f 269/1086 159/627 442/2044 
f 40/224 30/166 427/1956 
f 522/2474 545/2618 285/1169 
f 447/2069 546/2623 336/1440 
f 422/1926 412/1868 424/1938 
f 375/1670 293/1206 266/1075 
f 47/250 99/449 384/1716 
f 267/1080 343/1481 488/2292 
f 525/2494 371/1647 450/2086 
f 398/1797 539/2588 306/1275 
f 150/575 184/680 406/1839 
f 92/404 453/2098 52/270 
f 463/2156 205/801 385/1725 
f 53/272 50/264 51/265 
f 306/1274 447/2068 501/2364 
f 50/263 54/275 48/251 
f 96/427 18/95 533/2551 
f 54/274 45/239 46/242 
f 54/274 46/241 48/251 
f 149/571 546/2622 494/2322 
f 374/1664 351/1530 500/2355 
f 517/2448 431/1979 451/2089 
f 34/188 253/1007 331/1414 
f 469/2187 457/2118 490/2303 
f 268/1084 445/2060 97/436 
f 57/289 54/273 56/288 
f 196/753 361/1590 188/704 
f 83/357 26/146 270/1092 
f 482/2260 2/16 185/687 
f 346/1500 475/2220 474/2215 
f 123/486 17/89 144/540 
f 494/2321 44/238 149/570 
f 395/1780 538/2581 201/778 
f 257/1019 274/1115 27/150 
f 480/2248 413/1876 338/1452 
f 352/1535 295/1217 304/1261 
f 208/818 449/2082 75/337 
f 2/15 5/32 430/1977 
f 83/356 8/46 199/768 
f 210/829 342/1476 39/218 
f 132/508 203/790 2/14 
f 289/1187 301/1246 145/549 
f 199/767 26/145 83/355 
f 481/2253 537/2576 271/1099 
f 387/1737 14/73 267/1079 
f 539/2587 401/1814 474/2214 
f 508/2399 531/2537 98/441 
f 97/435 442/2043 159/626 
f 358/1572 345/1492 381/1705 
f 416/1891 471/2198 334/1429 
f 321/1352 90/394 97/434 
f 455/2106 221/881 346/1499 
f 18/94 95/420 529/2525 
f 285/1169 457/2117 502/2369 
f 349/1521 85/370 536/2569 
f 74/330 115/473 116/474 
f 115/473 74/330 114/472 
f 116/474 76/338 74/330 
f 322/1359 408/1846 440/2026 
f 76/338 116/474 77/339 
f 435/2000 31/173 502/2368 
f 337/1446 253/1006 1/9 
f 74/330 73/329 113/471 
f 514/2430 416/1890 334/1428 
f 114/472 74/330 113/471 
f 80/346 120/478 121/479 
f 502/2368 31/173 87/383 
f 121/479 81/347 80/346 
f 425/1942 72/328 15/78 
f 275/1120 281/1155 404/1829 
f 118/476 78/340 77/339 
f 12/65 196/752 188/703 
f 80/346 78/340 118/476 
f 80/346 119/477 120/478 
f 119/477 80/346 118/476 
f 65/309 105/463 106/464 
f 105/463 65/309 63/306 
f 106/464 66/310 65/309 
f 328/1397 514/2430 87/383 
f 442/2042 198/763 356/1560 
f 103/461 63/306 81/347 
f 216/854 354/1548 496/2333 
f 530/2531 221/880 362/1596 
f 63/306 104/462 105/463 
f 104/462 63/306 103/461 
f 70/321 110/468 111/469 
f 110/468 70/321 109/467 
f 111/469 71/322 70/321 
f 252/1001 249/985 377/1683 
f 71/322 111/469 73/329 
f 108/466 68/316 66/310 
f 264/1062 296/1220 342/1475 
f 70/321 68/316 108/466 
f 274/1114 257/1018 204/795 
f 109/467 70/321 108/466 
f 296/1220 37/207 146/554 
f 315/1321 382/1709 372/1653 
f 406/1838 298/1233 198/763 
f 117/475 77/339 116/474 
f 498/2345 27/149 274/1114 
f 342/1475 296/1220 146/554 
f 113/471 73/329 112/470 
f 381/1704 296/1220 41/227 
f 281/1155 240/941 88/389 
f 84/365 37/207 202/784 
f 194/740 465/2168 189/709 
f 306/1273 501/2363 276/1126 
f 358/1571 212/837 364/1607 
f 102/460 81/347 121/479 
f 296/1220 264/1062 41/227 
f 118/476 77/339 117/475 
f 144/539 215/851 123/485 
f 132/507 430/1976 228/907 
f 357/1567 364/1607 33/182 
f 18/93 357/1567 521/2468 
f 191/722 10/55 432/1985 
f 91/398 372/1653 218/863 
f 470/2191 387/1736 243/950 
f 107/465 66/310 106/464 
f 240/941 513/2426 486/2281 
f 371/1646 520/2462 450/2085 
f 103/461 81/347 102/460 
f 303/1256 352/1534 365/1612 
f 450/2085 155/603 525/2493 
f 18/93 529/2524 533/2550 
f 182/665 263/1061 483/2266 
f 6/34 145/548 515/2433 
f 353/1540 158/623 534/2557 
f 112/470 73/329 111/469 
f 259/1034 499/2350 224/891 
f 266/1074 390/1753 375/1669 
f 108/466 66/310 107/465 
f 520/2462 527/2510 216/854 
f 342/1475 217/859 264/1062 
f 327/1388 467/2176 264/1062 
f 139/522 33/182 41/227 
f 41/227 264/1062 467/2176 
f 250/990 260/1040 428/1963 
f 126/491 168/646 167/645 
f 278/1140 228/907 438/2016 
f 423/1932 224/891 396/1787 
f 133/509 172/650 171/649 
f 524/2486 160/634 211/834 
f 459/2131 343/1480 243/950 
f 505/2384 431/1978 517/2447 
f 332/1419 157/616 432/1985 
f 522/2473 334/1428 545/2617 
f 99/448 10/55 361/1589 
f 141/524 163/641 162/640 
f 334/1428 471/2197 545/2617 
f 474/2213 202/784 346/1498 
f 126/491 167/645 166/644 
f 97/433 49/262 268/1083 
f 400/1809 319/1342 24/131 
f 262/1054 458/2124 535/2564 
f 159/625 321/1351 97/433 
f 189/709 8/45 47/249 
f 142/530 425/1942 15/78 
f 372/1653 91/398 518/2455 
f 137/515 178/656 177/655 
f 327/1388 264/1062 217/859 
f 141/524 162/640 181/659 
f 212/837 358/1571 381/1704 
f 445/2059 406/1838 198/763 
f 425/1942 205/800 247/973 
f 11/59 543/2604 496/2333 
f 520/2462 389/1747 450/2085 
f 206/807 330/1408 349/1520 
f 133/509 173/651 172/650 
f 494/2320 207/812 79/344 
f 389/1747 292/1197 256/1014 
f 137/515 177/655 176/654 
f 506/2391 513/2426 240/941 
f 284/1166 474/2213 478/2236 
f 472/2203 487/2285 187/698 
f 130/503 169/647 168/646 
f 511/2414 395/1779 402/1819 
f 128/496 130/503 168/646 
f 467/2176 139/522 41/227 
f 128/496 168/646 126/491 
f 171/649 131/504 133/509 
f 212/837 33/182 364/1607 
f 131/504 171/649 130/503 
f 130/503 170/648 169/647 
f 170/648 130/503 171/649 
f 122/480 164/642 163/641 
f 164/642 122/480 165/643 
f 324/1370 417/1897 382/1709 
f 185/686 370/1642 4/26 
f 122/480 163/641 141/524 
f 525/2493 155/603 476/2224 
f 485/2274 209/822 390/1753 
f 126/491 166/644 125/490 
f 125/490 165/643 122/480 
f 165/643 125/490 166/644 
f 140/523 179/657 178/656 
f 179/657 140/523 180/658 
f 138/516 140/523 178/656 
f 537/2575 410/1857 156/611 
f 138/516 178/656 137/515 
f 386/1730 435/2000 502/2368 
f 331/1413 499/2350 34/187 
f 141/524 181/659 140/523 
f 213/842 221/880 455/2105 
f 180/658 140/523 181/659 
f 134/510 174/652 173/651 
f 491/2309 124/489 386/1730 
f 133/509 134/510 173/651 
f 399/1804 145/548 307/1280 
f 124/489 435/2000 386/1730 
f 176/654 136/514 137/515 
f 233/920 524/2486 25/138 
f 136/514 176/654 134/510 
f 134/510 175/653 174/652 
f 175/653 134/510 176/654 
f 428/1962 404/1828 88/388 
f 158/622 371/1645 534/2556 
f 499/2349 236/933 34/186 
f 221/879 403/1824 79/343 
f 508/2398 486/2280 531/2536 
f 530/2530 49/261 251/997 
f 426/1948 69/320 541/2598 
f 404/1827 281/1154 88/387 
f 100/454 67/314 62/304 
f 513/2425 506/2390 87/382 
f 203/789 185/685 2/13 
f 49/260 97/432 147/557 
f 298/1232 249/984 356/1559 
f 424/1937 350/1528 533/2549 
f 525/2492 530/2529 534/2555 
f 98/440 393/1769 340/1465 
f 207/811 494/2319 546/2621 
f 463/2155 418/1903 3/22 
f 421/1920 184/679 150/574 
f 418/1902 463/2154 1/8 
f 546/2620 149/569 336/1439 
f 330/1407 361/1588 85/369 
f 526/2503 453/2097 192/727 
f 423/1931 396/1786 286/1176 
f 455/2104 364/1606 213/841 
f 304/1260 295/1216 376/1676 
f 281/1153 506/2389 240/940 
f 87/381 506/2388 328/1396 
f 250/989 376/1675 295/1215 
f 235/929 238/936 237/934 
f 377/1682 501/2362 252/1000 
f 478/2235 474/2212 401/1813 
f 326/1384 42/231 316/1329 
f 350/1527 156/610 533/2548 
f 407/1841 442/2041 439/2020 
f 84/364 339/1458 37/206 
f 227/901 235/928 229/908 
f 226/899 235/928 227/900 
f 465/2167 93/410 189/708 
f 235/927 231/914 229/908 
f 423/1930 265/1068 244/954 
f 231/913 234/921 232/915 
f 442/2040 356/1558 336/1438 
f 502/2367 87/380 522/2472 
f 325/1378 451/2088 507/2393 
f 313/1310 485/2273 535/2563 
f 439/2019 251/996 49/259 
f 186/692 39/217 146/553 
f 532/2543 308/1285 35/194 
f 156/609 355/1555 533/2547 
f 332/1418 47/248 8/44 
f 351/1529 374/1663 460/2134 
f 183/673 94/416 443/2049 
f 194/739 189/707 273/1110 
f 498/2344 194/738 27/148 
f 540/2594 92/403 52/269 
f 360/1584 536/2568 348/1515 
f 508/2397 94/415 88/386 
f 317/1334 469/2186 230/912 
f 154/599 492/2314 537/2574 
f 295/1214 352/1533 303/1255 
f 24/130 160/633 441/2030 
f 13/70 384/1715 257/1017 
f 544/2612 427/1955 30/165 
f 249/983 298/1231 325/1377 
f 350/1526 464/2162 413/1875 
f 511/2413 319/1341 400/1808 
f 223/888 235/926 226/898 
f 378/1691 540/2593 394/1775 
f 231/913 235/925 234/921 
f 215/850 19/101 370/1641 
f 243/949 343/1479 470/2190 
f 494/2318 403/1823 44/237 
f 144/538 157/615 297/1225 
f 544/2611 30/164 312/1304 
f 150/573 406/1837 145/547 
f 529/2523 523/2478 422/1925 
f 184/678 517/2446 298/1230 
f 247/972 352/1532 380/1700 
f 362/1595 534/2554 530/2528 
f 313/1309 417/1896 209/821 
f 487/2284 186/691 339/1457 
f 347/1507 21/115 148/564 
f 14/72 387/1735 470/2189 
f 2/12 482/2259 12/64 
f 335/1431 454/2101 49/258 
f 344/1485 213/840 364/1605 
f 364/1605 455/2103 358/1570 
f 428/1961 183/672 250/988 
f 506/2387 491/2308 328/1395 
f 241/943 235/924 242/944 
f 399/1803 525/2491 476/2223 
f 32/177 196/751 309/1292 
f 367/1625 366/1620 368/1630 
f 235/923 223/887 242/944 
f 320/1350 503/2373 488/2291 
f 158/621 527/2509 371/1644 
f 238/935 235/922 239/937 
f 161/639 532/2542 35/193 
f 235/922 241/942 239/937 
f 427/1954 190/716 40/223 
f 204/794 214/846 39/216 
f 59/296 326/1383 316/1328 
f 510/2408 191/721 17/88 
f 516/2437 355/1554 378/1690 
f 430/1975 459/2130 228/906 
f 481/2252 271/1098 324/1369 
f 19/100 297/1224 363/1603 
f 326/1382 518/2454 246/965 
f 469/2185 386/1729 457/2116 
f 282/1158 75/336 449/2081 
f 337/1445 433/1991 473/2209 
f 23/126 528/2517 152/587 
f 146/552 39/215 342/1474 
f 17/87 432/1984 157/614 
f 194/737 273/1109 13/69 
f 379/1695 154/598 316/1327 
f 248/974 155/602 388/1740 
f 153/593 503/2372 446/2064 
f 433/1990 385/1724 286/1175 
f 386/1728 502/2366 457/2115 
f 540/2592 378/1689 92/402 
f 183/671 15/77 279/1144 
f 370/1640 278/1139 320/1349 
f 530/2527 251/995 221/878 
f 2/11 12/63 5/31 
f 251/994 149/568 221/877 
f 444/2054 397/1792 478/2234 
f 62/303 151/581 500/2354 
f 219/871 257/1016 384/1714 
f 21/114 319/1340 349/1519 
f 284/1165 84/363 202/783 
f 393/1768 152/586 528/2516 
f 295/1213 260/1039 250/987 
f 189/706 47/247 273/1108 
f 263/1060 182/664 401/1812 
f 317/1333 328/1394 469/2184 
f 275/1119 197/759 281/1152 
f 197/758 506/2386 281/1151 
f 413/1874 272/1106 495/2326 
f 402/1818 217/858 36/202 
f 300/1244 293/1205 333/1426 
f 373/1658 218/862 458/2123 
f 412/1867 148/563 497/2340 
f 9/51 360/1583 348/1514 
f 377/1681 249/982 127/495 
f 538/2580 190/715 201/777 
f 139/521 95/419 521/2467 
f 524/2485 441/2029 160/632 
f 525/2490 399/1802 280/1150 
f 452/2094 75/335 437/2010 
f 286/1174 55/287 265/1067 
f 148/562 412/1866 427/1953 
f 279/1143 72/327 376/1674 
f 18/92 521/2466 95/418 
f 1/7 199/766 93/409 
f 149/567 251/993 82/351 
f 528/2515 23/125 277/1133 
f 36/201 210/828 29/162 
f 397/1791 84/362 478/2233 
f 319/1339 160/631 24/129 
f 534/2553 371/1643 525/2489 
f 405/1833 480/2247 156/608 
f 245/959 489/2299 409/1851 
f 405/1832 350/1525 413/1873 
f 465/2166 418/1901 93/408 
f 354/1547 52/268 195/746 
f 443/2048 94/414 340/1464 
f 492/2313 355/1553 410/1856 
f 462/2148 67/313 448/2077 
f 537/2573 481/2251 316/1326 
f 444/2053 246/964 397/1790 
f 187/697 84/361 397/1789 
f 191/720 188/702 10/54 
f 519/2459 385/1723 504/2382 
f 524/2484 233/919 151/580 
f 208/817 75/334 366/1619 
f 329/1402 485/2272 266/1073 
f 6/33 289/1186 145/546 
f 93/407 8/43 189/705 
f 517/2445 195/745 377/1680 
f 21/113 536/2567 360/1582 
f 472/2202 365/1611 487/2283 
f 314/1316 528/2514 277/1132 
f 448/2076 22/120 25/137 
f 92/401 378/1688 420/1913 
f 12/62 188/701 5/30 
f 429/1971 314/1315 288/1184 
f 373/1657 262/1053 428/1960 
f 488/2290 343/1478 459/2129 
f 37/205 296/1219 345/1491 
f 18/91 369/1633 357/1566 
f 98/439 531/2535 393/1767 
f 272/1105 208/816 366/1618 
f 456/2112 270/1091 26/144 
f 329/1401 266/1072 208/815 
f 424/1936 412/1865 200/772 
f 504/2381 340/1463 393/1766 
f 196/750 16/83 309/1291 
f 501/2361 377/1679 526/2502 
f 283/1162 437/2009 300/1243 
f 326/1381 444/2052 182/663 
f 298/1229 356/1557 198/762 
f 442/2039 251/992 439/2018 
f 507/2392 484/2268 325/1376 
f 7/40 91/397 411/1862 
f 460/2133 100/453 62/302 
f 143/534 526/2501 294/1210 
f 153/592 359/1576 387/1734 
f 369/1632 158/620 357/1565 
f 383/1711 471/2196 416/1889 
f 348/1513 309/1290 308/1284 
f 485/2271 28/157 535/2562 
f 274/1113 225/897 498/2343 
f 4/25 19/99 363/1602 
f 299/1239 436/2003 152/585 
f 385/1722 519/2458 286/1173 
f 64/308 269/1085 442/2038 
f 222/886 299/1238 486/2279 
f 346/1497 358/1569 455/2102 
f 310/1294 391/1755 249/981 
f 47/246 384/1713 13/68 
f 509/2401 505/2383 517/2444 
f 7/39 246/963 518/2453 
f 23/124 435/1999 305/1269 
f 357/1564 33/181 521/2465 
f 517/2443 325/1375 298/1228 
f 139/520 201/776 529/2522 
f 96/426 527/2508 158/619 
f 489/2298 245/958 462/2147 
f 277/1131 305/1268 101/459 
f 443/2047 15/76 183/670 
f 160/630 347/1506 408/1845 
f 145/545 301/1245 255/1012 
f 500/2353 233/918 22/119 
f 1/6 253/1005 291/1194 
f 483/2265 379/1694 42/230 
f 399/1801 515/2432 145/544 
f 94/413 98/438 340/1462 
f 190/714 523/2477 529/2521 
f 221/876 44/236 403/1822 
f 518/2452 91/396 7/38 
f 372/1652 313/1308 458/2122 
f 149/566 44/235 221/875 
f 361/1587 10/53 188/700 
f 196/749 482/2258 16/82 
f 423/1929 244/953 259/1033 
f 3/21 418/1900 225/896 
f 157/613 332/1417 83/354 
f 346/1496 345/1490 358/1568 
f 285/1168 502/2365 522/2471 
f 212/836 381/1703 41/226 
f 443/2046 142/529 15/75 
f 228/905 459/2128 243/948 
f 15/74 72/326 279/1142 
f 99/447 47/245 432/1983 
f 11/58 496/2332 542/2601 
f 19/98 144/537 297/1223 
f 270/1090 456/2111 129/502 
f 314/1314 161/638 35/192 
f 296/1218 381/1702 345/1489 
f 395/1778 400/1807 538/2579 
f 271/1097 537/2572 156/607 
f 527/2507 394/1774 354/1546 
f 453/2096 92/400 420/1912 
f 497/2339 148/561 360/1581 
f 139/519 467/2175 201/775 
f 143/533 501/2360 526/2500 
f 4/24 363/1601 185/684 
f 546/2619 475/2219 207/810 
f 293/1204 282/1157 449/2080 
f 123/484 510/2407 17/86 
f 487/2282 339/1456 187/696 
f 501/2359 447/2067 336/1437 
f 474/2211 284/1164 202/782 
f 129/501 479/2242 482/2257 
f 31/172 435/1998 23/123 
f 378/1687 355/1552 492/2312 
f 526/2499 192/726 263/1059 
f 204/793 186/690 258/1026 
f 464/2161 200/771 497/2338 
f 149/565 82/350 336/1436 
f 28/156 9/50 535/2561 
f 240/939 486/2278 508/2396 
f 294/1209 276/1125 143/532 
f 421/1919 255/1011 542/2600 
f 219/870 214/845 257/1015 
f 161/637 314/1313 277/1130 
f 336/1435 249/980 252/999 
f 429/1970 393/1765 528/2513 
f 404/1826 428/1959 461/2141 
f 299/1237 222/885 31/171 
f 520/2461 216/853 543/2603 
f 477/2229 219/869 99/446 
f 215/849 370/1639 123/483 
f 341/1471 338/1451 368/1629 
f 135/513 322/1358 524/2483 
f 236/932 86/377 34/185 
f 267/1078 488/2289 311/1297 
f 510/2406 5/29 191/719 
f 16/81 479/2241 434/1996 
f 456/2110 429/1969 288/1183 
f 193/733 101/458 275/1118 
f 10/52 99/445 432/1982 
f 306/1272 302/1251 398/1796 
f 394/1773 516/2436 378/1686 
f 202/781 345/1488 346/1495 
f 363/1600 270/1089 129/500 
f 1/5 463/2153 337/1444 
f 345/1487 202/780 37/204 
f 527/2506 96/425 394/1772 
f 330/1406 85/368 349/1518 
f 539/2586 475/2218 447/2066 
f 469/2183 490/2302 471/2195 
f 182/662 478/2232 401/1811 
f 75/333 452/2093 366/1617 
f 300/1242 415/1886 283/1161 
f 147/556 97/431 90/393 
f 442/2037 82/349 251/991 
f 267/1077 470/2188 343/1477 
f 309/1289 348/1512 32/176 
f 33/180 212/835 41/225 
f 433/1989 286/1172 396/1785 
f 511/2412 206/806 349/1517 
f 213/839 344/1484 362/1594 
f 418/1899 465/2165 225/895 
f 263/1058 302/1250 526/2498 
f 328/1393 491/2307 386/1727 
f 261/1048 272/1104 413/1872 
f 273/1107 47/244 13/67 
f 504/2380 385/1721 340/1461 
f 89/392 310/1293 249/979 
f 407/1840 64/307 442/2036 
f 28/155 329/1400 261/1047 
f 422/1924 523/2476 427/1952 
f 354/1545 540/2591 52/267 
f 275/1117 101/457 197/757 
f 9/49 28/154 360/1580 
f 420/1911 378/1685 154/597 
f 11/57 290/1188 292/1196 
f 31/170 513/2424 87/379 
f 329/1400 208/814 272/1103 
f 471/2194 383/1710 230/911 
f 276/1124 294/1208 302/1249 
f 254/1009 49/257 147/555 
f 359/1575 243/947 387/1733 
f 387/1732 311/1296 153/591 
f 38/212 322/1357 440/2025 
f 464/2160 424/1935 200/770 
f 274/1112 204/792 258/1025 
f 408/1844 211/833 160/629 
f 210/827 214/844 219/868 
f 88/385 240/938 508/2395 
f 436/2002 299/1236 31/169 
f 438/2015 243/946 359/1574 
f 521/2464 33/179 139/518 
f 484/2267 287/1179 325/1374 
f 528/2512 314/1312 429/1968 
f 320/1348 278/1138 503/2371 
f 442/2035 336/1434 82/348 
f 200/769 412/1864 497/2337 
f 456/2109 26/143 429/1967 
f 252/998 501/2358 336/1433 
f 20/109 262/1052 535/2560 
f 439/2017 49/256 454/2100 
f 249/978 325/1373 287/1178 
f 515/2431 399/1800 476/2222 
f 433/1988 337/1443 385/1720 
f 360/1579 28/153 261/1046 
f 292/1195 389/1746 11/56 
f 183/669 88/384 94/412 
f 448/2075 100/452 374/1662 
f 380/1699 425/1941 247/971 
f 480/2246 405/1831 413/1871 
f 142/528 385/1719 205/799 
f 415/1885 426/1947 283/1160 
f 38/211 440/2024 462/2146 
f 148/560 544/2610 347/1505 
f 72/325 304/1259 376/1673 
f 479/2240 456/2108 288/1182 
f 197/756 305/1267 491/2306 
f 486/2277 299/1235 531/2534 
f 463/2152 3/20 247/970 
f 357/1563 344/1483 364/1604 
f 203/788 132/506 228/904 
f 230/910 416/1888 317/1332 
f 266/1071 293/1203 449/2079 
f 435/1997 124/488 305/1266 
f 512/2421 417/1895 271/1096 
f 205/798 425/1940 142/527 
f 96/424 355/1551 516/2435 
f 421/1918 496/2331 184/677 
f 95/417 139/517 529/2520 
f 245/957 524/2482 151/579 
f 464/2159 350/1524 424/1934 
f 373/1656 260/1038 218/861 
f 529/2519 422/1923 533/2546 
f 478/2231 182/661 444/2051 
f 272/1102 366/1616 367/1624 
f 377/1678 195/744 526/2497 
f 415/1884 414/1880 69/319 
f 161/636 193/732 532/2541 
f 39/214 186/689 204/791 
f 192/725 420/1910 483/2264 
f 205/797 463/2151 247/969 
f 72/324 380/1698 304/1258 
f 1/4 26/142 199/765 
f 544/2609 148/559 427/1951 
f 458/2121 313/1307 535/2559 
f 339/1455 84/360 187/695 
f 250/986 183/668 376/1672 
f 339/1454 186/688 146/551 
f 96/423 516/2434 394/1771 
f 123/482 370/1638 320/1347 
f 211/832 408/1843 322/1356 
f 448/2074 38/210 462/2145 
f 348/1511 85/367 32/175 
f 129/499 185/683 363/1599 
f 340/1460 385/1718 142/526 
f 25/136 38/209 448/2073 
f 305/1265 277/1129 23/122 
f 444/2050 326/1380 246/962 
f 411/1861 295/1212 303/1254 
f 151/578 233/917 500/2352 
f 185/682 129/498 482/2256 
f 265/1066 86/376 244/952 
f 219/867 29/161 210/826 
f 93/406 199/764 8/42 
f 387/1731 267/1076 311/1295 
f 31/168 222/884 513/2423 
f 36/200 217/857 342/1473 
f 441/2028 524/2481 245/956 
f 220/873 389/1745 256/1013 
f 519/2457 504/2379 55/286 
f 489/2297 312/1303 40/222 
f 412/1863 422/1922 427/1950 
f 201/774 327/1387 395/1777 
f 305/1264 124/487 491/2305 
f 293/1202 323/1365 333/1425 
f 101/456 305/1263 197/755 
f 306/1271 539/2585 447/2065 
f 1/3 93/405 418/1898 
f 245/955 151/577 462/2144 
f 389/1744 520/2460 543/2602 
f 370/1637 203/787 278/1137 
f 20/108 348/1510 308/1283 
f 409/1850 40/221 190/713 
f 430/1974 5/28 510/2405 
f 325/1372 517/2442 451/2087 
f 352/1531 247/968 365/1610 
f 531/2533 152/584 393/1764 
f 297/1222 83/353 270/1088 
f 331/1412 253/1004 473/2208 
f 367/1623 368/1628 338/1450 
f 545/2616 457/2114 285/1167 
f 5/27 188/699 191/718 
f 490/2301 545/2615 471/2193 
f 448/2072 67/312 100/451 
f 317/1331 416/1887 514/2428 
f 21/112 347/1504 319/1338 
f 348/1509 536/2566 85/366 
f 522/2470 87/378 514/2429 
f 334/1427 522/2469 514/2428 
f 400/1806 24/128 538/2578 
f 84/359 284/1163 478/2230 
f 313/1306 372/1651 382/1708 
f 480/2245 512/2421 271/1095 
f 271/1094 156/606 480/2245 
f 512/2420 341/1470 375/1668 
f 146/550 37/203 339/1453 
f 307/1279 406/1836 445/2058 
f 504/2378 429/1966 26/141 
f 184/676 496/2330 517/2441 
f 55/285 291/1193 265/1065 
f 20/107 535/2558 9/48 
f 272/1101 261/1045 329/1399 
f 430/1973 510/2404 459/2127 
f 228/903 243/945 438/2014 
f 405/1830 156/605 350/1523 
f 27/147 194/736 13/66 
f 389/1743 220/872 493/2315 
f 460/2132 374/1661 100/450 
f 472/2201 187/694 397/1788 
f 363/1598 297/1221 270/1087 
f 318/1336 426/1946 415/1883 
f 195/743 496/2329 354/1544 
f 143/531 276/1123 501/2357 
f 479/2239 16/80 482/2255 
f 499/2348 331/1411 396/1784 
f 210/825 36/199 342/1472 
f 291/1192 253/1003 34/184 
f 255/1010 421/1917 145/543 
f 19/97 4/23 370/1636 
f 393/1763 429/1965 504/2377 
f 457/2113 545/2614 490/2300 
f 17/85 191/717 432/1981 
f 332/1416 8/41 83/352 
f 417/1894 313/1305 382/1707 
f 198/761 442/2034 97/430 
f 468/2179 333/1424 392/1762 
f 333/1423 414/1879 415/1882 
f 483/2263 263/1057 192/724 
f 377/1677 127/494 517/2440 
f 132/505 2/10 430/1972 
f 390/1752 209/820 512/2419 
f 22/118 448/2071 374/1660 
f 423/1928 259/1032 224/890 
f 495/2325 338/1449 413/1870 
f 468/2180 541/2597 414/1878 
f 356/1556 249/977 336/1432 
f 541/2597 69/318 414/1878 
f 379/1693 483/2262 420/1909 
f 298/1227 406/1835 184/675 
f 277/1128 193/731 161/635 
f 517/2439 127/493 509/2400 
f 324/1368 271/1093 417/1893 
f 55/284 1/2 291/1191 
f 42/229 379/1692 316/1325 
f 510/2403 320/1346 459/2126 
f 183/667 279/1141 376/1671 
f 414/1877 333/1422 468/2179 
f 29/160 477/2228 206/805 
f 404/1825 461/2140 275/1116 
f 433/1987 396/1783 331/1410 
f 94/411 508/2394 98/437 
f 465/2164 498/2342 225/894 
f 374/1659 500/2351 22/117 
f 368/1627 323/1364 341/1469 
f 326/1379 59/295 518/2451 
f 445/2057 268/1082 280/1149 
f 341/1468 323/1363 375/1667 
f 388/1739 450/2084 389/1742 
f 260/1037 373/1655 428/1958 
f 293/1201 300/1241 437/2008 
f 426/1945 318/1335 69/317 
f 353/1539 534/2552 362/1593 
f 432/1980 47/243 332/1415 
f 438/2013 153/590 446/2063 
f 203/786 228/902 278/1136 
f 348/1508 20/106 9/47 
f 280/1148 307/1278 445/2056 
f 419/1907 193/730 461/2139 
f 287/1177 89/391 249/976 
f 40/220 409/1849 489/2296 
f 307/1277 145/542 406/1834 
f 210/824 39/213 214/843 
f 420/1908 192/723 453/2095 
f 452/2092 466/2174 392/1761 
f 193/729 419/1906 532/2540 
f 449/2078 208/813 266/1070 
f 315/1320 372/1650 518/2450 
f 315/1319 324/1367 382/1706 
f 315/1318 518/2449 59/294 
f 531/2532 299/1234 152/583 
f 244/951 86/375 259/1031 
f 254/1008 335/1430 49/255 
f 1/1 55/283 26/140 
f 7/37 472/2200 246/961 
f 207/809 475/2217 346/1494 
f 29/159 206/804 36/198 
f 25/135 22/116 233/916 
f 253/1002 337/1442 473/2207 
f 440/2023 312/1302 489/2295 
f 329/1398 28/152 485/2270 
f 135/512 524/2480 211/831 
f 541/2596 466/2173 426/1944 
f 463/2150 385/1717 337/1441 
f 203/785 370/1635 185/681 
f 300/1240 333/1421 415/1881 
f 328/1392 386/1726 469/2182 
f 338/1448 495/2324 367/1622 
f 35/191 434/1995 288/1181 
f 18/90 96/422 369/1631 
f 440/2022 544/2608 312/1301 
f 213/838 362/1592 221/874 
f 21/111 360/1578 148/558 
f 398/1795 302/1248 263/1056 
f 20/105 532/2539 419/1905 
f 306/1270 276/1122 302/1248 
f 410/1855 355/1550 156/604 
f 293/1200 375/1666 323/1362 
f 219/866 477/2227 29/158 
f 263/1055 401/1810 398/1794 
f 72/323 425/1939 380/1697 
f 224/889 499/2347 396/1782 
f 49/254 280/1147 268/1081 
f 25/134 524/2479 322/1355 
f 452/2091 437/2007 466/2172 
f 366/1615 452/2090 392/1760 
f 519/2456 55/282 286/1171 
f 154/596 378/1684 492/2311 
f 19/96 215/848 144/536 
f 532/2538 20/104 308/1282 
f 465/2163 194/735 498/2341 
f 144/535 17/84 157/612 
f 512/2418 480/2244 341/1467 
f 30/163 40/219 312/1300 
f 182/660 483/2261 42/228 
f 496/2328 421/1916 542/2599 
f 323/1361 368/1626 392/1759 
f 225/893 274/1111 258/1024 
f 466/2171 283/1159 426/1943 
f 525/2488 49/253 530/2526 
f 219/865 384/1712 99/444 
f 368/1626 366/1615 392/1758 
f 59/293 316/1324 481/2250 
f 330/1405 206/803 477/2226 
f 390/1751 512/2417 375/1665 
f 265/1064 291/1190 86/374 
f 294/1207 526/2496 302/1247 
f 434/1994 479/2238 288/1180 
f 209/819 417/1892 512/2416 
f 353/1538 357/1562 158/618 
f 3/19 258/1023 365/1609 
f 75/332 282/1156 293/1199 
f 529/2518 201/773 190/712 
f 322/1354 135/511 211/830 
f 394/1770 540/2590 354/1543 
f 468/2178 392/1757 466/2170 
f 308/1281 309/1288 35/190 
f 97/429 445/2055 198/760 
f 468/2178 466/2170 541/2595 
f 309/1287 16/79 434/1993 
f 410/1854 537/2571 492/2310 
f 357/1561 353/1537 344/1482 
f 196/748 32/174 361/1586 
f 153/589 438/2012 359/1573 
f 510/2402 123/481 320/1345 
f 471/2192 230/909 469/2181 
f 319/1337 347/1503 160/628 
f 31/167 23/121 436/2001 
f 261/1044 497/2336 360/1577 
f 488/2288 459/2125 320/1344 
f 317/1330 514/2427 328/1391 
f 422/1921 424/1933 533/2545 
f 495/2323 272/1100 367/1621 
f 222/883 486/2276 513/2422 
f 472/2199 7/36 303/1253 
f 361/1585 330/1404 99/443 
f 154/595 537/2570 316/1323 
f 247/967 3/18 365/1608 
f 408/1842 347/1502 544/2607 
f 461/2138 262/1051 20/103 
f 340/1459 142/525 443/2045 
f 278/1135 446/2062 503/2370 
f 525/2487 280/1146 49/252 
f 440/2021 489/2294 462/2143 
f 327/1386 217/856 402/1817 
f 20/102 419/1904 461/2137 
f 395/1776 511/2411 400/1805 
f 411/1860 91/395 260/1036 
f 145/541 421/1915 150/572 
f 249/975 391/1754 127/492 
f 539/2584 474/2210 475/2216 
f 322/1353 38/208 25/133 
f 523/2475 190/711 427/1949 
f 190/710 538/2577 409/1848 
f 536/2565 21/110 349/1516 
f 266/1069 485/2269 390/1750 
f 286/1170 265/1063 423/1927 
f 261/1043 464/2158 497/2335 
f 79/342 207/808 346/1493 
f 338/1447 341/1466 480/2243 
f 151/576 62/301 67/311 
f 388/1738 155/601 450/2083 
f 433/1986 331/1409 473/2206 
f 438/2011 446/2061 278/1134 
f 36/197 511/2410 402/1816 
f 411/1859 260/1035 295/1211 
f 517/2438 496/2327 195/742 
f 526/2495 195/741 52/266 
f 464/2157 261/1042 413/1869 
f 499/2346 259/1030 236/931 
f 527/2505 354/1542 216/852 
f 293/1198 437/2006 75/331 
f 101/455 193/728 277/1127 
f 479/2237 129/497 456/2107 
f 333/1420 323/1360 392/1756 
f 34/183 86/373 291/1189 
f 411/1858 303/1252 7/35 
f 434/1992 35/189 309/1286 
f 196/747 12/61 482/2254 
f 458/2120 218/860 372/1649 
f 283/1159 466/2169 437/2005 
f 197/754 491/2304 506/2385 
f 504/2376 26/139 55/281 
f 3/17 225/892 258/1022 
f 458/2119 262/1050 373/1654 
f 262/1049 461/2136 428/1957 
f 355/1549 96/421 533/2544 
f 403/1821 494/2317 79/341 
f 481/2249 324/1366 59/292 
f 259/1029 86/372 236/930 
f 511/2409 36/196 206/802 
f 330/1403 477/2225 99/442 
f 280/1145 399/1799 307/1276 

