# This file uses centimeters as units for non-parametric coordinates.

mtllib eb_house_plant_01.mtl
g default
v 0.085838 -0.367193 0.008310
v 0.073773 -0.367193 -0.015370
v 0.054980 -0.367193 -0.034163
v 0.031300 -0.367193 -0.046228
v 0.005051 -0.367193 -0.050386
v -0.021199 -0.367193 -0.046228
v -0.044879 -0.367193 -0.034163
v -0.063671 -0.367193 -0.015370
v -0.075737 -0.367193 0.008310
v -0.079894 -0.367193 0.034559
v -0.075737 -0.367193 0.060809
v -0.063671 -0.367193 0.084489
v -0.044879 -0.367193 0.103281
v -0.021199 -0.367193 0.115347
v 0.005051 -0.367193 0.119504
v 0.031300 -0.367193 0.115347
v 0.054980 -0.367193 0.103281
v 0.073773 -0.367193 0.084489
v 0.085838 -0.367193 0.060809
v 0.089996 -0.367193 0.034559
v 0.110433 -0.208921 0.000319
v 0.094694 -0.208921 -0.030570
v 0.070180 -0.208921 -0.055084
v 0.039291 -0.208921 -0.070823
v 0.005051 -0.208921 -0.076246
v -0.029190 -0.208921 -0.070823
v -0.060079 -0.208921 -0.055084
v -0.084593 -0.208921 -0.030570
v -0.100331 -0.208921 0.000319
v -0.105754 -0.208921 0.034559
v -0.100331 -0.208921 0.068800
v -0.084593 -0.208921 0.099689
v -0.060079 -0.208921 0.124203
v -0.029190 -0.208921 0.139941
v 0.005051 -0.208921 0.145365
v 0.039291 -0.208921 0.139941
v 0.070180 -0.208921 0.124203
v 0.094694 -0.208921 0.099689
v 0.110433 -0.208921 0.068800
v 0.115856 -0.208921 0.034559
v 0.005051 -0.367193 0.034559
v 0.114595 -0.208921 -0.001034
v 0.098235 -0.208921 -0.033143
v 0.072753 -0.208921 -0.058625
v 0.040644 -0.208921 -0.074985
v 0.005051 -0.208921 -0.080622
v -0.030542 -0.208921 -0.074985
v -0.062651 -0.208921 -0.058625
v -0.088133 -0.208921 -0.033143
v -0.104494 -0.208921 -0.001034
v -0.110131 -0.208921 0.034559
v -0.104494 -0.208921 0.070152
v -0.088133 -0.208921 0.102261
v -0.062651 -0.208921 0.127743
v -0.030542 -0.208921 0.144104
v 0.005051 -0.208921 0.149741
v 0.040644 -0.208921 0.144104
v 0.072753 -0.208921 0.127743
v 0.098235 -0.208921 0.102261
v 0.114595 -0.208921 0.070152
v 0.120232 -0.208921 0.034559
v 0.116391 -0.169095 -0.001617
v 0.099762 -0.169095 -0.034253
v 0.073863 -0.169095 -0.060152
v 0.041227 -0.169095 -0.076781
v 0.005051 -0.169095 -0.082511
v -0.031126 -0.169095 -0.076781
v -0.063761 -0.169095 -0.060152
v -0.089661 -0.169095 -0.034253
v -0.106289 -0.169095 -0.001617
v -0.112019 -0.169095 0.034559
v -0.106289 -0.169095 0.070736
v -0.089661 -0.169095 0.103371
v -0.063761 -0.169095 0.129271
v -0.031126 -0.169095 0.145899
v 0.005051 -0.169095 0.151629
v 0.041227 -0.169095 0.145899
v 0.073863 -0.169095 0.129271
v 0.099762 -0.169095 0.103371
v 0.116391 -0.169095 0.070736
v 0.122121 -0.169095 0.034559
v 0.107861 -0.169095 0.001154
v 0.092507 -0.169095 -0.028981
v 0.068591 -0.169095 -0.052896
v 0.038456 -0.169095 -0.068251
v 0.005051 -0.169095 -0.073542
v -0.028354 -0.169095 -0.068251
v -0.058490 -0.169095 -0.052896
v -0.082405 -0.169095 -0.028981
v -0.097760 -0.169095 0.001154
v -0.103051 -0.169095 0.034559
v -0.097760 -0.169095 0.067964
v -0.082405 -0.169095 0.098100
v -0.058490 -0.169095 0.122015
v -0.028354 -0.169095 0.137370
v 0.005051 -0.169095 0.142661
v 0.038456 -0.169095 0.137370
v 0.068591 -0.169095 0.122015
v 0.092507 -0.169095 0.098100
v 0.107861 -0.169095 0.067964
v 0.113152 -0.169095 0.034559
v 0.103134 -0.188418 0.002690
v 0.088485 -0.188418 -0.026059
v 0.065670 -0.188418 -0.048875
v 0.036920 -0.188418 -0.063524
v 0.005051 -0.188418 -0.068571
v -0.026818 -0.188418 -0.063524
v -0.055568 -0.188418 -0.048875
v -0.078384 -0.188418 -0.026059
v -0.093032 -0.188418 0.002690
v -0.098080 -0.188418 0.034559
v -0.093032 -0.188418 0.066428
v -0.078384 -0.188418 0.095178
v -0.055568 -0.188418 0.117994
v -0.026818 -0.188418 0.132642
v 0.005051 -0.188418 0.137690
v 0.036920 -0.188418 0.132642
v 0.065669 -0.188418 0.117994
v 0.088485 -0.188418 0.095178
v 0.103134 -0.188418 0.066428
v 0.108182 -0.188418 0.034559
v 0.113974 -0.186107 -0.000832
v 0.072369 -0.186107 -0.058096
v 0.005051 -0.186107 -0.079969
v -0.062267 -0.186107 -0.058096
v -0.103872 -0.186107 -0.000832
v -0.103872 -0.186107 0.069950
v -0.062267 -0.186107 0.127215
v 0.005051 -0.186107 0.149087
v 0.072369 -0.186107 0.127215
v 0.113974 -0.186107 0.069950
v 0.005051 -0.143494 0.034559
v 0.005051 -0.189528 0.111978
v 0.411622 -0.013689 0.111978
v 0.005051 -0.189528 -0.039725
v 0.411622 -0.013689 -0.039725
v 0.114867 0.014056 0.111978
v 0.114867 0.014056 -0.039725
v 0.057671 -0.084935 0.111978
v 0.057671 -0.084935 -0.039725
v 0.005051 -0.189528 0.034559
v 0.057671 -0.084935 0.034559
v 0.125491 0.003572 0.034559
v 0.411622 -0.013689 0.034559
v 0.031433 -0.179658 0.106672
v 0.380738 0.042139 -0.051476
v -0.020263 -0.198999 -0.034634
v 0.329043 0.022798 -0.192782
v 0.101303 0.033934 0.051876
v 0.049607 0.014594 -0.089430
v 0.063808 -0.070378 0.079871
v 0.012113 -0.089719 -0.061435
v 0.005051 -0.189528 0.034559
v 0.037426 -0.080248 0.007758
v 0.086413 0.015013 -0.023202
v 0.354357 0.032269 -0.123589
v 0.091096 -0.190879 0.092713
v 0.416765 -0.057163 -0.386048
v -0.077510 -0.188232 -0.021240
v 0.248159 -0.054517 -0.500000
v 0.202413 0.051195 -0.066373
v 0.033807 0.053842 -0.180325
v 0.145489 -0.065594 0.015141
v -0.023117 -0.062947 -0.098812
v 0.005051 -0.189528 0.034559
v 0.059444 -0.064243 -0.043013
v 0.122622 0.036143 -0.134160
v 0.330720 -0.055813 -0.444201
v 0.082218 -0.194245 0.030469
v 0.064882 -0.102362 -0.402517
v -0.068992 -0.185003 0.038484
v -0.086327 -0.093120 -0.394502
v 0.085212 -0.016698 -0.117769
v -0.065997 -0.007456 -0.109753
v 0.083999 -0.102280 -0.041973
v -0.067211 -0.093038 -0.033958
v 0.005051 -0.189528 0.034559
v 0.006832 -0.097563 -0.037883
v 0.006851 -0.024335 -0.121970
v -0.012284 -0.097646 -0.398426
v 0.063214 -0.213991 -0.032056
v -0.175629 0.117064 -0.362170
v -0.050758 -0.166056 0.098477
v -0.289601 0.164999 -0.231636
v 0.070465 -0.081981 -0.074203
v -0.043508 -0.034045 0.056330
v 0.005051 -0.189528 0.034559
v 0.012301 -0.057518 -0.007588
v -0.233793 0.141527 -0.295554
v 0.019924 -0.218307 -0.027841
v -0.342874 -0.110392 -0.164082
v -0.009220 -0.161915 0.094433
v -0.372018 -0.054000 -0.041807
v -0.079804 -0.060603 -0.124342
v -0.108948 -0.004211 -0.002068
v -0.027941 -0.136941 -0.076775
v -0.057085 -0.080549 0.045500
v 0.005051 -0.189528 0.034559
v -0.042814 -0.108162 -0.014374
v -0.103989 -0.041424 -0.059734
v -0.357747 -0.081613 -0.101681
v -0.026661 -0.225686 -0.026110
v -0.416765 -0.036732 0.065184
v 0.035478 -0.154835 0.092772
v -0.354626 0.034119 0.184066
v -0.152496 -0.037253 -0.072638
v -0.090357 0.033598 0.046244
v -0.087881 -0.129197 -0.051616
v -0.025741 -0.058346 0.067266
v 0.005051 -0.189528 0.034559
v -0.056169 -0.093039 0.009053
v -0.129001 -0.009432 -0.002706
v -0.385053 -0.000574 0.125853
v -0.086366 -0.188909 -0.021654
v -0.336824 0.191861 0.389850
v 0.092766 -0.190123 0.088496
v -0.157692 0.190647 0.500000
v -0.102928 -0.030022 0.007030
v 0.076205 -0.031236 0.117180
v 0.005051 -0.189528 0.034559
v -0.011511 -0.030642 0.063243
v -0.245407 0.191242 0.446063
v -0.071219 -0.179830 0.025473
v -0.088808 0.041158 0.408975
v 0.078232 -0.198834 0.043278
v 0.060644 0.022153 0.426781
v -0.054503 0.033631 0.113003
v 0.094948 0.014626 0.130808
v -0.062241 -0.070609 0.066690
v 0.087211 -0.089614 0.084496
v 0.005051 -0.189528 0.034559
v 0.014029 -0.080308 0.075777
v 0.019233 0.014851 0.133662
v -0.012538 0.031459 0.418062
v -0.090330 -0.172252 0.080618
v 0.120366 0.352426 0.320138
v 0.096570 -0.206105 -0.009634
v 0.307265 0.318574 0.229886
v -0.079253 -0.014439 0.044362
v 0.107646 -0.048292 -0.045890
v 0.005051 -0.189528 0.034559
v 0.016127 -0.031715 -0.001696
v 0.215746 0.335150 0.274080
v 0.399118 -0.002744 -0.358672
v 0.380933 0.034471 -0.330902
v 0.293512 0.031869 -0.387111
v 0.312573 -0.003903 -0.416158
v 0.358432 0.065696 -0.296883
v 0.333276 0.086494 -0.259180
v 0.244250 0.072932 -0.313269
v 0.267575 0.054752 -0.353527
v 0.290934 0.102425 -0.196159
v 0.263089 0.097477 -0.155074
v 0.179657 0.071607 -0.217726
v 0.206499 0.077305 -0.259387
v 0.094485 0.100125 -0.269029
v 0.122330 0.105071 -0.310115
v 0.164671 0.089140 -0.373132
v 0.189826 0.068342 -0.410836
v 0.212327 0.037118 -0.444854
v 0.230512 -0.000098 -0.472625
v 0.068623 -0.061449 -0.379129
v 0.071620 -0.033327 -0.355006
v -0.005627 -0.031520 -0.349082
v -0.008629 -0.058589 -0.374379
v 0.074656 -0.009562 -0.325139
v 0.077409 0.006506 -0.291731
v -0.000221 0.000194 -0.283661
v -0.005117 -0.013834 -0.317803
v 0.081176 0.019354 -0.235477
v 0.082953 0.016324 -0.198464
v 0.004362 0.000722 -0.197813
v 0.001757 0.004352 -0.234729
v -0.068256 0.025567 -0.190451
v -0.070033 0.028596 -0.227465
v -0.073800 0.015748 -0.283717
v -0.076553 -0.000320 -0.317124
v -0.079589 -0.024085 -0.346991
v -0.082586 -0.052207 -0.371114
v -0.134450 0.145076 -0.336502
v -0.100654 0.159886 -0.312432
v -0.159359 0.180426 -0.244849
v -0.193313 0.167320 -0.269672
v -0.065623 0.167165 -0.284519
v -0.032921 0.164788 -0.255093
v -0.095167 0.176020 -0.187183
v -0.128946 0.181475 -0.215052
v 0.013388 0.146572 -0.207970
v 0.036778 0.123099 -0.178927
v -0.036257 0.129134 -0.118529
v -0.059927 0.153401 -0.146692
v -0.077195 0.171037 -0.048395
v -0.100587 0.194508 -0.077439
v -0.146894 0.212724 -0.124560
v -0.179596 0.215100 -0.153986
v -0.214626 0.207822 -0.181899
v -0.248422 0.193011 -0.205969
v 0.094505 0.366031 0.261482
v 0.072275 0.367193 0.215010
v 0.167558 0.345390 0.170448
v 0.190114 0.346386 0.216766
v 0.048240 0.358525 0.168488
v 0.024674 0.339215 0.126930
v 0.121333 0.307806 0.088819
v 0.147506 0.329227 0.127809
v -0.010523 0.293710 0.071110
v -0.030057 0.253270 0.045827
v 0.073641 0.220916 0.022648
v 0.094042 0.261611 0.046830
v 0.156844 0.219421 -0.044424
v 0.176378 0.259860 -0.019139
v 0.211574 0.305363 0.036678
v 0.235140 0.324672 0.078237
v 0.259175 0.333341 0.124758
v 0.281405 0.332178 0.171229
v 0.380435 0.021840 0.111978
v 0.351099 0.044669 0.111978
v 0.349884 0.041450 0.034559
v 0.380161 0.019887 0.034553
v 0.317001 0.062085 0.111978
v 0.280975 0.071246 0.111978
v 0.279286 0.059635 0.034559
v 0.315765 0.052511 0.032337
v 0.223167 0.072727 0.111978
v 0.187443 0.062431 0.111978
v 0.194905 0.043169 0.034559
v 0.230469 0.053992 0.033692
v 0.187444 0.062432 -0.039725
v 0.223170 0.072727 -0.039725
v 0.280975 0.071246 -0.039725
v 0.317001 0.062085 -0.039725
v 0.351099 0.044669 -0.039725
v 0.380435 0.021839 -0.039725
v -0.080718 0.072495 0.374516
v -0.074564 0.091539 0.343192
v 0.001388 0.078527 0.351409
v -0.004682 0.060840 0.383535
v -0.068665 0.104691 0.307720
v -0.063704 0.109483 0.271193
v 0.011142 0.088148 0.279806
v 0.008604 0.085137 0.316832
v -0.057561 0.104152 0.213942
v -0.055307 0.089812 0.179714
v 0.017547 0.062014 0.198152
v 0.016236 0.076746 0.232270
v 0.094145 0.070809 0.197521
v 0.091890 0.085148 0.231750
v 0.085747 0.090479 0.288999
v 0.080786 0.085686 0.325526
v 0.074887 0.072534 0.360998
v 0.068734 0.053490 0.392322
v -0.308116 0.228304 0.343565
v -0.283164 0.248399 0.303208
v -0.191520 0.243035 0.358999
v -0.216879 0.224972 0.400057
v -0.255927 0.259543 0.259037
v -0.228941 0.258941 0.215143
v -0.138592 0.242167 0.272915
v -0.162877 0.245642 0.318327
v -0.188200 0.240272 0.148682
v -0.165194 0.213718 0.110976
v -0.082731 0.189966 0.181496
v -0.104499 0.217161 0.219490
v 0.013938 0.212506 0.221128
v -0.009069 0.239059 0.258836
v -0.049809 0.257728 0.325294
v -0.076795 0.258329 0.369188
v -0.104032 0.247185 0.413358
v -0.128984 0.227090 0.453715
v -0.135190 0.147999 0.061458
v -0.119391 0.090813 0.035135
v -0.036380 0.080653 0.104914
v -0.054414 0.136185 0.133276
v 0.059742 0.089599 0.145285
v 0.043942 0.146785 0.171608
v -0.054867 0.171904 0.024967
v -0.067450 0.108267 0.022780
v 0.035479 0.088049 -0.006543
v 0.048700 0.151355 -0.000985
v 0.119450 0.074414 -0.067472
v 0.132032 0.138051 -0.065285
v 0.058737 0.074011 -0.141728
v 0.071204 0.009747 -0.107243
v 0.001647 0.027108 -0.047967
v -0.013085 0.089442 -0.085019
v -0.042768 0.057681 0.023291
v -0.055235 0.121946 -0.011194
v 0.346258 0.073387 -0.043138
v 0.315484 0.092352 -0.034476
v 0.288480 0.079168 -0.105908
v 0.319926 0.061561 -0.115009
v 0.281144 0.105419 -0.023702
v 0.246312 0.110126 -0.011603
v 0.220186 0.088621 -0.082217
v 0.254361 0.085691 -0.096704
v 0.192494 0.104665 0.008834
v 0.160993 0.090251 0.022331
v 0.144549 0.062309 -0.050944
v 0.175523 0.077112 -0.065233
v 0.109299 0.070912 -0.118976
v 0.140801 0.085325 -0.132474
v 0.194617 0.090785 -0.152909
v 0.229449 0.086078 -0.165008
v 0.263788 0.073012 -0.175782
v 0.294562 0.054046 -0.184445
v -0.315590 -0.078299 -0.172379
v -0.289808 -0.056834 -0.176134
v -0.303566 -0.030596 -0.112296
v -0.330200 -0.051102 -0.109181
v -0.259738 -0.039395 -0.177009
v -0.227865 -0.028580 -0.174401
v -0.241110 -0.009211 -0.107272
v -0.273834 -0.017563 -0.108946
v -0.176576 -0.022112 -0.165159
v -0.144755 -0.027349 -0.155159
v -0.166037 -0.015113 -0.086657
v -0.197888 -0.009105 -0.096133
v -0.173900 0.029043 -0.032885
v -0.205722 0.034279 -0.042885
v -0.257009 0.027812 -0.052126
v -0.288882 0.016996 -0.054735
v -0.318951 -0.000443 -0.053859
v -0.344734 -0.021908 -0.050105
v -0.392405 -0.007026 0.034747
v -0.371072 0.008984 0.014055
v -0.337890 0.042281 0.075660
v -0.360143 0.027357 0.096193
v -0.339974 0.022584 -0.010305
v -0.311528 0.027157 -0.027899
v -0.276782 0.053027 0.037315
v -0.305016 0.051059 0.055820
v -0.256348 0.023384 -0.054493
v -0.225833 0.012426 -0.063913
v -0.198337 0.032208 0.008719
v -0.228461 0.043943 0.018476
v -0.163695 0.083278 0.054969
v -0.194212 0.094235 0.064390
v -0.249390 0.098008 0.090983
v -0.277836 0.093434 0.108577
v -0.308933 0.079834 0.132937
v -0.330266 0.063824 0.153629
vt 0.545791 0.617024
vt 0.591582 0.617024
vt 0.591582 0.900380
vt 0.545791 0.900380
vt 0.637373 0.617024
vt 0.637373 0.900380
vt 0.683164 0.617024
vt 0.683164 0.900380
vt 0.728954 0.617024
vt 0.728954 0.900380
vt 0.774745 0.617024
vt 0.774745 0.900380
vt 0.820536 0.617024
vt 0.820536 0.900380
vt 0.866327 0.617024
vt 0.866327 0.900380
vt 0.912118 0.617024
vt 0.912118 0.900380
vt 0.957909 0.617024
vt 0.957909 0.900380
vt 0.042091 0.617024
vt 0.087882 0.617024
vt 0.087882 0.900380
vt 0.042091 0.900380
vt 0.133673 0.617024
vt 0.133673 0.900380
vt 0.179464 0.617024
vt 0.179464 0.900380
vt 0.225255 0.617024
vt 0.225255 0.900380
vt 0.271046 0.617024
vt 0.271046 0.900380
vt 0.316836 0.617024
vt 0.316836 0.900380
vt 0.362627 0.617024
vt 0.362627 0.900380
vt 0.408418 0.617024
vt 0.408418 0.900380
vt 0.454209 0.617024
vt 0.454209 0.900380
vt 0.500000 0.617024
vt 0.500000 0.900380
vt 3.049360 1.368389
vt 3.163419 1.346633
vt 3.134827 1.489040
vt 2.984092 1.464425
vt 3.005848 1.578484
vt 3.101883 1.643753
vt 3.215943 1.621997
vt 3.281211 1.525961
vt 3.259455 1.411901
vt 3.163419 1.346633
vt 3.049360 1.368389
vt 2.984092 1.464425
vt 3.005848 1.578484
vt 3.101883 1.643753
vt 3.215943 1.621997
vt 3.281211 1.525961
vt 3.259455 1.411901
vt 3.163419 1.346633
vt 3.049360 1.368389
vt 3.036615 1.495193
vt 3.237699 1.473437
vt -1.455213 0.915708
vt -1.410425 0.915708
vt -1.410425 1.000000
vt -1.455213 1.000000
vt -1.365638 0.915708
vt -1.365638 1.000000
vt -1.320851 0.915708
vt -1.320851 1.000000
vt -1.276064 0.915708
vt -1.276064 1.000000
vt -1.231277 0.915708
vt -1.231277 1.000000
vt -1.186489 0.915708
vt -1.186489 1.000000
vt -1.141702 0.915708
vt -1.141702 1.000000
vt -1.096915 0.915708
vt -1.096915 1.000000
vt -1.052128 0.915708
vt -1.052128 1.000000
vt -1.947872 0.915708
vt -1.903085 0.915708
vt -1.903085 1.000000
vt -1.947872 1.000000
vt -1.858298 0.915708
vt -1.858298 1.000000
vt -1.813511 0.915708
vt -1.813511 1.000000
vt -1.768723 0.915708
vt -1.768723 1.000000
vt -1.723936 0.915708
vt -1.723936 1.000000
vt -1.679149 0.915708
vt -1.679149 1.000000
vt -1.634362 0.915708
vt -1.634362 1.000000
vt -1.589574 0.915708
vt -1.589574 1.000000
vt -1.544787 0.915708
vt -1.544787 1.000000
vt -1.500000 0.915708
vt -1.500000 1.000000
vt -2.507313 0.925131
vt -2.464626 0.925131
vt -2.464626 0.994491
vt -2.507313 0.994491
vt -2.421940 0.925131
vt -2.421940 0.994491
vt -2.379253 0.925131
vt -2.379253 0.994491
vt -2.336566 0.925131
vt -2.336566 0.994491
vt -2.293880 0.925131
vt -2.293880 0.994491
vt -2.251193 0.925131
vt -2.251193 0.994491
vt -2.208506 0.925131
vt -2.208506 0.994491
vt -2.165819 0.925131
vt -2.165819 0.994491
vt -2.123133 0.925131
vt -2.123133 0.994491
vt -2.976867 0.925131
vt -2.934181 0.925131
vt -2.934181 0.994491
vt -2.976867 0.994491
vt -2.891494 0.925131
vt -2.891494 0.994491
vt -2.848808 0.925131
vt -2.848808 0.994491
vt -2.806121 0.925131
vt -2.806121 0.994491
vt -2.763434 0.925131
vt -2.763434 0.994491
vt -2.720747 0.925131
vt -2.720747 0.994491
vt -2.678061 0.925131
vt -2.678061 0.994491
vt -2.635374 0.925131
vt -2.635374 0.994491
vt -2.592687 0.925131
vt -2.592687 0.994491
vt -2.550000 0.925131
vt -2.550000 0.994491
vt -1.455213 0.915708
vt -1.410426 0.915708
vt -1.410426 1.000000
vt -1.455213 1.000000
vt -1.365638 0.915708
vt -1.365638 1.000000
vt -1.320851 0.915708
vt -1.320851 1.000000
vt -1.276064 0.915708
vt -1.276064 1.000000
vt -1.231277 0.915708
vt -1.231277 1.000000
vt -1.186489 0.915708
vt -1.186489 1.000000
vt -1.141702 0.915708
vt -1.141702 1.000000
vt -1.096915 0.915708
vt -1.096915 1.000000
vt -1.052128 0.915708
vt -1.052128 1.000000
vt -1.947872 0.915708
vt -1.903085 0.915708
vt -1.903085 1.000000
vt -1.947872 1.000000
vt -1.858298 0.915708
vt -1.858298 1.000000
vt -1.813511 0.915708
vt -1.813511 1.000000
vt -1.768723 0.915708
vt -1.768723 1.000000
vt -1.723936 0.915708
vt -1.723936 1.000000
vt -1.679149 0.915708
vt -1.679149 1.000000
vt -1.634362 0.915708
vt -1.634362 1.000000
vt -1.589575 0.915708
vt -1.589575 1.000000
vt -1.544787 0.915708
vt -1.544787 1.000000
vt -1.500000 0.915708
vt -1.500000 1.000000
vt -2.507039 0.994491
vt -2.464077 0.994491
vt -2.464077 0.925131
vt -2.507039 0.925131
vt -2.421117 0.994491
vt -2.421117 0.925131
vt -2.378155 0.994491
vt -2.378155 0.925131
vt -2.335195 0.994491
vt -2.335195 0.925131
vt -2.292233 0.994491
vt -2.292233 0.925131
vt -2.249272 0.994491
vt -2.249272 0.925131
vt -2.206311 0.994491
vt -2.206311 0.925131
vt -2.163350 0.994491
vt -2.163350 0.925131
vt -2.120390 0.994491
vt -2.120390 0.925131
vt -2.979610 0.994491
vt -2.936650 0.994491
vt -2.936650 0.925131
vt -2.979610 0.925131
vt -2.893688 0.994491
vt -2.893688 0.925131
vt -2.850728 0.994491
vt -2.850728 0.925131
vt -2.807766 0.994491
vt -2.807766 0.925131
vt -2.764805 0.994491
vt -2.764805 0.925131
vt -2.721844 0.994491
vt -2.721844 0.925131
vt -2.678883 0.994491
vt -2.678883 0.925131
vt -2.635922 0.994491
vt -2.635922 0.925131
vt -2.592961 0.994491
vt -2.592961 0.925131
vt -2.550000 0.994491
vt -2.550000 0.925131
vt 0.991464 0.381251
vt 0.946426 0.319262
vt 0.873552 0.414604
vt 0.873552 0.295584
vt 0.800679 0.319262
vt 0.755641 0.381251
vt 0.755641 0.457875
vt 0.800679 0.519865
vt 0.873552 0.543543
vt 0.946426 0.519865
vt 0.991464 0.457875
vt 0.047792 0.302635
vt 0.145216 0.302635
vt 0.145216 0.364717
vt 0.047792 0.364717
vt 0.242639 0.302635
vt 0.242639 0.364717
vt 0.047792 0.237934
vt 0.145216 0.237934
vt 0.242639 0.237934
vt 0.047792 0.302635
vt 0.145216 0.302635
vt 0.145216 0.364717
vt 0.047792 0.364717
vt 0.242639 0.302635
vt 0.242639 0.364717
vt 0.047792 0.237934
vt 0.145216 0.237934
vt 0.242639 0.237934
vt 0.047792 0.302635
vt 0.145216 0.302635
vt 0.145216 0.364717
vt 0.047792 0.364717
vt 0.242639 0.302635
vt 0.242639 0.364717
vt 0.047792 0.237934
vt 0.145216 0.237934
vt 0.242639 0.237934
vt 0.047792 0.302635
vt 0.145216 0.302635
vt 0.145216 0.364717
vt 0.047792 0.364717
vt 0.242639 0.302635
vt 0.242639 0.364717
vt 0.047792 0.237934
vt 0.145216 0.237934
vt 0.242639 0.237934
vt 0.047792 0.302635
vt 0.145216 0.302635
vt 0.145216 0.364717
vt 0.047792 0.364717
vt 0.047792 0.237934
vt 0.145216 0.237934
vt 0.047792 0.302635
vt 0.145216 0.302635
vt 0.145216 0.364717
vt 0.047792 0.364717
vt 0.242639 0.302635
vt 0.242639 0.364717
vt 0.047792 0.237934
vt 0.145216 0.237934
vt 0.242639 0.237934
vt 0.047792 0.302635
vt 0.145216 0.302635
vt 0.145216 0.364717
vt 0.047792 0.364717
vt 0.242639 0.302635
vt 0.242639 0.364717
vt 0.047792 0.237934
vt 0.145216 0.237934
vt 0.242639 0.237934
vt 0.047792 0.302635
vt 0.145216 0.302635
vt 0.145216 0.364717
vt 0.047792 0.364717
vt 0.047792 0.237934
vt 0.145216 0.237934
vt 0.047792 0.302635
vt 0.145216 0.302635
vt 0.145216 0.364717
vt 0.047792 0.364717
vt 0.242639 0.302635
vt 0.242639 0.364717
vt 0.047792 0.237934
vt 0.145216 0.237934
vt 0.242639 0.237934
vt 0.047792 0.302635
vt 0.145216 0.302635
vt 0.145216 0.364717
vt 0.047792 0.364717
vt 0.047792 0.237934
vt 0.145216 0.237934
vt 0.510742 0.237934
vt 0.562760 0.237934
vt 0.563341 0.302640
vt 0.509892 0.302608
vt 0.562761 0.364717
vt 0.510742 0.364717
vt 0.418234 0.237934
vt 0.461839 0.237934
vt 0.462563 0.304467
vt 0.416250 0.302754
vt 0.461840 0.364717
vt 0.418235 0.364717
vt 0.322286 0.237934
vt 0.359801 0.237934
vt 0.361467 0.303246
vt 0.321022 0.302635
vt 0.359804 0.364717
vt 0.322288 0.364717
vt 0.632333 0.302635
vt 0.632333 0.364717
vt 0.632333 0.237934
vt 0.510742 0.237934
vt 0.562760 0.237934
vt 0.563341 0.302640
vt 0.509892 0.302608
vt 0.562761 0.364717
vt 0.510742 0.364717
vt 0.418234 0.237934
vt 0.461839 0.237934
vt 0.462563 0.304467
vt 0.416250 0.302754
vt 0.461840 0.364717
vt 0.418235 0.364717
vt 0.322286 0.237934
vt 0.359801 0.237934
vt 0.361467 0.303246
vt 0.321022 0.302635
vt 0.359804 0.364717
vt 0.322288 0.364717
vt 0.632333 0.302635
vt 0.632333 0.364717
vt 0.632333 0.237934
vt 0.510742 0.237934
vt 0.562760 0.237934
vt 0.563341 0.302640
vt 0.509892 0.302608
vt 0.562760 0.364717
vt 0.510742 0.364717
vt 0.418234 0.237934
vt 0.461839 0.237934
vt 0.462563 0.304467
vt 0.416250 0.302754
vt 0.461840 0.364717
vt 0.418235 0.364717
vt 0.322286 0.237934
vt 0.359801 0.237934
vt 0.361467 0.303246
vt 0.321022 0.302635
vt 0.359804 0.364717
vt 0.322288 0.364717
vt 0.632333 0.302635
vt 0.632333 0.364717
vt 0.632333 0.237934
vt 0.510742 0.237934
vt 0.562760 0.237934
vt 0.563341 0.302640
vt 0.509892 0.302608
vt 0.562761 0.364717
vt 0.510742 0.364717
vt 0.418234 0.237934
vt 0.461839 0.237934
vt 0.462563 0.304467
vt 0.416250 0.302754
vt 0.461840 0.364717
vt 0.418235 0.364717
vt 0.322286 0.237934
vt 0.359801 0.237934
vt 0.361467 0.303246
vt 0.321022 0.302635
vt 0.359804 0.364717
vt 0.322288 0.364717
vt 0.632333 0.302635
vt 0.632333 0.364717
vt 0.632333 0.237934
vt 0.510742 0.237934
vt 0.562760 0.237934
vt 0.563341 0.302640
vt 0.509892 0.302608
vt 0.562761 0.364717
vt 0.510742 0.364717
vt 0.418234 0.237934
vt 0.461839 0.237934
vt 0.462563 0.304467
vt 0.416250 0.302754
vt 0.461840 0.364717
vt 0.418235 0.364717
vt 0.322286 0.237934
vt 0.359801 0.237934
vt 0.361467 0.303246
vt 0.321022 0.302635
vt 0.359804 0.364717
vt 0.322288 0.364717
vt 0.632333 0.302635
vt 0.632333 0.364717
vt 0.632333 0.237934
vt 0.510742 0.237934
vt 0.562760 0.237934
vt 0.563341 0.302640
vt 0.509892 0.302608
vt 0.562761 0.364717
vt 0.510742 0.364717
vt 0.418234 0.237934
vt 0.461839 0.237934
vt 0.462563 0.304467
vt 0.416250 0.302754
vt 0.461840 0.364717
vt 0.418235 0.364717
vt 0.322286 0.237934
vt 0.359801 0.237934
vt 0.361467 0.303246
vt 0.321022 0.302635
vt 0.359804 0.364717
vt 0.322288 0.364717
vt 0.632333 0.302635
vt 0.632333 0.364717
vt 0.632333 0.237934
vt 0.510742 0.237934
vt 0.562760 0.237934
vt 0.563341 0.302640
vt 0.509892 0.302608
vt 0.562761 0.364717
vt 0.510742 0.364717
vt 0.418234 0.237934
vt 0.461839 0.237934
vt 0.462563 0.304467
vt 0.416250 0.302754
vt 0.461840 0.364717
vt 0.418235 0.364717
vt 0.322286 0.237934
vt 0.359801 0.237934
vt 0.361467 0.303246
vt 0.321022 0.302635
vt 0.359804 0.364717
vt 0.322288 0.364717
vt 0.632333 0.302635
vt 0.632333 0.364717
vt 0.632333 0.237934
vt 0.222148 0.237934
vt 0.264589 0.237934
vt 0.265972 0.302635
vt 0.221731 0.302635
vt 0.264588 0.364717
vt 0.222148 0.364717
vt 0.222148 0.237934
vt 0.264589 0.237934
vt 0.265972 0.302635
vt 0.221731 0.302635
vt 0.264588 0.364717
vt 0.222148 0.364717
vt 0.215318 0.237934
vt 0.271905 0.237934
vt 0.273689 0.302635
vt 0.214761 0.302635
vt 0.271905 0.364717
vt 0.215317 0.364717
vt 0.510742 0.237934
vt 0.562760 0.237934
vt 0.563341 0.302640
vt 0.509892 0.302608
vt 0.562761 0.364717
vt 0.510742 0.364717
vt 0.418234 0.237934
vt 0.461839 0.237934
vt 0.462563 0.304467
vt 0.416250 0.302754
vt 0.461840 0.364717
vt 0.418235 0.364717
vt 0.322286 0.237934
vt 0.359801 0.237934
vt 0.361467 0.303246
vt 0.321022 0.302635
vt 0.359804 0.364717
vt 0.322288 0.364717
vt 0.632333 0.302635
vt 0.632333 0.364717
vt 0.632333 0.237934
vt 0.510742 0.237934
vt 0.562760 0.237934
vt 0.563341 0.302640
vt 0.509892 0.302608
vt 0.562761 0.364717
vt 0.510742 0.364717
vt 0.418234 0.237934
vt 0.461839 0.237934
vt 0.462563 0.304467
vt 0.416250 0.302754
vt 0.461840 0.364717
vt 0.418235 0.364717
vt 0.322286 0.237934
vt 0.359801 0.237934
vt 0.361467 0.303246
vt 0.321022 0.302635
vt 0.359804 0.364717
vt 0.322288 0.364717
vt 0.512962 0.237934
vt 0.560202 0.237934
vt 0.560730 0.302640
vt 0.512190 0.302610
vt 0.560202 0.364717
vt 0.512962 0.364717
vt 0.420002 0.237934
vt 0.459602 0.237934
vt 0.460259 0.304299
vt 0.418201 0.302743
vt 0.459603 0.364717
vt 0.420003 0.364717
vt 0.323919 0.237934
vt 0.357988 0.237934
vt 0.359501 0.303190
vt 0.322768 0.302635
vt 0.357991 0.364717
vt 0.323921 0.364717
vt 0.632333 0.302635
vt 0.632333 0.364717
vt 0.632333 0.237934
vt 0.632333 0.302635
vt 0.632333 0.364717
vt 0.632333 0.237934
vn 0.938610 -0.161254 -0.304972
vn 0.798429 -0.161253 -0.580093
vn 0.798429 -0.161253 -0.580093
vn 0.938610 -0.161254 -0.304972
vn 0.580093 -0.161253 -0.798430
vn 0.580093 -0.161253 -0.798430
vn 0.304973 -0.161253 -0.938610
vn 0.304973 -0.161253 -0.938610
vn -0.000000 -0.161254 -0.986913
vn -0.000000 -0.161254 -0.986913
vn -0.304973 -0.161254 -0.938610
vn -0.304973 -0.161254 -0.938610
vn -0.580093 -0.161254 -0.798429
vn -0.580093 -0.161254 -0.798429
vn -0.798430 -0.161253 -0.580093
vn -0.798430 -0.161253 -0.580093
vn -0.938610 -0.161253 -0.304973
vn -0.938610 -0.161253 -0.304973
vn -0.986913 -0.161253 0.000000
vn -0.986913 -0.161253 0.000000
vn -0.938610 -0.161253 0.304973
vn -0.938610 -0.161253 0.304973
vn -0.798429 -0.161253 0.580093
vn -0.798429 -0.161253 0.580093
vn -0.580093 -0.161253 0.798429
vn -0.580093 -0.161253 0.798429
vn -0.304973 -0.161253 0.938610
vn -0.304973 -0.161253 0.938610
vn 0.000000 -0.161253 0.986913
vn 0.000000 -0.161253 0.986913
vn 0.304973 -0.161253 0.938610
vn 0.304973 -0.161253 0.938610
vn 0.580093 -0.161253 0.798429
vn 0.580093 -0.161253 0.798430
vn 0.798429 -0.161253 0.580093
vn 0.798429 -0.161253 0.580093
vn 0.938610 -0.161254 0.304973
vn 0.938610 -0.161253 0.304973
vn 0.986913 -0.161254 0.000001
vn 0.986913 -0.161254 0.000001
vn 0.000000 -1.000000 0.000000
vn 0.000000 -1.000000 0.000000
vn 0.000000 -1.000000 0.000000
vn 0.000000 -1.000000 0.000000
vn 0.000000 -1.000000 0.000000
vn 0.000000 -1.000000 0.000000
vn 0.000000 -1.000000 0.000000
vn 0.000000 -1.000000 0.000000
vn 0.000000 -1.000000 0.000000
vn 0.000000 -1.000000 0.000000
vn 0.000000 -1.000000 0.000000
vn 0.000000 -1.000000 0.000000
vn 0.000000 -1.000000 0.000000
vn 0.000000 -1.000000 0.000000
vn 0.000000 -1.000000 0.000000
vn 0.000000 -1.000000 0.000000
vn 0.000000 -1.000000 0.000000
vn 0.000000 -1.000000 0.000000
vn 0.000000 -1.000000 0.000000
vn 0.000000 -1.000000 0.000000
vn 0.000000 -1.000000 0.000000
vn 0.000000 -1.000000 -0.000000
vn 0.000000 -1.000000 -0.000000
vn 0.000000 -1.000000 -0.000000
vn 0.000000 -1.000000 -0.000000
vn 0.000000 -1.000000 -0.000000
vn 0.000000 -1.000000 -0.000000
vn 0.000000 -1.000000 -0.000000
vn 0.000000 -1.000000 -0.000000
vn 0.000000 -1.000000 -0.000000
vn 0.000000 -1.000000 -0.000000
vn 0.000000 -1.000000 -0.000000
vn 0.000000 -1.000000 -0.000000
vn 0.000000 -1.000000 -0.000000
vn 0.000000 -1.000000 -0.000000
vn 0.000000 -1.000000 -0.000000
vn 0.000000 -1.000000 -0.000000
vn 0.000000 -1.000000 0.000000
vn 0.000000 -1.000000 0.000000
vn 0.000000 -1.000000 0.000000
vn 0.000000 -1.000000 0.000000
vn 0.000000 -1.000000 -0.000001
vn 0.000000 -1.000000 -0.000001
vn 0.000000 -1.000000 -0.000001
vn 0.000000 -1.000000 -0.000001
vn 0.000000 -1.000000 0.000000
vn 0.000000 -1.000000 0.000000
vn 0.000000 -1.000000 0.000000
vn 0.000000 -1.000000 0.000000
vn 0.000000 -1.000000 0.000000
vn 0.000000 -1.000000 0.000000
vn 0.000000 -1.000000 0.000000
vn 0.000000 -1.000000 0.000000
vn 0.000000 -1.000000 0.000000
vn 0.000000 -1.000000 0.000000
vn 0.000000 -1.000000 0.000000
vn 0.000000 -1.000000 0.000000
vn 0.000000 -1.000000 0.000000
vn 0.000000 -1.000000 0.000000
vn 0.000000 -1.000000 0.000000
vn 0.000000 -1.000000 0.000000
vn 0.000000 -1.000000 0.000000
vn 0.000000 -1.000000 0.000000
vn 0.000000 -1.000000 0.000000
vn 0.000000 -1.000000 0.000000
vn 0.000000 -1.000000 0.000002
vn 0.000000 -1.000000 0.000002
vn 0.000000 -1.000000 0.000002
vn 0.000000 -1.000000 0.000002
vn 0.000000 -1.000000 0.000001
vn 0.000000 -1.000000 0.000001
vn 0.000000 -1.000000 0.000001
vn 0.000000 -1.000000 0.000001
vn 0.000000 -1.000000 0.000000
vn 0.000000 -1.000000 0.000000
vn 0.000000 -1.000000 0.000000
vn 0.000000 -1.000000 0.000000
vn 0.000000 -1.000000 0.000003
vn 0.000000 -1.000000 0.000003
vn 0.000000 -1.000000 0.000003
vn 0.000000 -1.000000 0.000003
vn 0.000000 -1.000000 0.000001
vn 0.000000 -1.000000 0.000001
vn 0.000000 -1.000000 0.000001
vn 0.000000 -1.000000 0.000001
vn 0.000000 -1.000000 0.000001
vn 0.000000 -1.000000 0.000001
vn 0.000000 -1.000000 0.000001
vn 0.000000 -1.000000 0.000001
vn 0.000000 -1.000000 -0.000000
vn 0.000000 -1.000000 -0.000000
vn 0.000000 -1.000000 -0.000000
vn 0.000000 -1.000000 -0.000000
vn 0.000000 -1.000000 -0.000000
vn 0.000000 -1.000000 -0.000000
vn 0.000000 -1.000000 -0.000000
vn 0.000000 -1.000000 -0.000000
vn 0.000000 -1.000000 -0.000000
vn 0.000000 -1.000000 -0.000000
vn 0.000000 -1.000000 -0.000000
vn 0.000000 -1.000000 -0.000000
vn 0.949990 -0.047356 -0.308670
vn 0.808109 -0.047356 -0.587126
vn 0.808109 -0.047356 -0.587126
vn 0.949990 -0.047356 -0.308670
vn 0.587126 -0.047356 -0.808109
vn 0.587126 -0.047356 -0.808109
vn 0.308670 -0.047356 -0.949990
vn 0.308670 -0.047356 -0.949990
vn 0.000000 -0.047356 -0.998878
vn -0.000000 -0.047356 -0.998878
vn -0.308671 -0.047356 -0.949989
vn -0.308671 -0.047356 -0.949989
vn -0.587126 -0.047356 -0.808109
vn -0.587126 -0.047356 -0.808109
vn -0.808109 -0.047356 -0.587126
vn -0.808109 -0.047356 -0.587126
vn -0.949990 -0.047355 -0.308670
vn -0.949990 -0.047356 -0.308670
vn -0.998878 -0.047356 -0.000000
vn -0.998878 -0.047356 -0.000000
vn -0.949990 -0.047356 0.308670
vn -0.949990 -0.047356 0.308670
vn -0.808109 -0.047356 0.587126
vn -0.808109 -0.047356 0.587126
vn -0.587126 -0.047356 0.808109
vn -0.587126 -0.047356 0.808109
vn -0.308670 -0.047355 0.949990
vn -0.308670 -0.047355 0.949990
vn 0.000000 -0.047356 0.998878
vn 0.000000 -0.047356 0.998878
vn 0.308670 -0.047356 0.949990
vn 0.308670 -0.047356 0.949990
vn 0.587126 -0.047356 0.808110
vn 0.587126 -0.047356 0.808109
vn 0.808109 -0.047356 0.587126
vn 0.808109 -0.047356 0.587126
vn 0.949990 -0.047356 0.308670
vn 0.949990 -0.047356 0.308670
vn 0.998878 -0.047356 0.000001
vn 0.998878 -0.047356 0.000001
vn 0.000000 1.000000 0.000000
vn 0.000000 1.000000 0.000000
vn 0.000000 1.000000 0.000000
vn 0.000000 1.000000 0.000000
vn 0.000000 1.000000 0.000000
vn 0.000000 1.000000 0.000000
vn 0.000000 1.000000 0.000000
vn 0.000000 1.000000 0.000000
vn 0.000000 1.000000 -0.000001
vn 0.000000 1.000000 -0.000001
vn 0.000000 1.000000 -0.000001
vn 0.000000 1.000000 -0.000001
vn 0.000000 1.000000 -0.000000
vn 0.000000 1.000000 -0.000000
vn 0.000000 1.000000 -0.000000
vn 0.000000 1.000000 -0.000000
vn 0.000000 1.000000 -0.000002
vn 0.000000 1.000000 -0.000002
vn 0.000000 1.000000 -0.000002
vn 0.000000 1.000000 -0.000002
vn 0.000000 1.000000 -0.000002
vn 0.000000 1.000000 -0.000002
vn 0.000000 1.000000 -0.000002
vn 0.000000 1.000000 -0.000002
vn 0.000000 1.000000 -0.000001
vn 0.000000 1.000000 -0.000001
vn 0.000000 1.000000 -0.000001
vn 0.000000 1.000000 -0.000001
vn 0.000000 1.000000 0.000000
vn 0.000000 1.000000 0.000000
vn 0.000000 1.000000 0.000000
vn 0.000000 1.000000 0.000000
vn 0.000000 1.000000 -0.000000
vn 0.000000 1.000000 -0.000000
vn 0.000000 1.000000 -0.000000
vn 0.000000 1.000000 -0.000000
vn 0.000000 1.000000 0.000000
vn 0.000000 1.000000 0.000000
vn 0.000000 1.000000 0.000000
vn 0.000000 1.000000 0.000000
vn 0.000000 1.000000 0.000000
vn 0.000000 1.000000 0.000000
vn 0.000000 1.000000 0.000000
vn 0.000000 1.000000 0.000000
vn 0.000000 1.000000 0.000000
vn 0.000000 1.000000 0.000000
vn 0.000000 1.000000 0.000000
vn 0.000000 1.000000 0.000000
vn 0.000000 1.000000 0.000001
vn 0.000000 1.000000 0.000001
vn 0.000000 1.000000 0.000001
vn 0.000000 1.000000 0.000001
vn 0.000000 1.000000 0.000000
vn 0.000000 1.000000 0.000000
vn 0.000000 1.000000 0.000000
vn 0.000000 1.000000 0.000000
vn 0.000000 1.000000 -0.000000
vn 0.000000 1.000000 -0.000000
vn 0.000000 1.000000 -0.000000
vn 0.000000 1.000000 -0.000000
vn 0.000000 1.000000 -0.000000
vn 0.000000 1.000000 -0.000000
vn 0.000000 1.000000 -0.000000
vn 0.000000 1.000000 -0.000000
vn 0.000000 1.000000 0.000000
vn 0.000000 1.000000 0.000000
vn 0.000000 1.000000 0.000000
vn 0.000000 1.000000 0.000000
vn 0.000000 1.000000 0.000000
vn 0.000000 1.000000 0.000000
vn 0.000000 1.000000 0.000000
vn 0.000000 1.000000 0.000000
vn 0.000000 1.000000 0.000000
vn 0.000000 1.000000 0.000000
vn 0.000000 1.000000 0.000000
vn 0.000000 1.000000 0.000000
vn 0.000000 1.000000 0.000000
vn 0.000000 1.000000 0.000000
vn 0.000000 1.000000 0.000000
vn 0.000000 1.000000 0.000000
vn -0.921071 0.249126 0.299273
vn -0.783509 0.249126 0.569253
vn -0.783509 0.249126 0.569254
vn -0.921071 0.249126 0.299273
vn -0.569253 0.249126 0.783509
vn -0.569253 0.249126 0.783510
vn -0.299274 0.249127 0.921071
vn -0.299274 0.249127 0.921071
vn 0.000000 0.249127 0.968471
vn 0.000000 0.249127 0.968471
vn 0.299274 0.249126 0.921071
vn 0.299274 0.249126 0.921071
vn 0.569253 0.249125 0.783510
vn 0.569253 0.249125 0.783510
vn 0.783510 0.249126 0.569253
vn 0.783510 0.249126 0.569253
vn 0.921071 0.249126 0.299274
vn 0.921071 0.249126 0.299274
vn 0.968471 0.249127 0.000000
vn 0.968471 0.249127 0.000000
vn 0.921070 0.249127 -0.299274
vn 0.921071 0.249127 -0.299274
vn 0.783509 0.249127 -0.569253
vn 0.783509 0.249127 -0.569253
vn 0.569253 0.249127 -0.783509
vn 0.569253 0.249127 -0.783509
vn 0.299274 0.249127 -0.921071
vn 0.299274 0.249127 -0.921070
vn 0.000000 0.249127 -0.968471
vn 0.000000 0.249127 -0.968471
vn -0.299274 0.249127 -0.921070
vn -0.299274 0.249127 -0.921070
vn -0.569253 0.249127 -0.783509
vn -0.569253 0.249127 -0.783509
vn -0.783510 0.249126 -0.569253
vn -0.783509 0.249126 -0.569253
vn -0.921071 0.249126 -0.299274
vn -0.921071 0.249126 -0.299274
vn -0.968471 0.249126 -0.000001
vn -0.968471 0.249126 -0.000001
vn 0.331649 0.937228 -0.107759
vn 0.204970 0.937228 -0.282118
vn 0.000000 1.000000 -0.000000
vn 0.000000 0.937228 -0.348716
vn -0.204970 0.937228 -0.282118
vn -0.331649 0.937228 -0.107759
vn -0.331649 0.937228 0.107759
vn -0.204970 0.937228 0.282118
vn 0.000000 0.937228 0.348717
vn 0.204970 0.937228 0.282117
vn 0.331649 0.937228 0.107759
vn -0.893317 0.449426 0.000000
vn -0.864862 0.502010 -0.000000
vn -0.863848 0.501421 0.048410
vn -0.893317 0.449426 0.000000
vn -0.716760 0.697320 0.000082
vn -0.708548 0.687708 0.158172
vn -0.893317 0.449426 0.000000
vn -0.863928 0.501468 -0.046454
vn -0.709273 0.688372 -0.151910
vn -0.898563 0.335570 0.282803
vn -0.880432 0.390749 0.268617
vn -0.862903 0.396462 0.313394
vn -0.898563 0.335570 0.282803
vn -0.773746 0.600788 0.200927
vn -0.710754 0.612461 0.346007
vn -0.898563 0.335570 0.282802
vn -0.895312 0.384404 0.225056
vn -0.817196 0.573496 0.057382
vn -0.440171 0.603025 0.665289
vn -0.418689 0.649615 0.634587
vn -0.378093 0.648223 0.660948
vn -0.440171 0.603025 0.665289
vn -0.315554 0.815018 0.485975
vn -0.181148 0.802027 0.569155
vn -0.440171 0.603025 0.665289
vn -0.456723 0.649517 0.607891
vn -0.438362 0.806844 0.396033
vn 0.079194 0.615903 0.783832
vn 0.079961 0.661743 0.745454
vn 0.128120 0.658018 0.742023
vn 0.079194 0.615903 0.783831
vn 0.080184 0.823640 0.561416
vn 0.236762 0.802983 0.546957
vn 0.079194 0.615903 0.783832
vn 0.033572 0.663859 0.747104
vn -0.072232 0.822668 0.563915
vn 0.771648 0.154605 0.616974
vn 0.773353 0.206601 0.599368
vn 0.794917 0.197210 0.573773
vn 0.771648 0.154605 0.616974
vn 0.771648 0.154605 0.616974
vn 0.751782 0.215378 0.623247
vn 0.867532 0.496877 -0.022382
vn 0.839080 0.541720 -0.049845
vn 0.848336 0.521270 -0.092752
vn 0.867532 0.496877 -0.022382
vn 0.691967 0.704010 -0.159847
vn 0.717502 0.629762 -0.297643
vn 0.867532 0.496877 -0.022382
vn 0.828347 0.560150 -0.008562
vn 0.652607 0.757360 -0.022579
vn 0.747546 0.320514 -0.581761
vn 0.714962 0.369191 -0.593740
vn 0.694295 0.346149 -0.630980
vn 0.747546 0.320514 -0.581761
vn 0.554116 0.554945 -0.620477
vn 0.482799 0.472859 -0.737095
vn 0.747546 0.320514 -0.581761
vn 0.733219 0.390488 -0.556695
vn 0.611064 0.618986 -0.493414
vn 0.513792 0.203993 -0.833309
vn 0.507238 0.258745 -0.822047
vn 0.474356 0.258777 -0.841440
vn 0.513792 0.203993 -0.833310
vn 0.513792 0.203993 -0.833309
vn 0.538095 0.258360 -0.802312
vn 0.153589 0.337810 -0.928598
vn 0.157897 0.392954 -0.905900
vn 0.110021 0.398558 -0.910520
vn 0.153589 0.337810 -0.928598
vn 0.169460 0.602771 -0.779711
vn 0.011551 0.614071 -0.789167
vn 0.153589 0.337810 -0.928598
vn 0.203491 0.386711 -0.899470
vn 0.317197 0.575795 -0.753556
vn -0.453263 -0.169244 -0.875162
vn -0.448706 -0.114274 -0.886344
vn -0.482300 -0.108046 -0.869317
vn -0.453263 -0.169244 -0.875162
vn -0.453263 -0.169244 -0.875162
vn -0.415854 -0.120093 -0.901467
vn 0.320365 0.764939 -0.558780
vn 0.438139 0.599066 -0.670190
vn 0.455425 0.597512 -0.659975
vn 0.367462 0.765017 -0.528885
vn 0.472061 0.598552 -0.647220
vn 0.417894 0.763700 -0.492064
vn 0.005243 0.957258 -0.289187
vn 0.179748 0.879929 -0.439791
vn 0.276643 0.882154 -0.381146
vn 0.144845 0.969471 -0.197855
vn 0.367014 0.875473 -0.314401
vn 0.295476 0.950811 -0.093014
vn -0.338020 0.934874 0.108412
vn -0.152821 0.977638 -0.144463
vn 0.037432 0.998936 -0.026935
vn -0.151900 0.957529 0.245082
vn 0.221539 0.969139 0.108121
vn 0.054962 0.926754 0.371627
vn 0.481529 0.527065 -0.700238
vn 0.489945 0.526905 -0.694496
vn 0.473407 0.527166 -0.705678
vn -0.046131 0.754910 -0.654204
vn -0.027357 0.584780 -0.810730
vn -0.007505 0.582246 -0.812978
vn 0.009405 0.752287 -0.658769
vn 0.013485 0.582304 -0.812860
vn 0.071709 0.748019 -0.659792
vn -0.125358 0.959295 -0.253058
vn -0.080907 0.875262 -0.476834
vn 0.031721 0.871962 -0.488545
vn 0.041458 0.963451 -0.264659
vn 0.143623 0.859990 -0.489683
vn 0.223756 0.936062 -0.271516
vn -0.159845 0.949083 0.271462
vn -0.162940 0.985710 -0.042740
vn 0.060432 0.996107 -0.064178
vn 0.071846 0.960805 0.267753
vn 0.287087 0.955566 -0.066902
vn 0.311437 0.918263 0.244540
vn -0.014316 0.511090 -0.859408
vn -0.004159 0.510443 -0.859902
vn -0.024059 0.511660 -0.858851
vn -0.024031 0.955835 -0.292918
vn -0.176644 0.876218 -0.448374
vn -0.165294 0.870316 -0.463927
vn 0.010783 0.942378 -0.334376
vn -0.150641 0.865295 -0.478092
vn 0.051415 0.924285 -0.378224
vn 0.234866 0.968424 0.083624
vn 0.104942 0.987086 -0.121034
vn 0.175186 0.962640 -0.206479
vn 0.346324 0.937378 -0.037175
vn 0.246484 0.926129 -0.285536
vn 0.456012 0.873395 -0.170981
vn 0.467831 0.752803 0.463057
vn 0.334778 0.904745 0.263364
vn 0.483150 0.870000 0.098316
vn 0.638928 0.709407 0.297511
vn 0.619555 0.782246 -0.065134
vn 0.775416 0.622725 0.104613
vn -0.229037 0.831890 -0.505470
vn -0.222565 0.829131 -0.512842
vn -0.235224 0.834456 -0.498350
vn 0.142402 0.968916 -0.202294
vn 0.209148 0.977686 0.019661
vn 0.192094 0.980922 0.029869
vn 0.093319 0.979590 -0.178029
vn 0.172718 0.984268 0.037211
vn 0.037046 0.987661 -0.152163
vn 0.039691 0.790921 -0.610630
vn 0.091613 0.909734 -0.404959
vn -0.007415 0.934516 -0.355844
vn -0.110545 0.829235 -0.547858
vn -0.107994 0.945694 -0.306596
vn -0.271293 0.846038 -0.458934
vn -0.096849 0.407235 -0.908174
vn -0.003961 0.645781 -0.763513
vn -0.203892 0.704611 -0.679670
vn -0.317454 0.458154 -0.830252
vn -0.404674 0.716977 -0.567611
vn -0.526839 0.486672 -0.696844
vn 0.226838 0.968077 0.106634
vn 0.217770 0.969668 0.111000
vn 0.235515 0.966457 0.102435
vn 0.494084 0.867517 -0.057406
vn 0.679557 0.733348 -0.020058
vn 0.680987 0.732295 0.000001
vn 0.495517 0.868597 -0.001651
vn 0.679518 0.733360 0.020911
vn 0.493377 0.867691 0.060762
vn 0.066411 0.983200 -0.170022
vn 0.299058 0.948015 -0.108772
vn 0.303967 0.952673 0.004308
vn 0.066279 0.997795 -0.003390
vn 0.300289 0.946691 0.116633
vn 0.066737 0.981337 0.180344
vn -0.442500 0.866376 -0.231488
vn -0.142147 0.965041 -0.220204
vn -0.137500 0.990497 0.002940
vn -0.455990 0.889985 -0.001070
vn -0.141326 0.962522 0.231470
vn -0.440203 0.864795 0.241558
vn 0.740876 0.671642 -0.000001
vn 0.740837 0.671607 0.010189
vn 0.740841 0.671609 -0.009775
vn 0.125099 0.905477 0.405539
vn 0.050798 0.799769 0.598155
vn 0.030744 0.801413 0.597321
vn 0.070173 0.913694 0.400299
vn 0.010442 0.804909 0.593306
vn 0.008781 0.920369 0.390953
vn 0.295892 0.955095 -0.015576
vn 0.206811 0.955435 0.210649
vn 0.095545 0.974766 0.201747
vn 0.133755 0.990332 -0.036765
vn -0.015558 0.982513 0.185545
vn -0.049563 0.997189 -0.056186
vn 0.392665 0.772523 -0.499021
vn 0.364259 0.906419 -0.213823
vn 0.147451 0.959997 -0.238041
vn 0.170300 0.823062 -0.541818
vn -0.081141 0.960617 -0.265765
vn -0.073813 0.830496 -0.552112
vn 0.016251 0.748696 0.662714
vn 0.006212 0.749934 0.661483
vn 0.025880 0.747436 0.663830
vn -0.079292 0.965206 0.249181
vn -0.223492 0.883591 0.411484
vn -0.241448 0.883058 0.402383
vn -0.127358 0.966940 0.220923
vn -0.258369 0.883829 0.389990
vn -0.179571 0.965873 0.186665
vn 0.248711 0.966101 -0.069226
vn 0.074171 0.992421 0.097976
vn -0.023981 0.998839 0.041780
vn 0.108876 0.981130 -0.159778
vn -0.118643 0.992759 -0.018789
vn -0.050165 0.966406 -0.252075
vn 0.537921 0.735422 -0.412063
vn 0.394208 0.894513 -0.210825
vn 0.205340 0.921594 -0.329394
vn 0.345609 0.758213 -0.552872
vn 0.008694 0.894897 -0.446189
vn 0.122374 0.738185 -0.663406
vn -0.280157 0.839890 0.464862
vn -0.288822 0.839906 0.459500
vn -0.271818 0.839794 0.469959
vn 0.583998 0.386489 -0.713844
vn 0.588360 0.592881 -0.549840
vn 0.419217 0.610237 -0.672211
vn 0.484217 0.387974 -0.784226
vn 0.224481 0.594579 -0.772064
vn 0.373095 0.387254 -0.843110
vn -0.320390 0.002946 -0.947281
vn -0.184214 0.228545 -0.955946
vn -0.376897 0.271198 -0.885664
vn -0.432242 0.020482 -0.901525
vn -0.562541 0.296956 -0.771599
vn -0.540058 0.042288 -0.840565
vn 0.677356 0.384678 0.627066
vn 0.579064 0.574826 0.578151
vn 0.723037 0.534519 0.437615
vn 0.765817 0.350960 0.538844
vn 0.843055 0.462861 0.273894
vn 0.842776 0.314216 0.437032
vn 0.302395 0.905972 -0.296262
vn 0.508092 0.800834 -0.317028
vn 0.516419 0.802526 -0.298770
vn 0.322554 0.914316 -0.244920
vn 0.522016 0.806065 -0.278852
vn 0.341982 0.921124 -0.185953
vn -0.150563 0.954322 -0.258069
vn 0.091484 0.955337 -0.281003
vn 0.133838 0.974927 -0.177779
vn -0.096191 0.989921 -0.103941
vn 0.169643 0.982917 -0.071381
vn -0.030574 0.997196 0.068312
vn -0.624937 0.770545 -0.125358
vn -0.358146 0.905081 -0.229261
vn -0.281789 0.959150 -0.025033
vn -0.562625 0.821550 0.092237
vn -0.203072 0.960283 0.191359
vn -0.461361 0.829572 0.314574
vn 0.581445 0.749976 -0.315368
vn 0.584887 0.751237 -0.305860
vn 0.578087 0.748694 -0.324459
vn -0.505625 0.760862 -0.406733
vn -0.677345 0.605358 -0.418025
vn -0.674486 0.596049 -0.435653
vn -0.495245 0.738876 -0.456940
vn -0.668641 0.588602 -0.454386
vn -0.479939 0.712721 -0.511554
vn -0.112902 0.954619 -0.275602
vn -0.326878 0.874386 -0.358610
vn -0.307812 0.831833 -0.461851
vn -0.077703 0.899663 -0.429616
vn -0.280383 0.780797 -0.558338
vn -0.039083 0.809484 -0.585839
vn 0.372879 0.924699 -0.076765
vn 0.080527 0.979537 -0.184451
vn 0.122878 0.910822 -0.394087
vn 0.434517 0.853143 -0.288690
vn 0.175302 0.792292 -0.584417
vn 0.470723 0.729409 -0.496370
vn -0.528718 0.836164 -0.145899
vn -0.705332 0.708297 -0.028659
vn -0.714401 0.698424 -0.042832
vn -0.554021 0.810208 -0.191371
vn -0.721556 0.689770 -0.059782
vn -0.578365 0.778926 -0.242421
vn -0.110721 0.950946 -0.288864
vn -0.359258 0.907610 -0.217203
vn -0.409474 0.860297 -0.303677
vn -0.181916 0.885050 -0.428477
vn -0.450380 0.803672 -0.388933
vn -0.256138 0.783635 -0.565959
vn 0.386312 0.830254 -0.401798
vn 0.081300 0.942101 -0.325325
vn -0.016882 0.861257 -0.507889
vn 0.301228 0.742269 -0.598580
vn -0.102413 0.730933 -0.674721
vn 0.191091 0.608544 -0.770168
vn -0.732273 0.535057 -0.421295
vn -0.730079 0.530859 -0.430318
vn -0.734306 0.539033 -0.412599
vn -0.756917 0.653482 0.006178
vn -0.761204 0.648509 -0.002106
vn -0.752725 0.658184 0.014125
s 1
g polySurface8
usemtl blinn1SG
f 1/1/1 2/2/2 22/3/3 21/4/4
f 2/2/2 3/5/5 23/6/6 22/3/3
f 3/5/5 4/7/7 24/8/8 23/6/6
f 4/7/7 5/9/9 25/10/10 24/8/8
f 5/9/9 6/11/11 26/12/12 25/10/10
f 6/11/11 7/13/13 27/14/14 26/12/12
f 7/13/13 8/15/15 28/16/16 27/14/14
f 8/15/15 9/17/17 29/18/18 28/16/16
f 9/17/17 10/19/19 30/20/20 29/18/18
f 10/21/19 11/22/21 31/23/22 30/24/20
f 11/22/21 12/25/23 32/26/24 31/23/22
f 12/25/23 13/27/25 33/28/26 32/26/24
f 13/27/25 14/29/27 34/30/28 33/28/26
f 14/29/27 15/31/29 35/32/30 34/30/28
f 15/31/29 16/33/31 36/34/32 35/32/30
f 16/33/31 17/35/33 37/36/34 36/34/32
f 17/35/33 18/37/35 38/38/36 37/36/34
f 18/37/35 19/39/37 39/40/38 38/38/36
f 19/39/37 20/41/39 40/42/40 39/40/38
f 20/41/39 1/1/1 21/4/4 40/42/40
s 2
f 2/43/41 1/44/42 41/45/43
f 3/46/44 2/43/41 41/45/43
f 4/47/45 3/46/44 41/45/43
f 5/48/46 4/47/45 41/45/43
f 6/49/47 5/48/46 41/45/43
f 7/50/48 6/49/47 41/45/43
f 8/51/49 7/50/48 41/45/43
f 9/52/50 8/51/49 41/45/43
f 10/53/51 9/52/50 41/45/43
f 11/54/52 10/53/51 41/45/43
f 12/55/53 11/54/52 41/45/43
f 13/56/54 12/55/53 41/45/43
f 14/57/55 13/56/54 41/45/43
f 15/58/56 14/57/55 41/45/43
f 16/59/57 15/58/56 41/45/43
f 17/60/58 16/59/57 41/45/43
f 18/61/59 17/60/58 41/45/43
f 19/62/60 18/61/59 41/45/43
f 20/63/61 19/62/60 41/45/43
f 1/44/42 20/63/61 41/45/43
s off
f 21/64/62 22/65/63 43/66/64 42/67/65
f 22/65/66 23/68/67 44/69/68 43/66/69
f 23/68/70 24/70/71 45/71/72 44/69/73
f 24/70/74 25/72/75 46/73/76 45/71/77
f 25/72/78 26/74/79 47/75/80 46/73/81
f 26/74/82 27/76/83 48/77/84 47/75/85
f 27/76/86 28/78/87 49/79/88 48/77/89
f 28/78/90 29/80/91 50/81/92 49/79/93
f 29/80/94 30/82/95 51/83/96 50/81/97
f 30/84/98 31/85/99 52/86/100 51/87/101
f 31/85/102 32/88/103 53/89/104 52/86/105
f 32/88/106 33/90/107 54/91/108 53/89/109
f 33/90/110 34/92/111 55/93/112 54/91/113
f 34/92/114 35/94/115 56/95/116 55/93/117
f 35/94/118 36/96/119 57/97/120 56/95/121
f 36/96/122 37/98/123 58/99/124 57/97/125
f 37/98/126 38/100/127 59/101/128 58/99/129
f 38/100/130 39/102/131 60/103/132 59/101/133
f 39/102/134 40/104/135 61/105/136 60/103/137
f 40/104/138 21/64/139 42/67/140 61/105/141
s 3
f 42/106/142 43/107/143 63/108/144 62/109/145
f 43/107/143 44/110/146 64/111/147 63/108/144
f 44/110/146 45/112/148 65/113/149 64/111/147
f 45/112/148 46/114/150 66/115/151 65/113/149
f 46/114/150 47/116/152 67/117/153 66/115/151
f 47/116/152 48/118/154 68/119/155 67/117/153
f 48/118/154 49/120/156 69/121/157 68/119/155
f 49/120/156 50/122/158 70/123/159 69/121/157
f 50/122/158 51/124/160 71/125/161 70/123/159
f 51/126/160 52/127/162 72/128/163 71/129/161
f 52/127/162 53/130/164 73/131/165 72/128/163
f 53/130/164 54/132/166 74/133/167 73/131/165
f 54/132/166 55/134/168 75/135/169 74/133/167
f 55/134/168 56/136/170 76/137/171 75/135/169
f 56/136/170 57/138/172 77/139/173 76/137/171
f 57/138/172 58/140/174 78/141/175 77/139/173
f 58/140/174 59/142/176 79/143/177 78/141/175
f 59/142/176 60/144/178 80/145/179 79/143/177
f 60/144/178 61/146/180 81/147/181 80/145/179
f 61/146/180 42/106/142 62/109/145 81/147/181
s off
f 62/148/182 63/149/183 83/150/184 82/151/185
f 63/149/186 64/152/187 84/153/188 83/150/189
f 64/152/190 65/154/191 85/155/192 84/153/193
f 65/154/194 66/156/195 86/157/196 85/155/197
f 66/156/198 67/158/199 87/159/200 86/157/201
f 67/158/202 68/160/203 88/161/204 87/159/205
f 68/160/206 69/162/207 89/163/208 88/161/209
f 69/162/210 70/164/211 90/165/212 89/163/213
f 70/164/214 71/166/215 91/167/216 90/165/217
f 71/168/218 72/169/219 92/170/220 91/171/221
f 72/169/222 73/172/223 93/173/224 92/170/225
f 73/172/226 74/174/227 94/175/228 93/173/229
f 74/174/230 75/176/231 95/177/232 94/175/233
f 75/176/234 76/178/235 96/179/236 95/177/237
f 76/178/238 77/180/239 97/181/240 96/179/241
f 77/180/242 78/182/243 98/183/244 97/181/245
f 78/182/246 79/184/247 99/185/248 98/183/249
f 79/184/250 80/186/251 100/187/252 99/185/253
f 80/186/254 81/188/255 101/189/256 100/187/257
f 81/188/258 62/148/259 82/151/260 101/189/261
s 4
f 82/190/262 83/191/263 103/192/264 102/193/265
f 83/191/263 84/194/266 104/195/267 103/192/264
f 84/194/266 85/196/268 105/197/269 104/195/267
f 85/196/268 86/198/270 106/199/271 105/197/269
f 86/198/270 87/200/272 107/201/273 106/199/271
f 87/200/272 88/202/274 108/203/275 107/201/273
f 88/202/274 89/204/276 109/205/277 108/203/275
f 89/204/276 90/206/278 110/207/279 109/205/277
f 90/206/278 91/208/280 111/209/281 110/207/279
f 91/210/280 92/211/282 112/212/283 111/213/281
f 92/211/282 93/214/284 113/215/285 112/212/283
f 93/214/284 94/216/286 114/217/287 113/215/285
f 94/216/286 95/218/288 115/219/289 114/217/287
f 95/218/288 96/220/290 116/221/291 115/219/289
f 96/220/290 97/222/292 117/223/293 116/221/291
f 97/222/292 98/224/294 118/225/295 117/223/293
f 98/224/294 99/226/296 119/227/297 118/225/295
f 99/226/296 100/228/298 120/229/299 119/227/297
f 100/228/298 101/230/300 121/231/301 120/229/299
f 101/230/300 82/190/262 102/193/265 121/231/301
s 5
f 122/232/302 123/233/303 132/234/304
f 123/233/303 124/235/305 132/234/304
f 124/235/305 125/236/306 132/234/304
f 125/236/306 126/237/307 132/234/304
f 126/237/307 127/238/308 132/234/304
f 127/238/308 128/239/309 132/234/304
f 128/239/309 129/240/310 132/234/304
f 129/240/310 130/241/311 132/234/304
f 130/241/311 131/242/312 132/234/304
f 131/242/312 122/232/302 132/234/304
s 6
f 141/243/313 142/244/314 140/245/315 135/246/316
f 142/244/314 143/247/317 138/248/318 140/245/315
f 133/249/319 139/250/320 142/244/314 141/243/313
f 139/250/320 137/251/321 143/247/317 142/244/314
s 7
f 153/252/322 154/253/323 152/254/324 147/255/325
f 154/253/323 155/256/326 150/257/327 152/254/324
f 145/258/328 151/259/329 154/253/323 153/252/322
f 151/259/329 149/260/330 155/256/326 154/253/323
s 8
f 165/261/331 166/262/332 164/263/333 159/264/334
f 166/262/332 167/265/335 162/266/336 164/263/333
f 157/267/337 163/268/338 166/262/332 165/261/331
f 163/268/338 161/269/339 167/265/335 166/262/332
s 9
f 177/270/340 178/271/341 176/272/342 171/273/343
f 178/271/341 179/274/344 174/275/345 176/272/342
f 169/276/346 175/277/347 178/271/341 177/270/340
f 175/277/347 173/278/348 179/274/344 178/271/341
s 10
f 187/279/349 188/280/350 186/281/351 183/282/352
f 181/283/353 185/284/354 188/280/350 187/279/349
s 11
f 198/285/355 199/286/356 197/287/357 192/288/358
f 199/286/356 200/289/359 195/290/360 197/287/357
f 190/291/361 196/292/362 199/286/356 198/285/355
f 196/292/362 194/293/363 200/289/359 199/286/356
s 12
f 210/294/364 211/295/365 209/296/366 204/297/367
f 211/295/365 212/298/368 207/299/369 209/296/366
f 202/300/370 208/301/371 211/295/365 210/294/364
f 208/301/371 206/302/372 212/298/368 211/295/365
s 13
f 220/303/373 221/304/374 219/305/375 216/306/376
f 214/307/377 218/308/378 221/304/374 220/303/373
s 14
f 231/309/379 232/310/380 230/311/381 225/312/382
f 232/310/380 233/313/383 228/314/384 230/311/381
f 223/315/385 229/316/386 232/310/380 231/309/379
f 229/316/386 227/317/387 233/313/383 232/310/380
s 15
f 241/318/388 242/319/389 240/320/390 237/321/391
f 235/322/392 239/323/393 242/319/389 241/318/388
s 8
f 245/324/394 244/325/395 247/326/396 246/327/397
f 246/327/397 247/326/396 261/328/398 260/329/399
f 249/330/400 248/331/401 251/332/402 250/333/403
f 250/333/403 251/332/402 259/334/404 258/335/405
f 253/336/406 252/337/407 255/338/408 254/339/409
f 254/339/409 255/338/408 257/340/410 256/341/411
f 247/326/396 168/342/412 160/343/413 261/328/398
f 251/332/402 246/327/397 260/329/399 259/334/404
f 255/338/408 250/333/403 258/335/405 257/340/410
f 167/265/335 254/339/409 256/341/411 162/266/336
f 161/269/339 253/336/406 254/339/409 167/265/335
f 255/338/408 252/337/407 249/330/400 250/333/403
f 251/332/402 248/331/401 245/324/394 246/327/397
f 247/326/396 244/325/395 158/344/414 168/342/412
s 9
f 263/345/415 262/346/416 265/347/417 264/348/418
f 264/348/418 265/347/417 279/349/419 278/350/420
f 267/351/421 266/352/422 269/353/423 268/354/424
f 268/354/424 269/353/423 277/355/425 276/356/426
f 271/357/427 270/358/428 273/359/429 272/360/430
f 272/360/430 273/359/429 275/361/431 274/362/432
f 265/347/417 180/363/433 172/364/434 279/349/419
f 269/353/423 264/348/418 278/350/420 277/355/425
f 273/359/429 268/354/424 276/356/426 275/361/431
f 179/274/344 272/360/430 274/362/432 174/275/345
f 173/278/348 271/357/427 272/360/430 179/274/344
f 273/359/429 270/358/428 267/351/421 268/354/424
f 269/353/423 266/352/422 263/345/415 264/348/418
f 265/347/417 262/346/416 170/365/435 180/363/433
s 10
f 281/366/436 280/367/437 283/368/438 282/369/439
f 282/369/439 283/368/438 297/370/440 296/371/441
f 285/372/442 284/373/443 287/374/444 286/375/445
f 286/375/445 287/374/444 295/376/446 294/377/447
f 289/378/448 288/379/449 291/380/450 290/381/451
f 290/381/451 291/380/450 293/382/452 292/383/453
f 283/368/438 189/384/454 184/385/455 297/370/440
f 287/374/444 282/369/439 296/371/441 295/376/446
f 291/380/450 286/375/445 294/377/447 293/382/452
f 291/380/450 288/379/449 285/372/442 286/375/445
f 287/374/444 284/373/443 281/366/436 282/369/439
f 283/368/438 280/367/437 182/386/456 189/384/454
s 15
f 299/387/457 298/388/458 301/389/459 300/390/460
f 300/390/460 301/389/459 315/391/461 314/392/462
f 303/393/463 302/394/464 305/395/465 304/396/466
f 304/396/466 305/395/465 313/397/467 312/398/468
f 307/399/469 306/400/470 309/401/471 308/402/472
f 308/402/472 309/401/471 311/403/473 310/404/474
f 301/389/459 243/405/475 238/406/476 315/391/461
f 305/395/465 300/390/460 314/392/462 313/397/467
f 309/401/471 304/396/466 312/398/468 311/403/473
f 309/401/471 306/400/470 303/393/463 304/396/466
f 305/395/465 302/394/464 299/387/457 300/390/460
f 301/389/459 298/388/458 236/407/477 243/405/475
s 6
f 317/408/478 316/409/479 319/410/480 318/411/481
f 318/411/481 319/410/480 333/412/482 332/413/483
f 321/414/484 320/415/485 323/416/486 322/417/487
f 322/417/487 323/416/486 331/418/488 330/419/489
f 325/420/490 324/421/491 327/422/492 326/423/493
f 326/423/493 327/422/492 329/424/494 328/425/495
f 319/410/480 144/426/496 136/427/497 333/412/482
f 323/416/486 318/411/481 332/413/483 331/418/488
f 327/422/492 322/417/487 330/419/489 329/424/494
f 143/247/317 326/423/493 328/425/495 138/248/318
f 137/251/321 325/420/490 326/423/493 143/247/317
f 327/422/492 324/421/491 321/414/484 322/417/487
f 323/416/486 320/415/485 317/408/478 318/411/481
f 319/410/480 316/409/479 134/428/498 144/426/496
s 14
f 335/429/499 334/430/500 337/431/501 336/432/502
f 336/432/502 337/431/501 351/433/503 350/434/504
f 339/435/505 338/436/506 341/437/507 340/438/508
f 340/438/508 341/437/507 349/439/509 348/440/510
f 343/441/511 342/442/512 345/443/513 344/444/514
f 344/444/514 345/443/513 347/445/515 346/446/516
f 337/431/501 234/447/517 226/448/518 351/433/503
f 341/437/507 336/432/502 350/434/504 349/439/509
f 345/443/513 340/438/508 348/440/510 347/445/515
f 233/313/383 344/444/514 346/446/516 228/314/384
f 227/317/387 343/441/511 344/444/514 233/313/383
f 345/443/513 342/442/512 339/435/505 340/438/508
f 341/437/507 338/436/506 335/429/499 336/432/502
f 337/431/501 334/430/500 224/449/519 234/447/517
s 13
f 353/450/520 352/451/521 355/452/522 354/453/523
f 354/453/523 355/452/522 369/454/524 368/455/525
f 357/456/526 356/457/527 359/458/528 358/459/529
f 358/459/529 359/458/528 367/460/530 366/461/531
f 361/462/532 360/463/533 363/464/534 362/465/535
f 362/465/535 363/464/534 365/466/536 364/467/537
f 355/452/522 222/468/538 217/469/539 369/454/524
f 359/458/528 354/453/523 368/455/525 367/460/530
f 363/464/534 358/459/529 366/461/531 365/466/536
f 363/464/534 360/463/533 357/456/526 358/459/529
f 359/458/528 356/457/527 353/450/520 354/453/523
f 355/452/522 352/451/521 215/470/540 222/468/538
f 371/471/541 370/472/542 373/473/543 372/474/544
f 372/474/544 373/473/543 375/475/545 374/476/546
f 221/304/374 372/474/544 374/476/546 219/305/375
f 218/308/378 371/471/541 372/474/544 221/304/374
f 373/473/543 362/465/535 364/467/537 375/475/545
f 373/473/543 370/472/542 361/462/532 362/465/535
s 15
f 377/477/547 376/478/548 379/479/549 378/480/550
f 378/480/550 379/479/549 381/481/551 380/482/552
f 242/319/389 378/480/550 380/482/552 240/320/390
f 239/323/393 377/477/547 378/480/550 242/319/389
f 379/479/549 308/402/472 310/404/474 381/481/551
f 379/479/549 376/478/548 307/399/469 308/402/472
s 10
f 383/483/553 382/484/554 385/485/555 384/486/556
f 384/486/556 385/485/555 387/487/557 386/488/558
f 188/280/350 384/486/556 386/488/558 186/281/351
f 185/284/354 383/483/553 384/486/556 188/280/350
f 385/485/555 290/381/451 292/383/453 387/487/557
f 385/485/555 382/484/554 289/378/448 290/381/451
s 7
f 389/489/559 388/490/560 391/491/561 390/492/562
f 390/492/562 391/491/561 405/493/563 404/494/564
f 393/495/565 392/496/566 395/497/567 394/498/568
f 394/498/568 395/497/567 403/499/569 402/500/570
f 397/501/571 396/502/572 399/503/573 398/504/574
f 398/504/574 399/503/573 401/505/575 400/506/576
f 391/491/561 156/507/577 148/508/578 405/493/563
f 395/497/567 390/492/562 404/494/564 403/499/569
f 399/503/573 394/498/568 402/500/570 401/505/575
f 155/256/326 398/504/574 400/506/576 150/257/327
f 149/260/330 397/501/571 398/504/574 155/256/326
f 399/503/573 396/502/572 393/495/565 394/498/568
f 395/497/567 392/496/566 389/489/559 390/492/562
f 391/491/561 388/490/560 146/509/579 156/507/577
s 11
f 407/510/580 406/511/581 409/512/582 408/513/583
f 408/513/583 409/512/582 423/514/584 422/515/585
f 411/516/586 410/517/587 413/518/588 412/519/589
f 412/519/589 413/518/588 421/520/590 420/521/591
f 415/522/592 414/523/593 417/524/594 416/525/595
f 416/525/595 417/524/594 419/526/596 418/527/597
s 12
f 425/528/598 424/529/599 427/530/600 426/531/601
f 426/531/601 427/530/600 441/532/602 440/533/603
f 429/534/604 428/535/605 431/536/606 430/537/607
f 430/537/607 431/536/606 439/538/608 438/539/609
f 433/540/610 432/541/611 435/542/612 434/543/613
f 434/543/613 435/542/612 437/544/614 436/545/615
s 11
f 409/512/582 201/546/616 193/547/617 423/514/584
f 413/518/588 408/513/583 422/515/585 421/520/590
f 417/524/594 412/519/589 420/521/591 419/526/596
f 200/289/359 416/525/595 418/527/597 195/290/360
f 194/293/363 415/522/592 416/525/595 200/289/359
f 417/524/594 414/523/593 411/516/586 412/519/589
f 413/518/588 410/517/587 407/510/580 408/513/583
f 409/512/582 406/511/581 191/548/618 201/546/616
s 12
f 427/530/600 213/549/619 205/550/620 441/532/602
f 431/536/606 426/531/601 440/533/603 439/538/608
f 435/542/612 430/537/607 438/539/609 437/544/614
f 212/298/368 434/543/613 436/545/615 207/299/369
f 206/302/372 433/540/610 434/543/613 212/298/368
f 435/542/612 432/541/611 429/534/604 430/537/607
f 431/536/606 428/535/605 425/528/598 426/531/601
f 427/530/600 424/529/599 203/551/621 213/549/619
